<svg xmlns="http://www.w3.org/2000/svg" viewBox="0 0 24 24">
      <path fill="none" d="M-226-58h558v210h-558z"/>
      <path d="M8.06 18.6c-1.473 0-2.669-1.163-2.669-2.597v-5.889h3.925a3.281 3.281 0 0 0-.639 1.946c0 1.856 1.546 3.36 3.453 3.36 1.908 0 3.454-1.504 3.454-3.36 0-.725-.238-1.397-.64-1.946h3.943v5.889c0 1.434-1.195 2.597-2.67 2.597H8.062zm6.73-6.54c0 1.427-1.193 2.588-2.66 2.588-1.466 0-2.66-1.16-2.66-2.588 0-.775.352-1.47.909-1.946a2.698 2.698 0 0 1 2.849-.411c.239.106.459.245.654.411.557.475.909 1.171.909 1.946zm-.2-2.357A3.492 3.492 0 0 0 12.13 8.7a3.49 3.49 0 0 0-2.46 1.003H5.391V7.997c0-.875.446-1.648 1.128-2.12v2.797h.547V5.587c.124-.048.253-.088.386-.118v3.205h.547V5.402L8.06 5.4h.316v3.273h.547V5.401h7.294c1.474 0 2.669 1.162 2.669 2.596v1.706H14.59zM0 .304v23.372h24V.304H0z"/>
      <path d="M12.139 10.167c-1.086 0-1.966.857-1.966 1.913 0 1.057.88 1.913 1.966 1.913 1.086 0 1.966-.856 1.966-1.913 0-1.056-.88-1.913-1.966-1.913M17.239 6.506h-1.443a.422.422 0 0 0-.428.417v1.435c0 .23.191.416.428.416h1.443a.422.422 0 0 0 .428-.416V6.923a.422.422 0 0 0-.428-.417"/>
</svg>
