<svg xmlns="http://www.w3.org/2000/svg" xmlns:xlink="http://www.w3.org/1999/xlink" viewBox="0 0 24 24" fill-rule="evenodd">
        <path fill="none" d="M-226-92h558v210h-558z"/>
        <path d="M18.66 17.388h-2.622v-4.36c0-1.195-.466-1.863-1.435-1.863-1.054 0-1.605.696-1.605 1.864v4.359H10.47V9.083h2.527v1.119s.76-1.372 2.565-1.372c1.804 0 3.097 1.075 3.097 3.3v5.258zM7.456 7.996c-.86 0-1.558-.686-1.558-1.533 0-.846.698-1.532 1.558-1.532.86 0 1.558.686 1.558 1.532 0 .847-.697 1.533-1.558 1.533zM6.15 17.388h2.635V9.083H6.15v8.305zM0 0v23.435h24V0H0z"/>
</svg>
