<svg xmlns="http://www.w3.org/2000/svg" viewBox="0 0 388.2 50.5" fill="#ffffff">
  <title>Nya Wermlands-Tidningen Logo</title>
  <path
    d="M388.2,11c-.1,2.3,0,5-.1,7.3a1.5,1.5,0,0,0-1.4.8c-.5,2.6.1,24.2-.2,31.3a46.9,46.9,0,0,0-5.3.1c-.7-1.1-.6-2.8-1.2-3.9-1.1-3.2-3.7-12-3.7-12l-.5-1c-.4.7,0,5-.2,6.2a10.1,10.1,0,0,0,.3,2.5c.4.7,1.9.3,1.6,1.5v6.5c-2.1.4-4-.1-5.8.2a35.3,35.3,0,0,0-4.6,0,12.9,12.9,0,0,1-.1-3.4,10.1,10.1,0,0,1,.1-3c-.1-.2-.5-.9,0-1.2a2.4,2.4,0,0,0,1.4-.5,9,9,0,0,0,.3-4.3c.1-1.2-.1-2.6,0-3.7s0-4.8-.2-7h0c-.1-2.3.2-4.4-.1-6.4a2.6,2.6,0,0,0-.3-2.4c-.3-.4-1.7.1-1.5-1V11.1c.3-1,1.4-.1,2.2-.4h2.8l2.2-.2c1.1.3.9,1.7,1.2,2.6s.7,2.3,1.1,3.5h0c.9,2.9,1.6,6,2.9,9.4.4-.4.2-1.4.2-1.4s-.2-3.6-.1-5.2-1-.8-1.3-1.3c0-2.3.1-4.6,0-6.9s1.2-.3,1.9-.6a32.2,32.2,0,0,0,7.6-.1C387.6,10.6,388.1,10.5,388.2,11Z"
  />
  <path
    d="M364.3,10.8c.2,1.5,0,2.6.2,4h-.1c0,2.9.2,5.9.1,8.8-1.7.4-3.2-.1-5,.1-.1,0-.2-.2-.2-.3h.1a6.6,6.6,0,0,0-.1-2s.5-2.2-.8-2.7-1.5,0-1.5,0a1.1,1.1,0,0,1,0,.6c0,2.8,0,5.3.2,8.1l.8.3a7.9,7.9,0,0,1,1.7-.2c.2,1.1-.1,2.3.1,3.6s.4,1.7-.5,2a2.9,2.9,0,0,0-1.6-.1c-.1,0-.5,0-.6.2-.1,3,.1,6.2,0,9.3a.6.6,0,0,0,.6.5,1.8,1.8,0,0,0,1.9-1.3V38.2h5V50.4H348c-.6-.8,0-1.6-.2-2.5s.1-3,0-4.9l1.3-.5c.6-.5.5-1.5.6-2.1,0-6.2-.1-12.4-.1-18.3-.4-1.2.5-3.1-.8-3.6h-1.1c-.1-1.2-.3-2.3-.3-3.4s0-2.4.2-3.8-.2-.2-.1-.2c2.6-.2,5.4-.1,8-.1l6.9-.2A6.1,6.1,0,0,1,364.3,10.8Z"
  />
  <path
    d="M313.8,11.1c1.2,4.9,2.8,9.7,4.5,14.6.4-.6,0-1.5.1-2.1a22.6,22.6,0,0,0-.1-4.5c-.3-.9-1.8-.4-1.5-1.5s0-4.4-.1-6.7l.3-.2h10.4c.1,2.4-.2,5.1,0,7.5l-1.1.2-.5.8c0,6.2-.2,12.5,0,18.8-.3,4.4.1,8,0,12.2a2.2,2.2,0,0,1-1.1.1h-5.1c-.5-.4-.5-1.6-.5-1.6-.5-2-1.3-4.1-1.8-6.4-.2-.5-2.4-7.8-2.4-7.8s-.7.3-.6.6.2,3.2,0,4.7-.5,2.4.7,2.8.8,0,1,.5c-.2,2.2.1,4.7,0,7l-.3.2H305.1a3.8,3.8,0,0,1-.1-1.5,41.4,41.4,0,0,1,.1-6.1,2.1,2.1,0,0,0,1.6-.3l.5-.8c.1-7.9.2-15-.1-22.6a1.6,1.6,0,0,0-1-.8,2.1,2.1,0,0,1-1.1,0V10.8l.6-.2h6.6S313.7,10.1,313.8,11.1Z"
  />
  <path
    d="M341.2,10.6c1.6,2.5,2.8,4.6,4.5,7a27.5,27.5,0,0,0-.2,5c.1.2-.2.8.2,1h-6.9c-.3-1.7,0-3.4-.4-5s-1.1-.5-1.6-.2l-.4.6c-.1,3.9,0,19.3,0,23a1.4,1.4,0,0,0,1.8.7l.2-.2c-.2-.2.2-.5.3-.7s-.1-5.4-.1-5.4.4-3-.3-3.5h-.6c0-.2-.3,0-.3-.1s-.1-4.7-.2-4.7,1.9-.4,2.6-.5,4,0,5.8,0c.4,1.9-.2,4.3.1,6.1s0,6.7,0,6.7.7,3.3-.7,4.4-2.2,3.7-2.9,5.6c-2.5.1-5.8-.2-8.2,0a4,4,0,0,1-1-1.5c-1.1-2-2.8-3.5-3.7-5.7s.3-2.9-.1-4.2c.3-7,.1-13.9.1-21.2,0,0,2.1-3.4,2.2-4.5l1.6-2.4c.7-.4,1.8,0,2.6,0A52.4,52.4,0,0,1,341.2,10.6Z"
  />
  <path
    d="M302.2,11c.1,2-.1,5.2-.1,7.4a2,2,0,0,0-1.7.9c0,4.1-.1,8.8,0,12.9h0c0,3.1.1,6.2.1,9.4.1,1.5,2.5.3,2,2s.2,4.4-.2,6.6H294c-.8-.1-2.3.4-2.5-.6s.2-4.4.1-6.7c.3-.3,1.1-.3,1.4-.8a5.3,5.3,0,0,0,.5-2.5V20.9c-.2-.6.3-1.5-.3-2.2s-1-.6-1.6-.4-.3-.2,0-.6,0-5.8-.2-7h.3C294,10.6,300.7,10.1,302.2,11Z"
  />
  <path
    d="M288.6,10.6c.6.4.3,5.9-.1,8-.5-.3-.8.1-1.1.5s0,3.1-.1,4.8,0,7.1.1,7.9c.1,6.1-.2,12.4,0,18.3h-6.5a34.3,34.3,0,0,1-1.3-3.8c0-.6-3.6-12.5-3.6-12.5l-.2-.2c-.3.3-.2,5.9-.2,7.9s.7.9,1.1,1a5.9,5.9,0,0,1,.2,2.6,38.4,38.4,0,0,1,0,4.8c-1.8.3-10,.1-10,.1a9.1,9.1,0,0,1-.3-2.3c0-2,.1-3.5,0-5.4.5,0,1,.1,1.4-.5s.2-3.5.4-4.5c.1-3.2-.3-15.4-.1-17.7,0-.6-.2-1.5-1-1.6a.5.5,0,0,1-.8-.4c.1-.9,0-7.1,0-7.1h.3c2.8.2,6-.3,8.5.1.4,2,1,3.1,1.4,5a9.5,9.5,0,0,1,.6,1.8c.6,2,1.4,4,1.9,6a27.7,27.7,0,0,0,1,2.6c.4-1.5,0-2.6.3-4.2s.6-3.5-1.6-3.7c.1-.7,0-7.5,0-7.5s1-.1,1.6-.1a54.2,54.2,0,0,1,5.7-.1Z"
  />
  <path
    d="M243.1,10.6c.2,1.6-.1,3.1,0,4.7s.4,2.1-.1,3-.7-.3-.9,0-.7,16.8-.6,22.7a1.3,1.3,0,0,0,.7,1.4,2.9,2.9,0,0,1,1,.3,1.4,1.4,0,0,1,0,.9c.2,2.1,0,4.3.1,6.4-1.2.3-8.3-.1-10.3.2s-.2-.7-.4-1c-.1-2.3-.1-4.5,0-6.7.6-.1,1.3.3,1.6-.5v-.7c-.1-1.5.1-21,0-21.9s-.4-1.1-1-1.2-.8,0-.8-.3a45.3,45.3,0,0,0-.1-6.4c.1-.3-.1-1.2.7-1C235.4,10.4,242.2,10.5,243.1,10.6Z"
  />
  <path
    d="M224.7,10.6a20.3,20.3,0,0,1,5.5.2,11.5,11.5,0,0,1,0,3.7c0,3,.1,5.8.1,9h-3.7c-.6-.5,0-1.3-.4-1.8s-.8-4-1.7-3.4c-.2,4.8-.1,15-.1,15v8.3a1.3,1.3,0,0,0,1.5,1c.3,2.5-.3,4.8.1,7.3-.5.5-1.3.1-2.1.1h-5.2c-1,.4-2-.1-3,.2s-.3-1.2-.3-1.6c0-2,0-3.9-.1-5.8.4-.2.9,0,1.4-.3s.4-3.6.5-5.5,0-4,0-4V21.2h0c-.2-.7.1-2.7-.1-3h0c-1.2.1-1.5,1.8-1.8,2.8a18.7,18.7,0,0,1-.4,2.5,17.7,17.7,0,0,1-4,.1l-.3-.4c0-4.2,0-8.2-.1-12.3.1-.3.5-.3.8-.4S224.3,10.3,224.7,10.6Z"
  />
  <path
    d="M202.2,10.7a13.8,13.8,0,0,1,0,2.1c0,3.3-.1,6.8,0,10.1.1.3-.1.5-.4.5h-.1c-1.8,0-6,.3-5.9-.5s.8-3.9-1.4-4.8a1.6,1.6,0,0,0-1.3.6c-1.2,2,.6,3.6,1.5,5.3l2.1,3.4c.6,1.1,1.6,2.8,2.5,4.1a32.6,32.6,0,0,0,2.4,4,3.3,3.3,0,0,1,.8,2.5v5c-1.4,2.2-2.9,5.6-4,6.9a10.9,10.9,0,0,1-3.6.2c-.5,0-1.1-.9-1.1-.9s-1-1.1-1-1.1-.5.9-.5.9c-.5,1.5-2.6,1-3.8,1.1h-2.1c-.4-.6-.1-10.2-.3-12.3l.2-.2s6-.2,6.5.4-.8,3.6,1.3,4.4,1.2-.4,1.4-.8a1.9,1.9,0,0,0,0-1.8,4.2,4.2,0,0,0-1.1-1.8c-1.7-3-3.3-5.2-4.9-8.2s-2.1-3.4-3.1-5a38.6,38.6,0,0,1-.4-6,6.5,6.5,0,0,1,.9-3.8,29.1,29.1,0,0,1,2.6-4.5,30.9,30.9,0,0,1,4.3-.1,17.1,17.1,0,0,0,2.1,2.6,7.6,7.6,0,0,0,1.6-2.6h4.8Z"
  />
  <path
    d="M163.2,10.6V18c-.4.2-.9.3-1.2.8.2,2.7,0,28.1.2,31-.2.3-.9,0-1.2.3h-5c-.6.3-.6-.6-.7-.9s-2.1-7.4-2.7-9.5a37.5,37.5,0,0,0-1.6-4.7,20.7,20.7,0,0,0-.2,4.3c.2,1.1-.5,3.2,1.2,3.5a25.5,25.5,0,0,1,.2,3.9c0,1.1.1,2.3.1,3.3-3.1.1-6.4.2-9.5,0a53,53,0,0,1-.2-6.9c.2-.7,1.5-.2,1.6-1.1.2-4.2,0-8.4,0-12.7.1-2.5-.3-9.1-.3-9.9l-.8-.9c-1.2.6-.9-7.2-.6-7.8h8.1c1.2,4.4,4,13.9,4.3,14.2s.2-.9.2-.9.1-4.9-.7-5.4-1.2-.4-.9-1.1h0c-.2-2.4.1-4.4,0-6.6a4,4,0,0,1,1.9-.3c2.5.2,5.1-.1,7.7,0Z"
  />
  <path
    d="M112.1,10.7c0,1,0,2-.1,3s0,3.1.2,4.5-1.4,0-1.6.9,0,4.4,0,6.6v12a30.9,30.9,0,0,1,0,4.3l.2.4c.1,0,1,.3,1.4,0a1.8,1.8,0,0,0,.5-1.6,7.1,7.1,0,0,1,0-2.9c.6-.5,1.2,0,1.9-.2h2.5l.5.5a111.8,111.8,0,0,0,.2,11.6c-.4.5-1,.2-1.4.3-4.4-.1-12.1.1-12.1.1h-2.4c-.1-2.3.2-4.3-.1-6.5s2.1-.4,1.8-2c-.1-3.3-.3-18.3-.3-22.4-.3-.9-1.1-.6-1.7-1s-.3-5.4-.1-7.2l.2-.2c3.4-.2,6.8.1,10-.2Z"
  />
  <path
    d="M98.6,11c.2,2.2,0,4.9.1,7.1-.5.1-1.5.1-1.6.8s.1,16.5.3,22.7c0,.4.1.8.6.9a.6.6,0,0,1,.8.4c0,.1.1.1.1.2a40.8,40.8,0,0,0,.1,7c-3,.4-6.7-.2-9.9.2l-.3-.6c-.1-.1.3-5.3,0-6.8a1.8,1.8,0,0,0,1.5-1.5V35.8c0-.8-.1-2.6-.2-3.5l-.5-.2c-.3,1.4-.8,4.5-.8,4.6s-.5,2.6-.7,4.1l-.4,2.3c-.2,2.3-.9,4.4-1,6.9-.4.3-1.2.1-1.9.1s-1.7-7.2-1.8-7.7-.8-3.8-.8-3.8l-.5-1.7a20.5,20.5,0,0,0-1-4.8,43.4,43.4,0,0,0-.1,5.1,34.5,34.5,0,0,1-.2,4.2c.1.1-.2.7.4,1l1,.5a5.5,5.5,0,0,1,.1,2.2c.3.8,0,3.7.1,5a7.6,7.6,0,0,1-3,.1H72.7c-.5-1.2-.2-5.6-.3-6.2s-.2-1,.4-1.2,1.1-.4,1.4-.9-.3-17.8-.3-22.4c0-1.5-1.9-1.3-1.9-1.7s-.5-6.3,0-7.1,8.3.1,9.1,0,.5.7.6,1c.5,3.7,3.6,13,4,14.3a132.9,132.9,0,0,0,3.1-14.1c.1-1.6,0-1.1.3-1.2h9.2Z"
  />
  <path
    d="M43.5,10.8a19,19,0,0,1,3.4.1c.2.7,0,1.8.2,2.6s0,3.9,0,6.4,0,2.3-.1,3.6-3.4,0-4.8.1-.4-1.8-.4-1.8.3-2-.2-3a2.2,2.2,0,0,0-1.7-.5c-.4.8.1,1.5-.1,2.4s-.2,4.5-.2,4.5v1.6c.3.9,2.4.7,2.7.8a10.9,10.9,0,0,1,.1,4.4c-.5,0-2.3-.1-2.6.6a10.5,10.5,0,0,0,0,2.5v5.3a5,5,0,0,1-.2,1.8c.4.8,1.3.4,1.7.2s.6-1.2.6-1.7,0-2.3-.1-2.8a27.2,27.2,0,0,1,4.9-.2l.3.3V50.2c-.5-.1-12.9.2-15.6,0a32.4,32.4,0,0,1-.2-7.6,1.5,1.5,0,0,0,1.3-.5c0-.1.3-1,.1-.9s-.1-6.6-.1-7.9.1-13,0-13.9-.3-.7-.5-1a.9.9,0,0,1-1-1,35.5,35.5,0,0,1,0-6.5C37.1,10.6,43.5,10.8,43.5,10.8Z"
  />
  <path
    d="M14.5,10.9c1.2,0,1.3.2,1.4,1.1.8,4.9,1.8,11.1,2.9,16h.1c.5-2,.6-4.3,1.3-6.3s1-2.7-.4-3.5l-.4-.2c-.1-2.2-.1-4.6-.2-7l.4-.3h9.5l.2.2v7.2a2,2,0,0,0-1.6.7c-1.3,5.9-2,12-3.2,17.9s-1.5,9.1-2.5,13.6H17.6l-.4-.4a115.9,115.9,0,0,0-2.3-15.5c-.1-.3.1-.7-.2-.8l-.3.3c-1.1,5.4-2.1,10.7-3,16.3-1.6.1-3.1,0-4.7,0C5.3,40,3.3,30,1.8,19.7c-.1-.4-.2-1.1-.8-1.3s-1-.3-.9-.9V11l.4-.3H9.9c.3,2.3,0,4.7.2,7-.5.4-1.3.6-1.5,1.4A52.2,52.2,0,0,0,10,27.1h.1c1.1-5,2-9.9,2.8-15.4C12.8,10.9,13.4,10.8,14.5,10.9Z"
  />
  <path
    d="M259.1,10.6c.6.8,5.2,7.5,4.9,7.5V25c.2,4.4.2,14.6.2,14.6s-1.2,5.2-1.6,5.6-2.8,5.1-3.4,5c-2.3-.2-13.3,0-13.3,0s-.5-6.4-.3-7.6.8,0,1.1,0,.2-.1.3-.3.5-5.2.5-5.2h0c-.1-2.7,0-5.8,0-8.3s.1-8.3.1-8.3-.1-1.7-.7-2-1-.1-1.4-.4.1-7.5.1-7.5h1.2c3.1-.1,6.5.2,9.7,0Zm-4.7,7.7s-.2,7.3-.1,11.1,0,8.6.1,13a3.3,3.3,0,0,0,1.4,0c.7-.2.9-1,1.1-1.6s-.1-16-.2-18.9h.1a17.9,17.9,0,0,0-.2-2.3A2.5,2.5,0,0,0,254.4,18.3Z"
  />
  <path
    d="M178.5,10.5a16.1,16.1,0,0,1,1.7,2.8l1.8,2.5c.5,1,1.4,1.8,1.6,2.8h.1c0,1.8.2,17.8-.1,22.7a76.6,76.6,0,0,1-4.6,8.5c-4.7.2-8.9,0-13.4.2-.4-1.1-.2-5.7-.1-7.1s-.2-.4.1-.6a1.1,1.1,0,0,0,1.1-.1c.6-.6.4-1.3.5-2s-.1-17.7,0-18.6.5-2.8-.9-3.4h-.8c.1-.5-.1-5.3-.1-5.7s-.6-1.5.3-2Zm-4.3,7.8V40a13.4,13.4,0,0,0,.1,2,.3.3,0,0,0,.2.4h.2c.4-.1,1.3.3,1.4-.4s.3-1.1.5-1.6V28.3c0-2.1,0-9.1-.6-9.6a1.7,1.7,0,0,0-1.8-.4Z"
  />
  <path
    d="M68.2,18.4c-.1,2.1,0,7.4,0,7.7h0c.4.8-3,4-2.8,4.4a45.3,45.3,0,0,1,3,4.6v7.2c.2.7,1.4,0,1.8.8a55.2,55.2,0,0,0,.2,5.8h0c-.3.4.4,1.5-.7,1.3H66.8c-.8-.3-2,.6-2.2-.6l-3.1-5.5c-.1-.2.4-7.1-.1-10-.5-1.2-2.7-1.8-2.8-.9s-.1,4.3,0,4.8a24.1,24.1,0,0,0,0,3.8c.1,1.2,1.6.3,1.4,1.7s.4,6.1,0,6.6-9.4.2-10.2,0,0-1.7-.1-2.7,0-3.1.1-4.5,1.8-.1,1.4-1.1.3-20,.2-21.6-.1-1-.3-1.7-1.2.1-1.5-.3a16,16,0,0,0,0-3.1c0-1.1-.4-4,0-4.2H63.1A76.8,76.8,0,0,1,68.2,18.4Zm-9.4.2c-.1,3.1-.1,5.2,0,8.7.3,0,1.5.1,1.7-.2h0a2.1,2.1,0,0,0,.8-.6c0-.3,1.3-4.7.2-7S59.5,18.2,58.8,18.6Z"
  />
  <path
    d="M210.6,27.1c.4-.1,1.2,0,.9.6v4.8c-2.8-.1-5.1.4-7.9-.2.1-1.5,0-3.4,0-5l.3-.2c2.1-.2,3.9.2,6.2,0C210.2,27.5,210.4,26.9,210.6,27.1Z"
  />
  <path
    d="M133.6,10.5c.7,2.6,2.6,15.9,2.6,15.9.8,5.2,1.4,10,2.4,15.3.3.5,1.7.6,1.7,1.1s.2,5.9.1,7h-.1c-3,.2-5-.1-9.3,0-.2-.6,0-4.7,0-6.8-.2-.6.7-.7.9-1.1a11.6,11.6,0,0,0-.4-1.8,15,15,0,0,0-3,0,2.9,2.9,0,0,0-.3,1.8c0,.8,1,.2,1,1.1s0,5.6.1,6.7-.2.2-.3.2h-9.3l-.2-.2a51.5,51.5,0,0,0,.1-6.8c.3-.6,1.4-.4,1.9-.9s.3-1.9.5-2.9c.5-2.7,1-5.6,1.4-8.4,0,0,2.7-13.5,3.4-20.2C127,10.4,133.6,10.5,133.6,10.5ZM130.8,26l-1.2,8.5h2.3Z"
  />
  <path d="M196.2,0h2.6L200,1.9l1,2.3-.7-2.8V0h2.1V6.2H200l-1.3-2-.9-2.3.5,2.9V6.2h-2.1Z"/>
  <path d="M205,4l-2.2-4h2.7l.8,1.8.2,1.3V1.8l.7-1.8h2.2l-2,4V6.2H205Z"/>
  <path d="M211.5,4.3l.4-1.4.2-.9v.9l.4,1.4Zm-2.8,1.9h2.2l.2-.6h1.8l.2.6h2.7L213.6,0h-2.5Z"/>
</svg>
