<svg xmlns="http://www.w3.org/2000/svg" viewBox="0 0 490 136.5">
  <title>fb-logo</title>
  <rect x="392.5" y="75.9" width="70.6" height="59.54" fill="#d55409"/>
  <rect x="463" y="75.9" width="25.3" height="59.54" fill="#fac075"/>
  <path
    d="M50.1,21.8,42.7,11.6c-3.3-4.7-5.6-6.4-12.1-6.7l-8.5-.3v26h3.2c6.1,0,7.8-1.8,9.9-7.6l1.1-3.1h1.9v25h-2l-1-2.9c-2.1-5.8-3.8-7.6-9.9-7.6H22.1V56.8L30.7,59v1.6H.1V59l8-2.2V5.2L.1,3V1.4H50.5l1.3,20Z"
    fill="#1d1d1b"/>
  <path
    d="M94.8,17.9c0,8.2-5.4,12.6-12.3,12.7l-5.7.2V4.7l5.7.2C89.4,5.1,94.8,9.7,94.8,17.9Zm14.2-2c0-7.3-6-14.5-19.2-14.5H54.7V3l8.1,2.2V56.8L54.7,59v1.6h30V59l-7.9-2.2V34h1c6,0,9.1,1.5,11.1,6.7l3.8,9.5c3.1,7.7,5.3,10.4,12.6,10.4h11.2V59a11.5,11.5,0,0,1-5.4-3.7c-2.1-2.6-3.7-6.3-5.6-12.1S100,33.3,91.4,32v-.4C103.9,29.6,109,23,109,15.9Z"
    fill="#1d1d1b"/>
  <path
    d="M147.7,32.4V56.2l8.4,2.8v1.6H125.4V59l8.3-2.8V35.4L116.8,6.2l-7-3.2V1.4h29.4V3l-6.9,2.7,13,23.2L156.5,6.3,151,3V1.4h19.6V3l-6.3,3Z"
    fill="#1d1d1b"/>
  <path
    d="M227.9,55.8l6.8,3.2v1.6H207.6V59l4.3-2.3L197.5,33.5h-4.9V56.8l6.9,2.2v1.6H170.6V59l8.1-2.2V5.2L170.6,3V1.4h28.9V3l-6.9,2.2v24h5.7L215,7l-6.6-4V1.4h23.7V3l-8,3.3L207,25.1Z"
    fill="#1d1d1b"/>
  <path
    d="M256.4,62a32.3,32.3,0,0,1-14.6-3.5l-3.4,3.2h-1.9l-1.2-20.9,2.4-.2c5.6,13.1,13.2,17.9,19.4,17.9s9.8-4.3,9.8-9.2-2-7.9-10.6-11.5c-2.9-1.2-6.5-2.4-9.4-3.8-6.5-3.2-10.4-8.9-10.4-15.7C236.5,8,245.9,0,256,0a22.7,22.7,0,0,1,11.8,3.1L271.4,0h1.8l1.6,18.7-2.3.3C267.6,9.1,261.9,3.5,256,3.5s-8.5,3.4-8.5,8.1,1.7,7.5,8.3,10.5c3.2,1.5,7.1,2.7,10.5,4.4,7.6,3.6,11.3,8.8,11.3,15.7C277.6,53.8,268,62,256.4,62Z"
    fill="#1d1d1b"/>
  <path
    d="M324.8,30.9c0,18.5-6.8,25.4-17.8,26l-6.8.4V4.6l4.7.3C316.7,5.6,324.8,12.4,324.8,30.9ZM286.3,5.2V56.8L278.2,59v1.6h28c21.1,0,33.9-12.8,33.9-29.7S328.7,1.4,306.9,1.4H278.2V2.9Z"
    fill="#1d1d1b"/>
  <path
    d="M366.7,37.3H352.4l7-20.3h.2Zm21.3,19L367.2.9h-5.8L339.4,56l-6.3,3v1.6h19V59l-6.3-2.8,5.4-15.6h16.6l5.6,16.2L366,59v1.6h29.4V59Z"
    fill="#1d1d1b"/>
  <path
    d="M443.8,60.6h-49V59l8.1-2.2V5.2L394.8,3V1.4H425V3l-8.1,2.2V57.3l8.2-.3c5.3-.3,8.4-2.5,11.4-6.4l7.9-10.5,1.6.3Z"
    fill="#1d1d1b"/>
  <path
    d="M468.7,62a31.9,31.9,0,0,1-14.5-3.5l-3.5,3.2h-1.8l-1.3-20.9,2.5-.2c5.5,13.1,13.2,17.9,19.3,17.9s9.8-4.3,9.8-9.2-2-7.9-10.6-11.5c-2.9-1.2-6.4-2.4-9.3-3.8-6.5-3.2-10.4-8.9-10.4-15.7C448.9,8,458.2,0,468.3,0a23.1,23.1,0,0,1,11.9,3.1L483.7,0h1.9l1.6,18.7-2.4.3c-4.9-9.9-10.6-15.5-16.4-15.5s-8.6,3.4-8.6,8.1,1.7,7.5,8.3,10.5c3.2,1.5,7.1,2.7,10.6,4.4,7.5,3.6,11.3,8.8,11.3,15.7C490,53.8,480.3,62,468.7,62Z"
    fill="#1d1d1b"/>
  <path
    d="M22.1,102.9v-24H27c6.4.1,11.1,3.9,11.1,11.5S33.6,102.3,27,102.6Zm32.2,15.7c0-6.8-5.9-13.7-19.1-14.7v-.5c11.5-2,16.7-7.2,16.7-14.5s-6.2-13-22-13H0v1.5l8.1,2.3v51.6L0,133.5v1.6H32.3C48.1,135.1,54.3,127.3,54.3,118.6Zm-15.2.3c0,8.5-3.7,13.2-10.6,13.2a28.4,28.4,0,0,1-6.4-.6V105.9h4.1C34.2,105.9,39.1,111,39.1,118.9Z"
    fill="#1d1d1b"/>
  <path
    d="M90.8,106.9v23.8l8.3,2.8v1.6H68.5v-1.6l8.3-2.8V109.9L59.9,80.7l-7-3.2V75.9H82.3v1.6l-6.9,2.7,13,23.2L99.6,80.8,94,77.5V75.9h19.7v1.6l-6.3,3Z"
    fill="#1d1d1b"/>
  <path
    d="M159.7,96.9C154.4,86.1,148,78,139.8,78s-15.7,7.2-15.7,26.5,9.8,26.8,20.7,26.8a27,27,0,0,0,4.8-.5v-19l-7.5-2.3V108h26.5v1.5l-5.6,2.3v23.8l-1.5.3-8-4.5a26.7,26.7,0,0,1-15.7,5.1c-16.2,0-29.1-12.5-29.1-30.4s13.6-31.6,32.8-31.6c4.7,0,11,1,14.5,2.9l3.2-3.2h1.9l.9,22.5Z"
    fill="#1d1d1b"/>
  <path
    d="M214.9,105.4c0,18.5-6.8,25.4-17.7,26l-6.8.4V79.1l4.7.3C206.8,80.1,214.9,86.9,214.9,105.4ZM176.4,79.7v51.6l-8.1,2.2v1.6h28.1c21,0,33.9-12.8,33.9-29.7S218.8,75.9,197,75.9H168.3v1.5Z"
    fill="#1d1d1b"/>
  <path
    d="M282.7,95.8l-1.8.5-7.3-10.2c-3.3-4.7-5.6-6.4-12.1-6.7l-8.5-.3v24.5h3.2c5.3,0,7.4-1.8,9.5-7.6l1.2-3h1.9v25h-1.9l-1.2-2.9c-2.2-5.7-4.2-7.6-9.5-7.6H253v24.4l11.4-.6c5.2-.2,8.3-2.2,11.4-6.1l7.5-9.7,1.8.4-1.8,19.2H230.9v-1.5l8.1-2.3V79.7l-8.1-2.2V75.9h50.5Z"
    fill="#1d1d1b"/>
  <path
    d="M295.4,80.6l-7.3-3.1V75.9h19.2l7.5,9.5,23.8,29.2h.7V80.8l-7.9-3.3V75.9h19.8v1.6l-7.9,3.3v54.8h-5.2l-7.7-9.4L300.1,89.6h-.7v40.6l7.9,3.3v1.6H287.5v-1.6l7.9-3.3Z"
    fill="#1d1d1b"/>
</svg>
