<svg xmlns="http://www.w3.org/2000/svg" viewBox="0 0 153.7 127.9"><title>sla-logo-white</title><polyline points="87.3 106.7 124.1 106.7 124.1 127.9 65.8 127.9 65.8 0 87.3 0 87.3 106.7" fill="#fff"/><path d="M138.4,0H94.6V99.4h21.3V73.7h16.2v54.2h21.4V15.7A15.4,15.4,0,0,0,138.4,0ZM116,52.6v-32h9.8c3.9,0,6,2.9,6,6.7V52.6Z" transform="translate(0.1)" fill="#fff"/><path d="M58.2,0V44.3H36.8V18.8H29.7c-3.8,0-6,2.9-6,6.7V51.8H58.1v60.6c-.1,7.4-7.4,15.5-15.9,15.5H0V81.3H21.8v24.8h8.9c3.9,0,6-3,6-6.8V74.1H-.1V15.8C-.1,7.5,6.6,0,15.2,0h43" transform="translate(0.1)" fill="#fff"/></svg>