<svg xmlns="http://www.w3.org/2000/svg" viewBox="0 0 700.1 109.8">
  <title>mt-logo</title>
  <path
    d="M429.9,0c-.5,8-4.4,15.5-10.1,19.4s-12.8-3.6-15.3,5.1c-2.8,13.5,10.9,20.4,7.6,34.1a61.5,61.5,0,0,1-12.2,19.9c4.2,3.3,9.5.5,13.5-1.6l5.5-6.3a20.6,20.6,0,0,1-7.6,18.3c-6,5.9-15.2,2.5-21.2-1-3.6-1-6,1.6-8.9,2.6,2.9-4.5,6.5-11.4,11.5-12l5.9.5c.9-6,6-11.7,3.8-19.4s-11.3-15-8-26.1c1.7-5.2,5.5-9.8,9.3-13.6-7.7-3.6-19.9-5-26.3,3.2-2.3,2.5-1.6,6.4-3,9.4h-.8C371.8,22,377.1,13,384.2,7.4c8.9-7.9,22.8-6,31.8.5,3.3.9,7.5,1,10.1-2.1C428,4.2,427.4,0,429.9,0Z"
    transform="translate(0)" fill="#0075bf"/>
  <path
    d="M32.2,11,44.5,2.1c3,1.4,4.7,5.4,6.4,8.4C57.8,8.2,65.2-3.2,71.6,8.4L76.7,10c-3,4-7.9,8.1-7.2,14.5V74.8C73,81,85.1,62.1,77.6,76.9,72.8,80.3,70.2,94.8,64,87.4c-3.4-3.3-7.1-7.4-6.8-13.1.3-19,1.2-38.4.9-57-1.3-2.7-4.3-1.4-5.9-.5l-1.7,2.1L49.2,73.2c4.1,6.1-3.7,11.2-5.5,16.8l-.4.5L36.5,75.3l2.9-4.7,1.3-50.7c-.5-1.7-1.1-4.1-2.9-4.2s-4-.2-5.1,2.1L30.6,78.5C26.8,82,22.4,92,17.4,86.8A9.5,9.5,0,0,0,6,83.2L.1,90C-.2,85.7.1,79.6,3,75.8s8.1-5.4,12.7-4c1.5.2,2.6,1.6,3.8,2.5,1.2-18.9,1.2-38.4,1.7-57.5C20,13.7,16.6,13,14,14.2c-5.9,3.3,0,16.3-8,16.6.9-2.7,2.5-5.6,1.3-8.8s-1.9-6.3-.9-9.4c1.8-6.2,7.1-10.7,12.3-11A19.2,19.2,0,0,1,32.2,11Z"
    transform="translate(0)" fill="#0075bf"/>
  <path d="M165.2,6.3c0,5.6-4,9.2-6.7,13.6-2.9-4.4-7.5-8.7-6-14.6,3.7-2.8,9.9-4.1,12.7,1Z" transform="translate(0)"
        fill="#0075bf"/>
  <path d="M443.5,7.4c-.9,5.2-3.6,9.5-6.8,13.6-3.3-3.6-6.3-8.2-6.8-13.6a8.2,8.2,0,0,1,13.6,0Z" transform="translate(0)"
        fill="#0075bf"/>
  <path d="M546,7.4c-.1,5.7-4.1,9.3-6.8,13.6-2.3-4.1-6.9-7.7-6.4-13.6,2.5-4.1,7.1-3.3,10.6-2.7,1.3.7,1.5,1.5,2.6,2.7Z"
        transform="translate(0)" fill="#0075bf"/>
  <path
    d="M249.5,30.8l7.6,1.2v6.8l-8,.9V73.2c1,1.3,1.2,3.8,3,3.7s3.2-1.5,4.2-2.6l.8,2.1c-3.2,4.6-7.5,8.2-11,13.1-3.8-2.8-6.8-8.4-11-10l3.4-4.2.8-35a6.7,6.7,0,0,0-5.5-1.5c-.7-1.3-.3-3.3-.4-4.7,8.7-6.1,10.9-18.2,13.1-28.8h3V30.8Z"
    transform="translate(0)" fill="#0075bf"/>
  <path
    d="M149.6,36.2,158,24.5c3.2,3.3,5.5,8.7,9.3,11L164,39.7l-.9,33.5c.2,1.5,1.3,2.6,2.1,3.7s2.3-2.1,3.4-3.2.5.8.9.6v1.5c-3.7,4.4-5.6,9.5-9.8,13.7-2-2.7-5.5-4.1-5.9-7.9L153,39.7c-.8-.8-1.4-1.9-2.6-1.5a6.1,6.1,0,0,1-2.5,2.1l-.9-1.1-4.6,5.9-5.5-8.4c-4.1,9.6-1.1,22.9-2.6,33.9a9.9,9.9,0,0,0,4.7,5.8c2.1-1.6,4.6-3.4,5.9-6.3v4.2L133.5,88.9c-4.2-3.9-8.2-8.3-12.7-11,4.4-3.3,3.8-10.1,3.8-16.2-1-8.5,2.4-19.7-3-25.5-1,.6-2.2.6-3,2,.5-5.9,5.4-9.5,8.1-14.1,3.7,1.9,7.1,6.7,8,11.4,2.6-3.6,3.8-10.3,8.5-11.9l6.4,12.6Z"
    transform="translate(0)" fill="#0075bf"/>
  <path
    d="M228.8,30.4c.5-.8,1.2-.8,1.7-1.7.8,2.8-1.3,5.3-2.6,7.5s-5.4,5-8.5,4.1a15.7,15.7,0,0,1-6.7-6.8c-2.7,3.3-.3,8.7-.5,13.1a12,12,0,0,0,5.1,6.3c3.8,1,6.7-1.7,8.5-5.3,3.9.7,6.1,8.1,7.2,13.1,1.5,13.2-8.2,20.7-14.8,28.2-3.5-3.5-7.3-7.7-12.3-5.2l-2.6,2.1c1-4.8,3.7-10.9,8.1-13.6s5.8.5,8,2.6l3.4,5.2c3.2-4.3,1.2-11.8-.4-16.6s-4.9-5.4-8-3.8l-4.7,5.9a23.1,23.1,0,0,1-5.9-21.6c1.2-8.6,9.3-13.2,13.5-19.4,3.5,3.2,6.9,7.7,11.5,5.9Z"
    transform="translate(0)" fill="#0075bf"/>
  <path
    d="M363,30.4l1.3-1.1c0,4.2-3,8.9-6.4,11-5.3,3.1-8.5-3.3-12.3-6.2-.4,5-1.3,12.9,2.6,17.1,2.1,2,5.6,3.1,8,1.1s2.4-6.3,5.1-4.2c5.2,6.4,6,15,4.3,23S356.7,83.6,352,88.9c-3.7-3.1-7.7-7.1-12.7-4.7l-2.1,1.6a20.6,20.6,0,0,1,7.2-13.1c3.9-1.8,7.5.5,10.1,4.2.9,1,.9,3.5,2.6,3.1,1.5-5.2,1-12.1-1.3-16.6s-5.1-4.4-8-3.3l-4.3,5.8a25.3,25.3,0,0,1-5.9-22.5c1.9-8.4,9.2-12.7,14-18.9,2.9,4.6,6.7,8.1,11.4,5.9Z"
    transform="translate(0)" fill="#0075bf"/>
  <path
    d="M528.2,37.1c-1.6.9-3.5,2-4.3,4.2,0,11.4-1.9,23,0,34,1.8,7.2,5.3-4.9,6,1.1L520.1,90c-2.5-1.4-5.1-4.8-6.3-7.9l-.4-41.2c-.4-1.5-1.7-2.5-2.6-3.8-2.5.7-4.2,3.5-6.3,5.3-.9,16.2-.1,28.3-.9,43.9h-9.7v-45c-1.4-5.1-5-2.9-7.2-.4l-.9-1.2,10.6-13.5c2.6.1,5.4,3.8,7.2,6.7s-.2,6.7,2.6,4.7l11-12.4,11,11.9Z"
    transform="translate(0)" fill="#0075bf"/>
  <path
    d="M442.6,34.1c1.1.3,1.8,1.8,3,2.1a12.7,12.7,0,0,0-4.2,10.4V74.8a7.3,7.3,0,0,0,1.7,2.6c2.5.9,2.7-4.9,5-1.6L438,90c-2.7-.8-5.2-4.4-6.4-7.4l-.4-40.8a9.6,9.6,0,0,0-1.7-2.6c-1.8-1-2.4,3.3-3.8,1.7,2-5.9,7.7-9.7,10.2-15.2,2.6,1.6,4,5.8,6.7,8.4Z"
    transform="translate(0)" fill="#0075bf"/>
  <path
    d="M543,31.4l5.1,5.3c-2.7,1.5-4.2,5.5-4.2,9.3V74.3c.7,1.1.9,2.6,2.1,3.6s2.9-5.1,4.6-2.1L540.9,90c-3-1-4.4-4.1-6.4-6.8l-.8-42.3c-.9-3.1-3.1-.9-4.2,0l-.5.4c-1.6-2.1,1.6-2.9,1.7-4.6,4.5-1.7,8.7-20.6,12.3-5.3Z"
    transform="translate(0)" fill="#0075bf"/>
  <path
    d="M590.9,36.7l-4.3,5.1-.4,33a7.3,7.3,0,0,0,1.7,2.6c2.7,1.7,2.3-4.3,4.7-2.1-2.4,5.3-6.5,9.8-9.8,14.7-3.1-.7-4.7-5-6.3-7.9V41.3c-.4-1.4-1.7-2.4-2.6-3.7-2.8.2-4.5,3.6-6.8,5.4l-.8,43.8H557v-45c-.9-1.2-1.1-3.2-2.6-3.6s-3.2,1.5-4.6,3.1c-.7-.2-1.5-2.5,0-3.1,4.6-3.5,9-17,14.4-8.9a15.5,15.5,0,0,1,3.4,9.5l12.2-13.1c3.7,3.6,7,8.4,11.1,11Z"
    transform="translate(0)" fill="#0075bf"/>
  <path
    d="M698,36.7c-1.9.9-4.4,3.4-4.6,6.3l.4,32.8c.8,1.2,2.2,2.4,3.4,1.1s1.3-1.2,1.2-2.1,1.2.5,1.7,1l-9.7,13.7c-2.9.1-4.7-4.1-6.4-6.3l-.8-5.8.4-36.1c-.1-1.8-1.8-3.3-3-4.2-2.6,1.1-4.7,3.6-6.7,6.3V85.8c-3.6,2.3-6.6-.4-10.2.5-.8-15.8,1.6-31.3-.4-46.6-2.4-4.4-4.7.4-7.2,1.2V39.2l10.6-13c2.8.4,5.1,3.4,6.7,6.3l1.3,6.3a123.3,123.3,0,0,0,11.9-13.1c4,3,7.2,8.4,11.4,11Z"
    transform="translate(0)" fill="#0075bf"/>
  <path
    d="M194.5,75.3c-3.4,1.4-7,.2-9.4-3.1s-2.8-5.9-2.1-8.8l18.2-15.3-10.1-24-9.8,6.7c-11.2,7.7-9.4,24.4-8.9,38.2,1.1,8.6,6.9,18.2,14,20.5l14.8-17.3V70.6C198.8,70.1,196.9,74.3,194.5,75.3ZM183.4,32.9c1.4,7,6.3,12.2,6.8,19.4L183,58C182.5,49.9,182,41.3,183.4,32.9Z"
    transform="translate(0)" fill="#0075bf"/>
  <path
    d="M657.8,71.1c-3.9,2-6.8,8.5-11.9,5.3-3.5-2.7-6-7.5-5.5-12.1l17.8-15.2c-2.6-8.2-6.5-16.4-9.7-23.9-4.2,3.4-8.8,5.6-12.7,9.8-8.3,10.2-7.7,29.6-3.9,42.4,2,6.2,7.7,11.6,12.3,12.6l14.4-17.8Zm-17-37c1.2,7.7,14.9,21.3,0,25.1H640C640.3,50.8,639.3,41.7,640.8,34.1Z"
    transform="translate(0)" fill="#0075bf"/>
  <path
    d="M114.4,78.5a7.7,7.7,0,0,1-1.7-2.7l.4-34.5c.2-2.4,3-3.4,3.4-5.1-5.7-2.4-10.4-7.7-15.6-11.7-6.4,9.7-19.7,12.9-18.3,27.8.7,12.6-2.7,29.5,8.1,36.6l8-9.4c7.1-9,3.3,6.8,8.5,8.4a1.3,1.3,0,0,0,2.6,0c2.3-3.8,6.9-6.4,7.2-10.5Zm-12.3-4.8c-1.9,2.5-4.5,4.2-7.2,2.7l-1.7-5.3c.5-11.9-1-24.9,1.3-36.1C110.4,39.6,99.6,60.2,102.1,73.7Z"
    transform="translate(0)" fill="#0075bf"/>
  <path
    d="M291.9,79a7.3,7.3,0,0,1-1.7-2.6l.4-34.6c.4-2.4,2.5-3.2,3.8-4.7a63.8,63.8,0,0,1-16.1-11.9c-5.7,8-16.2,10.9-17.8,22.4-.6,14.3-3.8,33.4,7.6,41.9,3.7-4.7,7.3-9.1,11.5-12.1l.8,1.1a15.3,15.3,0,0,0,5.5,11l8.9-10V77.9Zm-12.3-4.7c-1.9,2.1-4.4,4.2-6.8,3.1-3.4-5.6-2.3-13.6-2.5-20.9a120.4,120.4,0,0,1,1.2-21C286.9,39.2,277.5,62.3,279.6,74.3Z"
    transform="translate(0)" fill="#0075bf"/>
  <path
    d="M331.7,43.4c-.1-15.4-13.2-24.9-22.9-30.3-2.2-2.6-7.3-4.1-5.9-9.4-2.1.6-3,2.6-4.3,4.7-3.5,13.1,9.5,18.2,15.3,24.1-4.2,2.9-8.8,4.8-13.1,7.2l-.5,33.5-3.4,4.2c6.4,1.9,11.2,8.5,17,12.1,5-5.3,11.2-7.2,15.7-14.2S332.2,53.5,331.7,43.4ZM320.2,79.5c-3.1-2.7-6.4-4.8-9.3-8.4l.4-31.9c2.5-1.2,6.6-7,7.7,0,2.7,7.8,1.7,18.1,2.5,26.3Z"
    transform="translate(0)" fill="#0075bf"/>
  <path
    d="M484.1,41.8c-.7-15.3-13.8-23.4-23.3-29.2-2.5-1.6-6-5.2-5-8.9-2.5,1.6-4.3,5.3-4.7,8.9.1,10.6,9.8,14.7,15.7,19.4-2.9,3.9-8,5.4-12.3,7.2l-.9,34.5-3.3,4.2c6.1,2.3,11,7.9,16.5,12.1l13.9-12.1C487.6,68.8,485.5,53.2,484.1,41.8Zm-11,37.7c-16.1-3.8-6.2-27.2-8.4-40.3,1.8-1,3.4-2.5,5.5-3l2.5,6.2C474.7,54.4,474.3,67.1,473.1,79.5Z"
    transform="translate(0)" fill="#0075bf"/>
  <path
    d="M628.1,37.6c-5.6-2.9-11.2-6-16.1-11.4-5.7,9.2-17.2,12.6-18.2,25s-1.7,29.7,8.9,37.2c3.5-4,6.7-9.1,10.6-12l.4.5c-.8,9.4,7.9,22-2.5,28.3a4.5,4.5,0,0,1-5.9-1.6c-1-2.5-.1-5.2.8-7.3-2.1-3.3-5.4-4.3-8.5-3.2a9.9,9.9,0,0,0-3.4,9.4,12,12,0,0,0,5.1,6.3c5.8,2.2,12.4.6,17.4-2.6,6.7-4.1,10.2-12.5,9.7-21.5-4.5-11.5-2-27.2-2.1-40.2C624.1,41,628.6,40.1,628.1,37.6ZM613.7,72.2c-2,1.4-4.5,6.5-6.7,2.6-3.5-11.6-2.5-25.4-.9-37.7C620.1,40.7,611.2,60.5,613.7,72.2Z"
    transform="translate(0)" fill="#0075bf"/>
  <path d="M382.1,59l-9.8,8.4c0-1.8-1.8-4.6,0-6.3l9.3-7.9c.2,1.9,1.6,3.8.5,5.8Z" transform="translate(0)"
        fill="#0075bf"/>
</svg>
