<svg xmlns="http://www.w3.org/2000/svg" viewBox="0 0 696 109.7">
  <title>an-logo</title>
  <path
    d="M17,84.1,30,16.2H55.7L70.4,84.4c1.6,6.5,2.7,7.4,7.8,7.4v13.7H42V91.8c3.5-.5,4.7-1.9,4.7-5.6a28.9,28.9,0,0,0-.2-3.9H34.4a10.5,10.5,0,0,0-.5,3.9c0,4.2.7,5.1,4.2,5.6v13.7H9.1V91.8C13.5,91.8,15.8,89.7,17,84.1ZM40.2,40.3,36,70.2h8.4Zm77.2,1.4c6.8,0,11.6,4.4,11.6,12.7s-3.9,13-10.2,13c-4.8,0-8.3-3.2-8.3-8.1,0-2.5-.2-4.6,1.8-6.5-3.9,1.4-6.5,5.6-6.5,12.3V86.7c0,3.9,2.1,5.3,6.3,5.3v13.5H82.4V92c3.3,0,4.9-1.4,4.9-5.3V58.8c0-3.7-.7-5.3-4.9-5.3V40.7h22.8v8.6C106.8,45.8,112.1,41.7,117.4,41.7Zm36.2-1V53.5c-1.6,0-2.3.7-2.3,2.1a12.3,12.3,0,0,0,.3,2.8L155,82l4-23.9a13.4,13.4,0,0,0,.2-2.5c0-1.4-.7-2.1-2.8-2.1V40.7h20.7V53.5c-2.4.2-4,1.2-4.9,6.7l-8.6,45.3H143.2l-10-47.8c-.7-4-1.8-4.7-3.9-4.7V40.7ZM208.9,92v13.5H180.3V92c3.5,0,5.1-1.4,5.1-5.3V58.8c0-3.7-1.6-5.3-5.1-5.3V40.7h23.4v46C203.7,90.4,205.4,92,208.9,92ZM192.4,35.9a9.7,9.7,0,0,1-10-9.8c0-5.8,4.4-9.9,10.2-9.9a9.7,9.7,0,0,1,10,9.9C202.6,31.7,198.2,35.9,192.4,35.9Zm50.3,22.2a3,3,0,0,0,.5-1.6c0-1.1-.2-3-4.4-3V40.7h28.1V53.5c-1.9.2-4.7.2-5.8,1.4l-6.8,9.5L262,87.8c.9,3.1,3,4.2,5.3,4.2v13.5H241.6V92a4.7,4.7,0,0,0,3.2-3.5,11.9,11.9,0,0,0-.2-2.5l-2.1-8.6-6.3,8.1a8.8,8.8,0,0,0,0,2.3c0,3.1.5,4,2.3,4.2v13.5H212.8V92c3.5,0,5.1-1.4,5.1-5.3V33.6c0-3.8-1.6-5.6-5.1-5.6V15.5H236V68.1Zm48.5,0c0,5.4-3.5,8.6-9.5,8.6s-9.3-3.7-9.3-10.2c0-10.7,8.1-17.6,20.7-17.6s19.9,6.5,19.9,19V89.5c0,2.5.9,3.7,2.1,3.4s1.6-.9,1.6-3.4V84.1h5.8V95c0,7.5-6.7,12.3-15.3,12.3-5.3,0-8.6-1.8-10.7-5.8-3.2,4-6.4,5.8-11.8,5.8-9.5,0-14.6-6.2-14.6-18.1,0-14.6,8.1-21.5,25.3-22.2V59.5c0-7.2-1.2-9.5-4.4-9.5a2.8,2.8,0,0,0-2.3,1.2C290.7,52.8,291.2,56.1,291.2,58.1Zm.5,35.1c1.8,0,3-1.4,3-3.7V77.2c-4.6.2-6.5,4.4-6.5,9.7S289.4,93.2,291.7,93.2Zm48.2-7V36.6c0-4.4-2.3-7-6.7-7V16.2h33.9l13,59.1V35.4c0-4.4-1.2-5.6-4.7-5.6h-.9a.2.2,0,0,1-.2-.2V16.2h28.3V29.6c-5.1,0-7,1.4-7,5.8v70.1H370.1l-13-56.9V86.2c0,4.2,1.2,5.8,4.4,5.8h1.4v13.5H333.2V92C337.6,92,339.9,90.6,339.9,86.2ZM406,61.9c-1.1-5.8-2.7-8.4-6-8.4V40.7h26.2V53.5c-1.8.2-2.5.7-2.5,2.1a18.3,18.3,0,0,0,.2,2.8l3.7,26.4,3.7-26.7c0-1.1.3-2,.3-2.5s-.7-2.1-2.8-2.1V40.7h20.4V53.5c-2.6,0-4.2,1.2-5.1,6.7L436,107.6c-1.4,8.8-7.2,17.6-19.5,17.6-6.3,0-12.8-2.8-12.8-9.8,0-5.1,2.6-8.1,6.3-8.1s5.3,3.3,5.3,5.6c5.1,2.8,6.1-10,.3-8.1Zm78.5-23c9.2,0,15.3,6,15.3,15.1V86.7c0,3.7.7,5.3,3.9,5.3v13.5h-25V92c1.8,0,2.7-1.4,2.7-5.3V64.2c0-6.1-1.3-8.8-3.9-8.8s-4.9,3.7-4.9,12.3v19c0,3.9.5,5.3,2.8,5.3v13.5H449.2V92c3.7,0,5.1-1.4,5.1-5.3V35.2c0-5.6-.7-8.1-5.1-8.1V15.5h23.7V44C476.1,40.3,479.8,38.9,484.5,38.9Zm45.4,68.2c-10.2,0-17.4-5.6-20.8-16.5-1.2-3.9-1.9-10.2-1.9-19.2,0-20.4,8.8-32.5,23.7-32.5s22.2,10.9,22.2,29.7v7.9h-25v4.1c0,8.2.2,12.3,4.4,12.3s4.4-3.7,4.4-8.1V79.7h16v3C552.9,98.5,544.8,107.1,529.9,107.1Zm5.8-49.2c0-3.5-1.4-5.3-4.1-5.3s-3.5,1.8-3.5,5.3v7.9h7.6Zm31.1-28.3V22.4h12.8V40.7h9.7V53h-9.7V88.5c0,2.4,1.4,3,3,3s2.3-.9,2.3-3.4V79.3h6V92.7c0,10-5.5,15.1-13.9,15.1s-15.5-6.5-15.5-16.7V53h-6V41C564,41,566.8,36.8,566.8,29.6Zm51.8,77.5c-10,0-17.7-5.6-20.9-16.5-1.4-3.9-1.9-10.2-1.9-19.2,0-20.4,8.8-32.5,23.7-32.5s22,10.9,22,29.7v7.9H616.7v4.1c0,8.2.2,12.3,4.2,12.3s4.4-3.7,4.4-8.1V79.7h16v3C641.3,98.5,633.2,107.1,618.6,107.1Zm5.5-49.2c0-3.5-1.4-5.3-3.7-5.3s-3.7,1.8-3.7,5.3v7.9h7.4Zm57.1-16.2c6.7,0,11.6,4.4,11.6,12.7s-4,13-10.2,13-8.6-3.2-8.6-8.1c0-2.5,0-4.6,2.1-6.5-4,1.4-6.5,5.6-6.5,12.3V87.4c0,3.7,2.1,5.1,6.3,5.1v13H646.2v-13c3.4,0,5.1-1.4,5.1-5.1V58.8c0-3.7-.7-5.3-5.1-5.3V40.7h22.5v8.6C670.5,45.8,675.9,41.7,681.2,41.7Zm23.9,54.5c0-5.8-4.4-10.7-9.8-10.7s-9.5,4.9-9.5,10.7,4.2,10.9,9.5,10.9S705.1,102.2,705.1,96.2Z"
    transform="translate(-9.1 -15.5)" fill="#005690"/>
</svg>
