<svg xmlns="http://www.w3.org/2000/svg" viewBox="0 0 223.1 128.8"><title>logo-small-hjo</title><path d="M252.1,30.7l-2.9,24.6c-1.1,2.3-4.6,4-6.8,1.7-3.5-6.9-5.2-14.3-12-17.7-1.7,0-5.2-2.3-6.3.6-9.7,28.5-16,57.1-26.3,85,0,6.3-6.3,13.2-2.3,20,2.3,1.7,6.3,1.7,6.3,5.7s-3.3,4.5-6.2,5.1c-15.6.1-26.6,1.1-39.5-3.4-3.4-9.7,9.7-6.8,9.7-14.2C176.1,104.4,185.3,73,195,40.4c-2.3-3.4-6.3,0-9.7.6-7.5,3.4-12,11.4-18.9,16.6-2.3.5-6.8,1.1-7.4-1.8-1.7-9.7,6.3-17.7,9.7-25.7l3.4-1.1,78.3-.2Z" transform="translate(-28.9 -28.8)" fill="#1e1e1e"/><path d="M103.6,29.8a4.3,4.3,0,0,1,1.1,5.7c-8,1.1-10.8,9.1-12.5,16L85.9,74.3l23.4-.5,8.6-33.2c-1.2-4-9.2-5.4-5.7-10.5,13.9.1,28.5-1.1,42.8-.6,2.3.6,2.3,4.8,1.1,6.5-3.4,4-10.3,2.9-11.4,8.6-8.6,33.1-18.3,65.7-26.8,97.7,0,6.2,10.8,6.2,6.2,13.1a206,206,0,0,1-41.6.6c-2.3-1.2-4.6-4.6-2.3-6.9C91,148,91.6,137.1,95,129.7c2.9-13.7,6.2-23.7,10.3-39.4-4.9-.7-4.2.6-5.9,0H81.9c-6.3,17.1-10.3,33.7-14.9,52-.5,5.7,13.7,11.4,1.9,15.3H31.2c-2.4-2.2-3-5.1-1.3-7.4,5.2-2.2,7.7-3.2,11.4-14.8,9.8-30.3,16.6-61.1,26.3-92.5,0-5.7-9.1-5.7-5.1-12l2.8-1.1Z" transform="translate(-28.9 -28.8)" fill="#1e1e1e"/></svg>