<?xml version="1.0" encoding="UTF-8"?>
<svg viewBox="0 0 318 40" version="1.1" xmlns="http://www.w3.org/2000/svg">
    <title>Värmlands Folkblad Logo</title>
    <text font-family="OpenSans-Bold, Open Sans" font-size="21" font-weight="bold" line-spacing="27"><tspan x="111" y="27.5541992">Värmlands Folkblad</tspan></text>
    <path fill="#DC2327" d="M4.27115653,0 L85.4250467,0 C87.7842427,0 89.6969697,1.91959992 89.6969697,4.28774764 L89.6969697,35.7118677 C89.6969697,38.0800154 87.7842427,40 85.4250467,40 L4.27115653,40 C1.91234375,40 0,38.0800154 0,35.7118677 L0,4.28774764 C0,1.91959992 1.91234375,0 4.27115653,0"/>
    <polyline fill="#FFFFFF" points="8.48484848 4.84848485 20.3509764 4.84848485 28.2616027 24.6407137 36.6665724 4.84848485 46.0606061 4.84848485 32.7114478 36.3129347 20.8453199 36.3636364 8.48484848 4.84848485"/>
    <path fill="#FFFFFF" d="M48.4848485,4.84848485 L81.2121212,4.84848485 C79.613178,11.2219358 79.6634784,10.5693967 79.1136035,12.8278326 L58.9278985,12.8278326 L58.9278985,18.8495631 L77.6647995,18.7998094 C76.6648884,22.7138959 76.4655921,22.7138959 75.2663847,27.8821588 L58.9278985,27.8821588 C58.9278985,31.0441987 58.9278985,32.8005049 58.9278985,36.3134999 C55.1801373,36.3134999 53.9310105,36.3636364 48.4848485,36.3636364 L48.4848485,4.84848485"/>
</svg>
