<svg xmlns="http://www.w3.org/2000/svg" viewBox="0 0 326 149">
  <g fill="#7ed68f">
    <polygon points="308.457275390625,149.21946716308594 274.1413879394531,149.21946716308594 274.1413879394531,137.7410430908203 296.9788513183594,137.7410430908203 296.9788513183594,114.903564453125 308.457275390625,114.903564453125 "/>
    <polygon points="11.478408813476562,34.31587219238281 0,34.31587219238281 0,0 34.31587219238281,0 34.31587219238281,11.478424072265625 11.478408813476562,11.478424072265625 "/>
  </g>
  <g fill="#18252a">
    <path d="m60.064273,70.312202l0,-24.040404l-7.649219,16.905417l-6.685032,0l-7.649219,-16.905417l0,24.040404l-12.534435,0l0,-45.638199l13.69146,0l9.834711,21.469237l9.89899,-21.469237l13.627181,0l0,45.638199l-12.534435,0z"/>
    <path d="m87.768588,70.964177c-1.671258,0 -3.241506,-0.275482 -4.692378,-0.844812c-1.460055,-0.560147 -2.708907,-1.313131 -3.764922,-2.277319c-1.046832,-0.955005 -1.873278,-2.102847 -2.479339,-3.434343c-0.596878,-1.340679 -0.899908,-2.773186 -0.899908,-4.315886c0,-1.717172 0.367309,-3.269054 1.092746,-4.692378c0.725436,-1.414141 1.735537,-2.635445 3.02112,-3.663912c1.285583,-1.019284 2.8191,-1.818182 4.591368,-2.378329c1.772268,-0.560147 3.737374,-0.835629 5.886134,-0.835629c2.736455,0 5.013774,0.431589 6.81359,1.285583l0,-1.019284c0,-1.588613 -0.459137,-2.773186 -1.37741,-3.544536c-0.927456,-0.77135 -2.41506,-1.157025 -4.46281,-1.157025c-1.928375,0 -3.709825,0.312213 -5.33517,0.936639c-1.634527,0.624426 -3.342516,1.533517 -5.142332,2.736455l-3.535353,-7.58494c4.453627,-2.865014 9.540863,-4.306703 15.234159,-4.306703c5.399449,0 9.559228,1.202938 12.470156,3.599633c2.910927,2.405877 4.370982,5.996327 4.370982,10.808081l0,6.556474c0,1.157025 0.174472,1.955923 0.514233,2.41506c0.339761,0.449954 0.945822,0.716253 1.799816,0.798898l0,10.284665c-0.982553,0.211203 -1.919192,0.376492 -2.791552,0.486685c-0.881543,0.110193 -1.662075,0.165289 -2.35078,0.165289c-2.185491,0 -3.847567,-0.40404 -4.977043,-1.193756s-1.873278,-1.965106 -2.213039,-3.507805l-0.257117,-1.221304c-1.496786,1.928375 -3.232323,3.397612 -5.206611,4.398531s-4.077135,1.505969 -6.30854,1.505969zm3.663912,-8.751148c0.734619,0 1.478421,-0.119376 2.24977,-0.358127c0.77135,-0.229568 1.460055,-0.550964 2.056933,-0.936639c0.46832,-0.339761 0.853994,-0.707071 1.157025,-1.120294c0.30303,-0.40404 0.449954,-0.826446 0.449954,-1.258035l0,-2.497704c-0.725436,-0.257117 -1.524334,-0.477502 -2.378329,-0.642792s-1.625344,-0.257117 -2.31405,-0.257117c-1.505969,0 -2.745638,0.367309 -3.728191,1.092746c-0.982553,0.734619 -1.478421,1.652893 -1.478421,2.764004c0,0.955005 0.376492,1.726354 1.120294,2.31405c0.752984,0.596878 1.707989,0.899908 2.865014,0.899908z"/>
    <path d="m138.934795,46.91459c-2.359963,0 -4.499541,0.257117 -6.427915,0.77135c-1.928375,0.514233 -3.360881,1.368228 -4.306703,2.571166l0,20.055096l-12.213039,0l0,-33.810835l11.184573,0l0,6.418733c1.193756,-2.268136 2.681359,-4.022038 4.46281,-5.23416c1.772268,-1.221304 3.69146,-1.827365 5.748393,-1.827365c0.808081,0 1.331497,0.018365 1.5427,0.064279l0,10.991735l0.009183,0z"/>
    <path d="m164.38934,70.312202l-7.649219,-12.341598l-2.442608,2.699724l0,9.641873l-12.213039,0l0,-46.923782l12.213039,0l0,25.647382l8.999082,-12.525252l12.855831,0l-11.634527,14.775023l12.791552,19.02663l-12.92011,0z"/>
    <path d="m213.820009,70.312202l-12.213039,0l0,-19.02663c0,-1.671258 -0.376492,-2.874196 -1.129477,-3.636364c-0.743802,-0.743802 -1.616162,-1.120294 -2.598714,-1.120294c-1.028466,0 -2.121212,0.449954 -3.278237,1.340679c-1.157025,0.909091 -2.011019,2.066116 -2.561983,3.471074l0,18.96235l-12.213039,0l0,-33.810835l10.991735,0l0,5.013774c1.193756,-1.84573 2.874196,-3.250689 5.041322,-4.214876c2.157943,-0.955005 4.729109,-1.44169 7.68595,-1.44169c2.31405,0 4.141414,0.422406 5.500459,1.258035c1.340679,0.835629 2.378329,1.873278 3.085399,3.112948c0.707071,1.248852 1.166208,2.571166 1.37741,3.99449c0.211203,1.404959 0.321396,2.699724 0.321396,3.856749l0,22.240587l-0.009183,0z"/>
    <path d="m228.411377,70.964177c-1.680441,0 -3.241506,-0.275482 -4.692378,-0.844812c-1.460055,-0.560147 -2.71809,-1.313131 -3.764922,-2.277319c-1.046832,-0.955005 -1.873278,-2.102847 -2.479339,-3.434343c-0.596878,-1.340679 -0.899908,-2.773186 -0.899908,-4.315886c0,-1.717172 0.358127,-3.269054 1.092746,-4.692378c0.725436,-1.414141 1.726354,-2.635445 3.02112,-3.663912c1.285583,-1.019284 2.8191,-1.818182 4.591368,-2.378329s3.737374,-0.835629 5.886134,-0.835629c2.745638,0 5.013774,0.431589 6.81359,1.285583l0,-1.019284c0,-1.588613 -0.46832,-2.773186 -1.37741,-3.544536c-0.927456,-0.77135 -2.41506,-1.157025 -4.46281,-1.157025c-1.928375,0 -3.709825,0.312213 -5.33517,0.936639c-1.634527,0.624426 -3.342516,1.533517 -5.151515,2.736455l-3.535353,-7.58494c4.453627,-2.865014 9.53168,-4.306703 15.234159,-4.306703c5.399449,0 9.550046,1.202938 12.460973,3.599633c2.910927,2.405877 4.380165,5.996327 4.380165,10.808081l0,6.556474c0,1.157025 0.174472,1.955923 0.514233,2.41506c0.339761,0.449954 0.945822,0.716253 1.799816,0.798898l0,10.284665c-0.982553,0.211203 -1.919192,0.376492 -2.800735,0.486685s-1.662075,0.165289 -2.35078,0.165289c-2.176308,0 -3.847567,-0.40404 -4.977043,-1.193756c-1.138659,-0.789715 -1.873278,-1.965106 -2.213039,-3.507805l-0.257117,-1.221304c-1.496786,1.928375 -3.241506,3.397612 -5.206611,4.398531s-4.067952,1.505969 -6.290174,1.505969zm3.663912,-8.751148c0.734619,0 1.478421,-0.119376 2.24977,-0.358127c0.77135,-0.229568 1.460055,-0.550964 2.066116,-0.936639c0.46832,-0.339761 0.853994,-0.707071 1.157025,-1.120294c0.293848,-0.40404 0.449954,-0.826446 0.449954,-1.258035l0,-2.497704c-0.725436,-0.257117 -1.524334,-0.477502 -2.378329,-0.642792c-0.863177,-0.174472 -1.634527,-0.257117 -2.31405,-0.257117c-1.505969,0 -2.745638,0.367309 -3.728191,1.092746c-0.982553,0.734619 -1.478421,1.652893 -1.478421,2.764004c0,0.955005 0.376492,1.726354 1.120294,2.31405c0.743802,0.596878 1.698806,0.899908 2.855831,0.899908z"/>
    <path d="m270.449944,70.964177c-2.31405,0 -4.444444,-0.431589 -6.391184,-1.294766c-1.955923,-0.853994 -3.636364,-2.066116 -5.050505,-3.636364c-1.414141,-1.561065 -2.51607,-3.425161 -3.305785,-5.583104c-0.798898,-2.167126 -1.193756,-4.536272 -1.193756,-7.098255c0,-2.488522 0.367309,-4.793388 1.092746,-6.942149s1.74472,-4.003673 3.048668,-5.564738c1.313131,-1.561065 2.865014,-2.782369 4.66483,-3.654729s3.79247,-1.322314 5.977961,-1.322314c2.176308,0 4.187328,0.495868 6.00551,1.478421s3.22314,2.378329 4.205693,4.178145l0,-18.135904l12.213039,0l0,33.434343c0,1.157025 0.174472,1.955923 0.523416,2.41506c0.339761,0.449954 0.945822,0.716253 1.790634,0.798898l0,10.284665c-2.102847,0.431589 -3.810836,0.642792 -5.142332,0.642792c-4.15978,0 -6.556474,-1.570248 -7.199265,-4.701561l-0.247934,-1.221304c-1.166208,2.066116 -2.727273,3.562902 -4.701561,4.499541s-4.058769,1.423324 -6.290174,1.423324zm3.351699,-10.293847c2.222222,0 4.150597,-1.157025 5.785124,-3.471074l0,-6.04224c-0.596878,-1.496786 -1.478421,-2.708907 -2.635445,-3.636364s-2.378329,-1.37741 -3.663912,-1.37741c-0.899908,0 -1.726354,0.192837 -2.479339,0.56933c-0.743802,0.385675 -1.386593,0.927456 -1.928375,1.616162c-0.541781,0.679522 -0.955005,1.469238 -1.285583,2.378329c-0.321396,0.899908 -0.486685,1.864095 -0.486685,2.883379c0,2.139578 0.606061,3.856749 1.827365,5.151515c1.230487,1.285583 2.846648,1.928375 4.86685,1.928375z"/>
    <path d="m312.038556,70.964177c-2.947658,0 -5.849403,-0.486685 -8.668503,-1.450872c-2.837466,-0.955005 -5.224977,-2.369146 -7.199265,-4.205693l4.178145,-7.327824c2.102847,1.404959 4.123049,2.497704 6.069789,3.269054s3.737374,1.157025 5.371901,1.157025c1.717172,0 2.561983,-0.532599 2.561983,-1.606979c0,-0.596878 -0.330579,-1.111111 -0.991736,-1.5427s-1.955923,-0.927456 -3.884297,-1.478421c-2.405877,-0.679522 -4.398531,-1.349862 -6.014692,-2.029385c-1.606979,-0.661157 -2.910927,-1.37741 -3.921028,-2.14876s-1.726354,-1.625344 -2.14876,-2.561983s-0.642792,-2.066116 -0.642792,-3.342516c0,-1.717172 0.339761,-3.296602 1.028466,-4.76584c0.679522,-1.450872 1.64371,-2.71809 2.865014,-3.783287c1.221304,-1.07438 2.681359,-1.900826 4.370982,-2.479339c1.698806,-0.578512 3.553719,-0.87236 5.555555,-0.87236c2.488522,0 4.857667,0.321396 7.098255,0.955005c2.24977,0.642792 4.508724,1.955923 6.786042,3.930211l-4.628099,7.327824c-2.102847,-1.368228 -3.856749,-2.35078 -5.270891,-2.92011c-1.414141,-0.578512 -2.745638,-0.87236 -3.99449,-0.87236c-0.725436,0 -1.331497,0.137741 -1.790634,0.413223c-0.477502,0.284665 -0.707071,0.716253 -0.707071,1.322314c0,0.642792 0.339761,1.17539 1.028466,1.579431c0.679522,0.40404 2.029385,0.87236 4.040404,1.37741c2.451791,0.642792 4.499541,1.322314 6.170799,2.029385c1.680441,0.707071 3.011937,1.478421 4.022038,2.31405s1.726354,1.772268 2.14876,2.828283c0.431589,1.046832 0.642792,2.258953 0.642792,3.636364c0,1.753903 -0.321396,3.324151 -0.955005,4.701561c-0.642792,1.368228 -1.579431,2.543618 -2.800735,3.535353s-2.699724,1.726354 -4.435262,2.24977c-1.735537,0.495868 -3.700643,0.762167 -5.886134,0.762167z"/>
    <path d="m97.695126,121.61615c-3.250689,2.745638 -7.006428,4.113866 -11.248852,4.113866c-2.956841,0 -5.785124,-0.532599 -8.484848,-1.579431s-5.059688,-2.580349 -7.070707,-4.591368c-2.011019,-2.020202 -3.617998,-4.481175 -4.820937,-7.401285s-1.799816,-6.235078 -1.799816,-9.963269c0,-3.213958 0.596878,-6.198347 1.799816,-8.971533c1.202938,-2.764004 2.855831,-5.160698 4.949495,-7.190083s4.573003,-3.645546 7.428834,-4.820937c2.846648,-1.17539 5.922865,-1.763085 9.219467,-1.763085c2.056933,0 4.022038,0.220386 5.913682,0.67034c1.882461,0.449954 3.636364,1.111111 5.23416,1.992654c1.606979,0.881543 3.057851,1.928375 4.343434,3.158861c1.285583,1.221304 2.332415,2.598714 3.149679,4.141414l-9.320477,7.134986c-0.899908,-1.799816 -2.24977,-3.250689 -4.049587,-4.343434c-1.799816,-1.092746 -3.709825,-1.64371 -5.720845,-1.64371c-1.505969,0 -2.874196,0.293848 -4.113866,0.899908s-2.31405,1.432507 -3.213958,2.506887c-0.899908,1.065197 -1.606979,2.341598 -2.121212,3.820018c-0.514233,1.478421 -0.77135,3.103765 -0.77135,4.857667c0,1.790634 0.257117,3.425161 0.77135,4.876033c0.514233,1.460055 1.230487,2.71809 2.157943,3.764922c0.918274,1.046832 2.020202,1.854913 3.305785,2.442608s2.71809,0.87236 4.306703,0.87236c3.645546,0 6.859504,-1.496786 9.641873,-4.499541l-7.906336,0l0,-8.999082l18.769513,0l0,24.29752l-10.348944,0l0,-3.783287z"/>
    <path d="m122.001829,126.060594c-3.434343,0 -6.04224,-1.037649 -7.842057,-3.12213c-1.799816,-2.084481 -2.699724,-5.114784 -2.699724,-9.090909l0,-22.240587l12.213039,0l0,19.476584c0,1.496786 0.330579,2.653811 0.991736,3.471074c0.67034,0.808081 1.579431,1.221304 2.736455,1.221304c0.945822,0 1.910009,-0.211203 2.892562,-0.642792s1.965106,-1.368228 2.956841,-2.828283l0,-20.697888l12.213039,0l0,20.312213c0,1.157025 0.174472,1.955923 0.514233,2.41506c0.339761,0.449954 0.945822,0.716253 1.799816,0.798898l0,10.284665c-2.102847,0.431589 -3.810836,0.642792 -5.142332,0.642792c-4.15978,0 -6.556474,-1.570248 -7.199265,-4.701561l-0.257117,-1.221304c-1.579431,2.102847 -3.471074,3.617998 -5.656566,4.536272c-2.194674,0.918274 -4.692378,1.386593 -7.520661,1.386593z"/>
    <path d="m151.496778,88.769502l0,-10.284665l12.213039,0l0,10.284665l-12.213039,0zm0,36.639118l0,-33.810835l12.213039,0l0,33.810835l-12.213039,0z"/>
    <path d="m183.067025,126.060594c-2.31405,0 -4.444444,-0.431589 -6.400367,-1.294766c-1.94674,-0.853994 -3.636364,-2.066116 -5.050505,-3.636364c-1.414141,-1.561065 -2.51607,-3.425161 -3.305785,-5.583104c-0.789715,-2.167126 -1.184573,-4.536272 -1.184573,-7.098255c0,-2.488522 0.367309,-4.793388 1.092746,-6.942149c0.734619,-2.139578 1.74472,-4.003673 3.057851,-5.564738c1.313131,-1.561065 2.865014,-2.782369 4.66483,-3.654729s3.79247,-1.322314 5.977961,-1.322314c2.176308,0 4.187328,0.495868 6.00551,1.478421s3.22314,2.378329 4.205693,4.178145l0,-18.135904l12.213039,0l0,33.434343c0,1.157025 0.174472,1.955923 0.523416,2.41506c0.339761,0.449954 0.945822,0.716253 1.790634,0.798898l0,10.284665c-2.102847,0.431589 -3.810836,0.642792 -5.142332,0.642792c-4.15978,0 -6.556474,-1.570248 -7.199265,-4.701561l-0.247934,-1.221304c-1.166208,2.066116 -2.727273,3.562902 -4.701561,4.499541s-4.077135,1.423324 -6.299357,1.423324zm3.342516,-10.293847c2.222222,0 4.150597,-1.157025 5.785124,-3.471074l0,-6.04224c-0.596878,-1.496786 -1.478421,-2.708907 -2.635445,-3.636364s-2.378329,-1.37741 -3.663912,-1.37741c-0.899908,0 -1.726354,0.192837 -2.479339,0.56933c-0.743802,0.385675 -1.386593,0.927456 -1.928375,1.616162c-0.541781,0.679522 -0.955005,1.469238 -1.285583,2.378329c-0.321396,0.899908 -0.486685,1.864095 -0.486685,2.883379c0,2.139578 0.606061,3.856749 1.827365,5.151515c1.239669,1.285583 2.846648,1.928375 4.86685,1.928375z"/>
    <path d="m227.355362,126.060594c-2.956841,0 -5.592286,-0.46832 -7.906336,-1.37741c-2.31405,-0.927456 -4.251607,-2.176308 -5.821855,-3.764922c-1.561065,-1.579431 -2.754821,-3.406795 -3.562902,-5.463728c-0.817264,-2.056933 -1.230487,-4.224059 -1.230487,-6.492195c0,-2.442608 0.40404,-4.756657 1.193756,-6.942149s1.974288,-4.086318 3.535353,-5.720845c1.570248,-1.634527 3.498623,-2.92011 5.785124,-3.89348c2.295684,-0.955005 4.958678,-1.44169 8.007346,-1.44169c2.993572,0 5.656566,0.486685 7.970615,1.44169c2.31405,0.964187 4.251607,2.24977 5.812672,3.856749c1.570248,1.616162 2.745638,3.471074 3.544536,5.592286c0.789715,2.112029 1.184573,4.343434 1.184573,6.657484c0,0.633609 -0.027548,1.294766 -0.10101,1.955923c-0.064279,0.67034 -0.137741,1.258035 -0.220386,1.772268l-23.719008,0c0.137741,1.790634 0.798898,3.094582 2.001837,3.884297c1.193756,0.798898 2.497704,1.193756 3.921028,1.193756c1.331497,0 2.580349,-0.30303 3.755739,-0.909091c1.184573,-0.587695 1.965106,-1.432507 2.35078,-2.497704l10.348944,2.956841c-1.368228,2.699724 -3.480257,4.903581 -6.326905,6.620753s-6.372819,2.571166 -10.523416,2.571166zm5.399449,-21.157024c-0.211203,-1.625344 -0.817264,-2.910927 -1.799816,-3.856749s-2.24977,-1.404959 -3.79247,-1.404959s-2.809917,0.46832 -3.79247,1.404959s-1.579431,2.231405 -1.790634,3.856749l11.17539,0z"/>
    <path d="m283.213947,125.40862l-12.213039,0l0,-19.02663c0,-1.671258 -0.376492,-2.874196 -1.129477,-3.636364c-0.743802,-0.743802 -1.616162,-1.120294 -2.598714,-1.120294c-1.028466,0 -2.121212,0.449954 -3.278237,1.340679c-1.157025,0.909091 -2.011019,2.066116 -2.561983,3.471074l0,18.96235l-12.213039,0l0,-33.810835l10.991735,0l0,5.013774c1.193756,-1.84573 2.874196,-3.250689 5.041322,-4.214876c2.157943,-0.955005 4.729109,-1.44169 7.68595,-1.44169c2.31405,0 4.141414,0.422406 5.500459,1.258035c1.340679,0.835629 2.378329,1.873278 3.085399,3.112948c0.707071,1.248852 1.166208,2.571166 1.37741,3.99449c0.211203,1.404959 0.321396,2.699724 0.321396,3.856749l0,22.240587l-0.009183,0z"/>
  </g>
</svg>
