<svg xmlns="http://www.w3.org/2000/svg" viewBox="0 0 1102.2 221.8">
  <title>hjo</title>
  <path
    d="M1106.3,31.9c.6,9.1-3.4,17.7-6.8,26.2a4.3,4.3,0,0,1-4.5,1.1c-5.1-4.5-2.3-12.5-5.1-18.2-2.3-3.9-7.4-6.8-12-5.1-13-.2-27.8,51.7-33.5,80.1,0,8-3.9,19.3,5.1,23.3,5.2,1.7,9.7-1.7,12-6.3,4-12.5,9.1-26.1,10.2-39.7,3.4-8-11.9-9.1-4-14.8,13.7,1.7,26.7-.6,39.8-.6,2.2.6,3.4,4,1.7,5.7l-6.8,4.6c-4,17-12,33.5-10.8,52.2-10.2,1.7-17.1,10.8-26.7,13.7s-17.6-1.2-25.6-4.6c-21-16.5-19.3-45.4-15.9-69.8,6.3-23.9,21.6-50,48.3-55.7C1083.6,21.7,1097.3,24.6,1106.3,31.9Z"
    transform="translate(-7.8 -8.9)"/>
  <path
    d="M897.9,26.8c2.9,2.9-.6,5.7-2.3,7.4-6.2,1.7-10.2,6.3-10.8,12.5-9.6,31.2-18.1,64.2-28.3,95.4-1.2,4-2.3,10.8-8,9.7s-10.8,1.7-10.8-4.6c-2.8-27.8-9.1-54.5-13-82.9l-.6-.5c-6.8,22.7-15.4,44.8-20.5,67.5-3.4,9.1,19.3,15.4,3.4,19.9-11.3-1.1-24.4,1.1-35.7-1.7-1.7-1.7-.6-4.5.5-6.2,11.4-5.1,15.4-14.8,18.2-26.2,7.4-25.5,14.8-49.4,22.2-74.9,3.9-6.8-13.1-13.7,0-16.5l32,.3,2.6,5.9,7.9,50,1.2,1.2c5.1-13.1,7.9-25.6,11.9-39.2,2.8-8-15.3-15.9-1.1-19.3C878.2,25.4,891.7,22.2,897.9,26.8Z"
    transform="translate(-7.8 -8.9)"/>
  <path
    d="M1042.4,26.8c2.8,2.9-.6,5.7-2.3,7.4-6.2,1.7-10.2,6.3-10.8,12.5-9.6,31.2-18.2,64.2-28.4,95.4-1.1,4-2.3,10.8-7.9,9.7s-10.8,1.7-10.8-4.6c-2.9-27.8-9.1-54.5-13.1-82.9l-.6-.5c-6.8,22.7-15.3,44.8-20.4,67.5-3.4,9.1,19.3,15.4,3.4,19.9-11.3-1.1-24.4,1.1-35.8-1.7-1.7-1.7-.5-4.5.6-6.2,11.4-5.1,15.3-14.8,18.2-26.2,7.4-25.5,14.7-49.4,22.1-74.9,4-6.8-13-13.7,0-16.5l32.1.3,2.6,5.9,7.9,50,1.2,1.2c5.1-13.1,7.9-25.6,11.9-39.2,2.8-8-15.4-15.9-1.2-19.3C1022.6,25.4,1036.1,22.2,1042.4,26.8Z"
    transform="translate(-7.8 -8.9)"/>
  <path
    d="M939.4,25.7c1.1,1.1,2.8,1.1,3.4,3.4.5,7.4-10.8,5.7-10.2,13.6-7.4,32.4-17.1,64.8-26.2,97.7,1.7,4,9.1,4,5.7,9.7l-4,2c-13.6-1.1-27.2,2-39.7-2-2.3-8,7.9-6.8,10.2-13.1,9.1-32.4,19.3-63.6,27.8-96.5,1.7-5.1-11.3-14.2,1.7-15.4Z"
    transform="translate(-7.8 -8.9)"/>
  <path
    d="M459.5,28.5c0,5.2-6.8,4-8.5,8.6-11.4,31.2-18.2,62.4-27.3,94.2-4.6,10.3-14.2,18.8-24.4,22.8-13.2,3.2-23.3,2.4-31.3-8s-9.1-25.6-2.2-35.8c3.9-6.2,9.6-10.8,17.6-11.3,5.6,1.3,10.2,3.4,11.9,9s0,12.5-3.4,17.1c-1.7,4-5.1,4-8.5,5.1s-5.1-4-8.6-2.8c-1.1,3.4-.5,7.9,2.3,10.2,4,4,9.1,4.5,13.6,1.7,10.8-9.7,10.8-24.4,14.8-37.5,5.7-21,11.9-42,16.5-63.6,0-5.1-9.7-4-6.3-10.8l4-1.7c13-.3,25-1.1,38.1,0Z"
    transform="translate(-7.8 -8.9)"/>
  <path
    d="M660.5,27.4l-2.8,24.4c-1.2,2.3-4.6,4-6.8,1.7-3.4-6.8-5.1-14.2-12-17.6-1.7,0-5.1-2.2-6.2.6-9.7,28.4-15.9,56.8-26.1,84.6,0,6.3-6.3,13.1-2.3,19.9,2.3,1.7,6.2,1.7,6.2,5.7s-3.3,4.4-6.1,5c-15.5.1-26.5,1.1-39.3-3.3-3.4-9.7,9.7-6.8,9.7-14.2,10.2-33.5,19.3-64.8,28.9-97.1-2.2-3.4-6.2,0-9.6.5-7.4,3.4-12,11.4-18.8,16.5-2.2.6-6.8,1.1-7.4-1.7-1.7-9.7,6.3-17.6,9.7-25.6l3.4-1.1,77.8-.2Z"
    transform="translate(-7.8 -8.9)"/>
  <path
    d="M705.4,25.7c2.8,2.3,1.1,4.5-.6,6.2s-6.8,4-7.4,7.4l-26.1,91.5c-2.3,5.1-2.7,9.5,2.4,11.8,1.7,1.7,2.1,6.3.4,6.9-12.4,3.6-25.9,2.3-38,1.7A6.2,6.2,0,0,1,631,145c2.8-4.6,9.1-4,11.3-10.3,6.3-31.8,19.9-61.9,26.7-93.7,4-6.8-11.9-10.2-1.7-15.3Z"
    transform="translate(-7.8 -8.9)"/>
  <path
    d="M336.8,26.3a4.2,4.2,0,0,1,1.1,5.6c-7.9,1.2-10.8,9.1-12.5,16l-6.2,22.7,23.3-.5,8.5-33c-1.1-4-9.1-5.4-5.7-10.5,13.9.1,28.4-1.1,42.6-.6,2.3.6,2.3,4.8,1.1,6.5-3.4,4-10.2,2.9-11.3,8.5-8.5,33-18.2,65.3-26.7,97.2,0,6.2,10.8,6.2,6.2,13a204,204,0,0,1-41.4.6c-2.3-1.2-4.6-4.6-2.3-6.8,10.8-1.2,11.4-12,14.8-19.3,2.8-13.7,6.1-23.6,10.2-39.2-4.8-.7-4.2.5-5.9,0H315.2c-6.2,17-10.2,33.5-14.7,51.7-.6,5.6,13.6,11.3,1.8,15.2H264.8c-2.4-2.2-3-5-1.3-7.3,5.1-2.3,7.7-3.2,11.4-14.8,9.6-30.1,16.5-60.7,26.1-92,0-5.6-9.1-5.6-5.1-11.9l2.8-1.1Z"
    transform="translate(-7.8 -8.9)"/>
  <path
    d="M528.8,40.5c-2.3-6.3-7.4-10.3-13.1-13.7-13.1-6.2-32.4-4.5-43.7,5.1-23.9,22.8-30.7,52.3-29,85.2,2.3,14.2,8.5,29,22.1,34.7,13.3,3.6,20.2-2.4,31.9-8.5C524.2,116,537.8,79.1,528.8,40.5Zm-36.1,66.2c-3.4,10.2-6,21.8-14.5,30.9-3.4,1.7-8.5,1.7-11.9-1.2-9.1-12,.9-33.5,5.1-49.6S482.2,49,494.1,34.2c6.4-3.1,10.8-1.1,13.1,3.4C507.7,62,498.9,84,492.7,106.7Z"
    transform="translate(-7.8 -8.9)"/>
  <path
    d="M787.7,42.2c-14.7-25-45.5-15.4-70.4-17.1l-5.1,1.7c-5.1,6.9,9.1,5.1,5.1,13.1-7.9,31.2-17,62.5-25.5,93.7-1.2,5.1-7.4,6.8-10.8,9.7-.6,2.8-.6,6.2,2.2,7.3,21,.6,43.8,2.9,62.5-5.6,25.6-10.8,39.8-39.8,45.4-64.8C791.7,67.7,794,53,787.7,42.2Zm-41.4,74.4c-5.1,7.9-10.2,18.1-21,17.6-1.7,0-4,1.7-5.7,0-1.2-3.4,1.7-8,2.8-12,7.4-27.8,15.9-55.6,23.9-83.4,5.7-.6,13.6,1.1,15.3,7.3C765.6,72.3,755.4,94.4,746.3,116.6Z"
    transform="translate(-7.8 -8.9)"/>
  <path
    d="M196.9,31.4c18.2,26.1,14.2,67.6-3.4,93.1l-10.8,15.9h0s-.3,1.4-10.6,18.5c-7.1,7.8-5.3,3.5-15.6,14.9-6.4,6-1.1-.7-8.5,8.2-3.4,3.4-3.6,4.2-8.9,11.3s-9.2,9-13.1,14.7c-5.2,7.4-5.7,15.3-8.6,22.7h-2.2c-5.7-13-13.7-27.2-27.3-35.2L57.4,161c-16.3-12.4-28.6-25.7-34.2-37.6h0C14.1,108,9,88.7,7.8,68.9s8-35.8,23.9-47.7a62.3,62.3,0,0,1,46.5-8.6c12.5,3.4,22.2,12,30.1,21.6C122,19.5,140.7,4.1,164,10.4,177.1,12.1,187.9,21.7,196.9,31.4Z"
    transform="translate(-7.8 -8.9)" fill="#e30613"/>
  <path
    d="M172,48.5c1.7,4.6,1.1,11.8-2.3,15.8-3.4-3.4-4.6-11.9-11.4-10.8l-2.8,5.1-17.1,52.3c-.5,3.4,1.8,4.5,2.9,6.8l-1.7,1.7c-7.4,1.1-14.2,1.4-21-.3-2.3-3.4,2.2-3.7,3.4-5.9,7.4-19.3,13.6-39.2,19.9-59.1-.6-.6-1.7-2.8-2.9-1.1-8.5,0-9.1,10.2-17,10.2-1.7-3.4,1.7-7.4,2.8-10.8l4.6-4Z"
    transform="translate(-7.8 -8.9)" fill="#fff"/>
  <path
    d="M119.7,50.7c-10.8,7.4-11.4,23.8-15.3,35.8-2.9,9.1-6.3,18.7-8,28.4,1.2,1.7,4,2.2,2.9,3.9a29.2,29.2,0,0,1-23.9.6c-.6-2.8,3.4-2.8,5.1-5.1,4-9.1,6-21.9,10-31-7.9,0-8.9-.7-14-.2-5.1,10.2-7.3,21-9,31.8l3.4,3.9c-5.1,5.7-15.4,4-22.2,2.9-3.7-5.8,3-2.1,4.1-6.1,4-18.2,10.8-40.4,15.3-58.6,1.7-3.4-4.6-5.1-1.8-8.3H89c-.5,3.5-3.9,3.7-5.1,6L78.2,74c6.2,0,6.9.4,14,0,1.2-7.9,8.8-15.9,3.1-23.9,6.8-2.2,15.3-.5,22.7-1.1Z"
    transform="translate(-7.8 -8.9)" fill="#fff"/>
  <path d="M24.5,140.4c-.1-2.8,4.1-4.1,5.2-2.8s.6,5,.8,7.8c-2.2-.6-3.7-2.3-4.9-4.3C25.3,141.1,24.5,140.8,24.5,140.4Z"
        transform="translate(-7.8 -8.9)" stroke="#000" stroke-width="0.56"/>
  <path
    d="M28.4,187.3s-1.9,0,13.9,3.9c20.3,4.9,48.9,1,118.8-15.6,14.1-3.3,33.6,3.7,35,8.3s-.4-36.1-.4-36.1c-21.4-34.7-74.2-7.5-100.9-2.4-68.1,13-70.4-4.7-70.4-4.7C21,159.6,28.4,187.3,28.4,187.3Z"
    transform="translate(-7.8 -8.9)" fill="#fff" stroke="#000" stroke-width="0.56"/>
  <path
    d="M196.5,184.9c-.8,3.7-5.5,6.6-8.9,8-.4-4.3-.9-9.6-1.6-13.8a5.8,5.8,0,0,1,2.9,1.2c2.3,1.9,4.4,1,6.4,3.7C195.7,184.3,196.5,185.3,196.5,184.9Z"
    transform="translate(-7.8 -8.9)"/>
  <text transform="matrix(0.97, 0.24, -0.24, 0.97, 15.22, 171.31)" font-size="39.76"
        font-family="ZapfChancery-MediumItalic, ZapfChancery MediumItalic" font-style="italic"></text>
  <text transform="translate(23.4 173.3) rotate(6) scale(0.9 1)" font-size="39.76"
        font-family="ZapfChancery-MediumItalic, ZapfChancery MediumItalic" font-style="italic">I
  </text>
  <text transform="matrix(0.9, 0.03, -0.03, 1, 31.93, 174.14)" font-size="39.76"
        font-family="ZapfChancery-MediumItalic, ZapfChancery MediumItalic" font-style="italic"></text>
  <text transform="translate(39.5 174.3) rotate(-1) scale(0.9 1)" font-size="39.76"
        font-family="ZapfChancery-MediumItalic, ZapfChancery MediumItalic" font-style="italic">l
  </text>
  <text transform="matrix(0.9, -0.02, 0.02, 1, 47.95, 174.22)" font-size="39.76"
        font-family="ZapfChancery-MediumItalic, ZapfChancery MediumItalic" font-style="italic">o
  </text>
  <text transform="matrix(0.89, -0.1, 0.11, 0.99, 67.58, 173.68)" font-size="39.76"
        font-family="ZapfChancery-MediumItalic, ZapfChancery MediumItalic" font-style="italic">v
  </text>
  <text transform="translate(84.7 171.7) rotate(-9.8) scale(0.9 1)" font-size="39.76"
        font-family="ZapfChancery-MediumItalic, ZapfChancery MediumItalic" font-style="italic">e
  </text>
  <text transform="translate(102.4 168.6) rotate(-11.6) scale(0.9 1)" font-size="39.76"
        font-family="ZapfChancery-MediumItalic, ZapfChancery MediumItalic" font-style="italic"></text>
  <text transform="matrix(0.88, -0.21, 0.23, 0.97, 109.8, 167.18)" font-size="39.76"
        font-family="ZapfChancery-MediumItalic, ZapfChancery MediumItalic" font-style="italic">H
  </text>
  <text transform="translate(132.5 161.6) rotate(-14.7) scale(0.9 1)" font-size="39.76"
        font-family="ZapfChancery-MediumItalic, ZapfChancery MediumItalic" font-style="italic">j
  </text>
  <text transform="matrix(0.9, -0.06, 0.07, 1, 140.9, 159.39)" font-size="39.76"
        font-family="ZapfChancery-MediumItalic, ZapfChancery MediumItalic" font-style="italic">o
  </text>
  <text transform="matrix(1, 0.02, -0.02, 1, 160.51, 158.27)" font-size="39.76"
        font-family="ZapfChancery-MediumItalic, ZapfChancery MediumItalic" font-style="italic">!
  </text>
  <text transform="translate(169.7 158.4) rotate(6.3)" font-size="39.76"
        font-family="ZapfChancery-MediumItalic, ZapfChancery MediumItalic" font-style="italic"></text>
</svg>
