<svg xmlns="http://www.w3.org/2000/svg" xmlns:xlink="http://www.w3.org/1999/xlink" viewBox="0 0 710.5 147">
  <defs>
    <clipPath id="a" transform="translate(0 0)">
      <rect y="1.4" width="74" height="108.72" fill="none"/>
    </clipPath>
  </defs>
  <title>dl-logo</title>
  <path
    d="M564.3,132.5c-.7,0,8-11.1,8-11.1s5.9-1.5,12.2,5.1,8.7,7.7,8.9,6.5,1-65.2,1-65.2L581.2,57.5l-.3,26.1,7,6.7a7.6,7.6,0,0,0,3.4-.5c1.7-.6-11.4,11.5-11.4,11.5s-.3-2.3-7-6.3-7.6-5.4-7.6-5.4a58.3,58.3,0,0,0,2.4-14.7c.2-7.9.9-5.9-1.7-15.2-.3-.9,4.7-1.7,11.5-8.1s10.6-11.7,10.6-12.9,1.1,4.9,10.8,13.4,5.4,7.2,11.5,10.3c.8.4-2.5,5.6-2.5,31,0,11.8-.6,15.3.4,30.7,0,.6-6.1,4.9-11.4,10s-9.4,11.3-10.7,11.9-6.1-5.9-9.7-8.8c-5.4-4.5-7.4-4.7-12.2-4.7Z"
    transform="translate(0 0)" fill="#270600" stroke="#fff" stroke-width="2"/>
  <path
    d="M127.5,23l2.1,3.2L115.4,38.9,128.8,55l-1.9,1.5,3.1,4.3c-13-1.4-21,9.4-20.8,20.9s9.9,19.7,21,20.2c8.5.3,15.7-10.3,15.7-10.3l-10.3-8.1s-1.5,9.5-10.2,9.4c-4.7,0-9.8-1.8-10.1-6.9-.4-8.4,6.4-10.7,15.1-11.3,18.4-1.3,28.9,25.6,28.9,25.6l2.7-2s-3.9-12.4,8.2-41.2c3.8-9,5.7-13.2,5.5-24.1a36.5,36.5,0,0,0-11-25.8c-5.8-5.5-17.2-8.6-27.8-5.1s-21.4,6.6-23,3.4S117.2.2,117.2.2s-9.1-2.3-11.4,9.9c-1.5,7.2,6.4,13.3,16.4,14.4,5.5.6,11.9-1.4,17.3-3.2s8.6-4.1,14.6-4.1c8.5,0,15.2,6.6,15.3,16.7s-2.7,9.2-5.5,14.4c-4.3,7.7-7.8,14-7.5,23.7.2,6.5,1.4,16.1,1.4,16.1s-4.7-11.4-10.1-16.8-8-6.8-14.1-9.2L130,57.3l13.3-10.4L130.4,31.1l3-2.9-3.7-5.3Z"
    transform="translate(0 0)" fill="#270600"/>
  <path
    d="M183.8,100.9s6.8-7.4,13.5-7.2,12.4,6.3,11.5,7.2S221.1,83,221.1,83l-5.9,2.7s-2,1.8-1.7-13.9,1.4-16.1,2.1-16.3-9.7-7.2-18.1-17.2c-.8-1-20.3,11.6-23.4,18.5-.3.8-2.1,2.8,1.7,3.4s0,.2,0,2.4,3,.7,3,.7,2.7-4.9-2-5.1c-2.7-.2,7.9-9,7.9-9a45.8,45.8,0,0,0,11.5,10.3c1.1.7.4,29,.4,29s-9.6,3.4-9.4-11.8C187.3,64,191,58,191,58a54,54,0,0,1-9.3,9.1c-2.5,2-6.7,4-9.7,5.6-.7.4,2.1,4.9,2.1,8.7a19.3,19.3,0,0,1-2.3,8.8,55.9,55.9,0,0,1,6.5,4.4,50.3,50.3,0,0,1,5.5,6.3Z"
    transform="translate(0 0)" fill="#270600"/>
  <path
    d="M335.8,100.8s6.8-7.3,13.5-7.2,12.4,6.3,11.6,7.2,12.2-17.9,12.2-17.9l-5.9,2.7s-2,1.8-1.7-13.9,1.4-16.1,2.1-16.3-9.7-7.2-18.1-17.2c-.8-1-20.2,11.7-23.3,18.5-.4.8-2.2,2.8,1.6,3.4s0,.2,0,2.4,3,.8,3,.8,2.7-5-2-5.2c-2.6-.2,7.9-9,7.9-9a45.8,45.8,0,0,0,11.5,10.3c1.1.7.5,29.1.5,29.1s-9.7,3.4-9.5-11.8c.2-12.8,3.8-18.8,3.8-18.8a49.7,49.7,0,0,1-9.3,9.1c-2.5,2-6.8,4-9.7,5.6-.7.4,2.2,5,2.2,8.7a20.2,20.2,0,0,1-2.4,8.8,70.3,70.3,0,0,1,6.6,4.4,55.8,55.8,0,0,1,5.4,6.3Z"
    transform="translate(0 0)" fill="#270600"/>
  <path
    d="M228.9,91.7a59.7,59.7,0,0,0-5.7-6.4s4.1-1.8,3.6-9.4c-.6-11.4.6-29.8-.4-36.7s0-3.8-4-10.3c-.1-.1,5.4-4.5,10.3-9.8S244.4,5.4,244.4,5.4a2.4,2.4,0,0,1-.3-1.2,2.8,2.8,0,0,1,2.6-2.8,2.7,2.7,0,0,1,2.6,2.8,2.5,2.5,0,0,1-1,2.1l-8.6,9.6s.8-1.1.2,34.7S243,84.1,243,84.1l7.7-3.3a132.2,132.2,0,0,0-10.2,10.9c-2.8,3.4-6.5,9.2-6.5,9.2a74,74,0,0,0-5.1-9.2Z"
    transform="translate(0 0)" fill="#270600"/>
  <path
    d="M301.5,91.7a59.7,59.7,0,0,0-5.7-6.4s4.1-1.8,3.6-9.4c-.5-11.4.6-29.8-.4-36.7s0-3.8-4-10.3c-.1-.1,5.4-4.5,10.3-9.8S317,5.4,317,5.4a2.4,2.4,0,0,1-.3-1.2,2.8,2.8,0,0,1,2.6-2.8,2.7,2.7,0,0,1,2.6,2.8,2.5,2.5,0,0,1-1,2.1l-8.6,9.6s.8-1.1.2,34.7,3.1,33.5,3.1,33.5l7.7-3.3a132.2,132.2,0,0,0-10.2,10.9c-2.7,3.4-6.5,9.2-6.5,9.2a74,74,0,0,0-5.1-9.2Z"
    transform="translate(0 0)" fill="#270600"/>
  <path
    d="M268.6,38.3c-.4,0-4.8,5.6-9,9A51.6,51.6,0,0,1,249,53.5a41.2,41.2,0,0,1,2.5,12.3c.2,5.8-2.1,9.7-1.9,9.8,9.5,7.1,7.6,13.8,7.8,12.9,1.1-3.8,13.1-19.3,13.1-19.3l4,5.3s-.6,10-1.3,9.1c-3.8-5.1-13.2-3.5-13.2-3.5-5.3,6.7-12.2,16.5-12.2,16.5s-1.3-1.3-1.7-1.4a3.2,3.2,0,0,0-2.5,3.3,2.8,2.8,0,0,0,2.9,2.4,3,3,0,0,0,2-1.2l4.9-5.3a47.5,47.5,0,0,1,10.1,1.1c4.6,1.4,10.4,5.4,10.4,5.4a78,78,0,0,1,6.7-8.1,100,100,0,0,1,8.6-6.7,58.5,58.5,0,0,1-1-10.7c0-5.2,1.4-11.6,1-11.9A23.6,23.6,0,0,1,281,54c5.3-6.8,12-15.7,12-15.7a8.5,8.5,0,0,0,1.9,1,3.1,3.1,0,0,0,2.4-3.2,2.8,2.8,0,0,0-2.9-2.4,3.3,3.3,0,0,0-2,1.1L267.1,68.3l-2.3-1.7-.2-12.2s4.6,4.3,8.4,5.8,7.4-8,7.4-8l3.6-4.9a36.4,36.4,0,0,1-8-3.4c-3.7-2.2-7.1-5.6-7.4-5.6Z"
    transform="translate(0 0)" fill="#270600"/>
  <polygon points="332.1 38.3 345.1 27.8 340.1 19.3 332.6 24.2 337.3 31.6 332.1 38.3 332.1 38.3" fill="#270600"/>
  <polygon points="355.2 38.3 368.3 27.8 363.2 19.3 355.8 24.2 360.4 31.6 355.2 38.3 355.2 38.3" fill="#270600"/>
  <path
    d="M489.4,83.2c-.5,3.8-3.8,6.7-3.8,6.7a19.6,19.6,0,0,1,4.8,3.8,43.5,43.5,0,0,1,4.8,7.2,49.9,49.9,0,0,1,5.9-8.1,60.8,60.8,0,0,1,8-6.2l-5.5,1.1s-1.3-2.9-1.2-15.4a103.2,103.2,0,0,1,2.2-20.1c-1.2-2.5-4.3-4.7-5.5-6.6a46.6,46.6,0,0,1-4-7.3s-12.2,11.8-15,13.9c-.1.3,2,1.9,2,2.2s4.3-3.9,4.3-3.6,3.2,3.3,3.2,4.1a156.2,156.2,0,0,1-.2,28.3Z"
    transform="translate(0 0)" fill="#270600"/>
  <polygon points="488.2 35.5 501.3 24.9 496.2 16.4 488.8 21.3 493.4 28.8 488.2 35.5 488.2 35.5" fill="#270600"/>
  <path
    d="M564.3,132.3c-.7,0,8-11.1,8-11.1s5.9-1.5,12.2,5.1,8.7,7.6,8.9,6.5,1-65.3,1-65.3L581.2,57.3l-.3,26.1,7,6.7a9.8,9.8,0,0,0,3.4-.5c1.7-.6-11.4,11.5-11.4,11.5s-.3-2.3-7-6.3-7.6-5.4-7.6-5.4a58.3,58.3,0,0,0,2.4-14.7c.2-7.9.9-5.9-1.7-15.2-.3-.9,4.7-1.7,11.5-8.1s10.6-11.7,10.6-12.9,1.1,4.9,10.8,13.4,5.4,7.2,11.5,10.3c.8.3-2.5,5.6-2.5,31,0,11.8-.6,15.3.4,30.6,0,.7-6.1,5-11.4,10.1s-9.4,11.3-10.7,11.8-6.1-5.8-9.7-8.7c-5.4-4.5-7.4-4.7-12.2-4.7Z"
    transform="translate(0 0)" fill="#270600"/>
  <path
    d="M615.4,59.9a107.7,107.7,0,0,1,1.4,13.5c0,5.2-.9,13.4-.9,13.4s6.3,3.6,10,6.2,9.7,7.9,9.7,7.9l17.7-15-9.5,4.4a64.4,64.4,0,0,0-6.8-6.2,55.8,55.8,0,0,0-7.3-4.2V69.6c0-4.6-.7-12.1-.7-12.1s4.5,5.1,7,8.3l6.9,8.7-5.2,8.1s5.5-5.8,9.3-9.2,7.7-6.5,7.7-6.5A147,147,0,0,1,643.8,54a167.4,167.4,0,0,1-9.1-15.7s-4.6,7.8-8,11.6-11.3,10-11.3,10Z"
    transform="translate(0 0)" fill="#270600"/>
  <path
    d="M387.3,100.5s-2.7-3.8-4.8-6.2a65.1,65.1,0,0,0-6.2-5.4,3.1,3.1,0,0,0,2.9-3.1l.3-4.3V65.2a9.5,9.5,0,0,0-.7-3.6,9.2,9.2,0,0,0-2.5-2.5h-3.5a76.9,76.9,0,0,0,7.3-7.3,71.9,71.9,0,0,0,5.5-8.5,30.8,30.8,0,0,0,3.8,4.9,41.2,41.2,0,0,0,4.8,3.8,69,69,0,0,0,7.2-4.4,56.5,56.5,0,0,0,6.7-6.3,100.7,100.7,0,0,0,7,7.7c3.6,3.4,9.9,8.2,9.9,8.2a13.3,13.3,0,0,0-2.1,3.3,17.4,17.4,0,0,0-.4,3.8s.1,5.5.1,9-.1,10.7-.1,10.7l1,3.6,4.5-2.1a82.1,82.1,0,0,0-7,7.4,67.4,67.4,0,0,0-4.8,7.6,53.4,53.4,0,0,0-4.9-7.4c-2.1-2.3-6.5-4.2-6.5-4.2a8.4,8.4,0,0,0,2.5-2.1,8.5,8.5,0,0,0,1-2.4v-23l-7.1-7.3-7,4s-.5,9.2-.4,15.2.9,14.9.9,14.9l4.9-1.5s-4.4,3.9-6.9,6.7-5.4,7.1-5.4,7.1Z"
    transform="translate(0 0)" fill="#270600"/>
  <path
    d="M442.6,100.5s-2.7-3.8-4.9-6.2a56.3,56.3,0,0,0-6.1-5.4,3.1,3.1,0,0,0,2.9-3.1l.3-4.3V65.2a9.5,9.5,0,0,0-.7-3.6,9.2,9.2,0,0,0-2.5-2.5h-3.5a76.9,76.9,0,0,0,7.3-7.3,89,89,0,0,0,5.5-8.5,30.8,30.8,0,0,0,3.8,4.9,41.2,41.2,0,0,0,4.8,3.8,69,69,0,0,0,7.2-4.4,56.5,56.5,0,0,0,6.7-6.3,100.7,100.7,0,0,0,7,7.7c3.6,3.4,9.9,8.2,9.9,8.2a13.3,13.3,0,0,0-2.1,3.3,17.4,17.4,0,0,0-.4,3.8s.1,5.5.1,9-.1,10.7-.1,10.7l1,3.6,4.5-2.1a82.1,82.1,0,0,0-7,7.4,67.4,67.4,0,0,0-4.8,7.6,53.4,53.4,0,0,0-4.9-7.4c-2.1-2.3-6.5-4.2-6.5-4.2a8.4,8.4,0,0,0,2.5-2.1,8.5,8.5,0,0,0,1-2.4v-23l-7.1-7.3-7,4s-.5,9.2-.4,15.2.9,14.9.9,14.9l4.9-1.5s-4.4,3.9-6.9,6.7-5.4,7.1-5.4,7.1Z"
    transform="translate(0 0)" fill="#270600"/>
  <path
    d="M523.8,100.5a68.6,68.6,0,0,0-4.8-6.2,56.3,56.3,0,0,0-6.1-5.4,3.1,3.1,0,0,0,2.9-3.1l.3-4.3V65.2a9.5,9.5,0,0,0-.7-3.6,9.2,9.2,0,0,0-2.5-2.5h-3.6a73.4,73.4,0,0,0,7.4-7.3,89,89,0,0,0,5.5-8.5,34.7,34.7,0,0,0,3.7,4.9,39,39,0,0,0,4.9,3.8,69,69,0,0,0,7.2-4.4,56.5,56.5,0,0,0,6.7-6.3s4.1,5,6.9,7.7,10,8.2,10,8.2a13.3,13.3,0,0,0-2.1,3.3,17.4,17.4,0,0,0-.4,3.8s.1,5.5.1,9-.1,10.7-.1,10.7l1,3.6,4.4-2.1a100.8,100.8,0,0,0-7,7.4,88,88,0,0,0-4.8,7.6,45,45,0,0,0-4.9-7.4c-2.1-2.3-6.4-4.2-6.4-4.2a8.4,8.4,0,0,0,2.5-2.1,8.5,8.5,0,0,0,1-2.4v-23l-7.2-7.3-6.9,4s-.5,9.2-.4,15.2.9,14.9.9,14.9l4.8-1.5s-4.3,3.9-6.8,6.7-5.5,7.1-5.5,7.1Z"
    transform="translate(0 0)" fill="#270600"/>
  <path
    d="M669.8,100.5a68.6,68.6,0,0,0-4.8-6.2,65.1,65.1,0,0,0-6.2-5.4,3.1,3.1,0,0,0,3-3.1c.1-1.4.2-4.3.2-4.3V65.2a10.9,10.9,0,0,0-.6-3.6,10.6,10.6,0,0,0-2.6-2.5h-3.5a66.2,66.2,0,0,0,7.3-7.3,71.9,71.9,0,0,0,5.5-8.5,39,39,0,0,0,3.8,4.9,39,39,0,0,0,4.9,3.8,82.2,82.2,0,0,0,7.2-4.4,66.6,66.6,0,0,0,6.7-6.3,91.5,91.5,0,0,0,6.9,7.7c3.6,3.4,9.9,8.2,9.9,8.2a17.3,17.3,0,0,0-2.1,3.3,17.4,17.4,0,0,0-.4,3.8s.2,5.5.2,9S705,84,705,84l1,3.6,4.5-2.1a82.1,82.1,0,0,0-7,7.4,88,88,0,0,0-4.8,7.6,45,45,0,0,0-4.9-7.4c-2.1-2.3-6.5-4.2-6.5-4.2a9.7,9.7,0,0,0,2.6-2.1,13.6,13.6,0,0,0,1-2.4v-23l-7.2-7.3-6.9,4s-.5,9.2-.4,15.2.8,14.9.8,14.9l4.9-1.5a89.9,89.9,0,0,0-6.8,6.7c-2.3,2.6-5.5,7.1-5.5,7.1Z"
    transform="translate(0 0)" fill="#270600"/>
  <polygon points="332.1 38.3 345.1 27.8 340.1 19.3 332.6 24.2 337.3 31.6 332.1 38.3 332.1 38.3" fill="#270600"/>
  <polygon points="355.2 38.3 368.3 27.8 363.2 19.3 355.8 24.2 360.4 31.6 355.2 38.3 355.2 38.3" fill="#270600"/>
  <path
    d="M133.4,61.9,130,57.3l13.3-10.4L130.4,31.1l3-2.9-3.7-5.3h-2.2l2.1,3.2L115.4,38.9,128.8,55l-1.9,1.5,3.1,4.3,3.4,1.1Z"
    transform="translate(0 0)" fill="#270600" stroke="#270600" stroke-miterlimit="3.86" stroke-width="2.41"/>
  <g clip-path="url(#a)">
    <path d="M12.5,1.9s-12,0-12,12V97.6s0,12,12,12h49s12,0,12-12V13.9s0-12-12-12Z" transform="translate(0 0)"
          fill="#ffec00"/>
    <path d="M12.5,1.9s-12,0-12,12V97.6s0,12,12,12h49s12,0,12-12V13.9s0-12-12-12Z" transform="translate(0 0)"
          fill="none" stroke="#1d1d1b"/>
  </g>
  <path
    d="M8.1,37.6l57.6.5L66,91.7a14.4,14.4,0,0,1-.7,4.5,11.1,11.1,0,0,1-3.2,3.7c-.6.4-4.5,1.6-5.5,2s-10.5,1.3-10.5,1.3-3.1.1-4,.6a9.2,9.2,0,0,0-2.8,1.9,22.2,22.2,0,0,1-2.3,1.8,16.9,16.9,0,0,0-2.5-2,10.2,10.2,0,0,0-3.4-1.8,39,39,0,0,0-6.3-1.3l-6.7-.4s-3.6-.6-4.8-1.4-2.9-1.7-3.6-2.9a9.8,9.8,0,0,1-1.4-3.8"
    transform="translate(0 0)" fill="#fff"/>
  <path
    d="M47.3,51.4l-.9,1.5c.4.3.4.6.9.1s1.3.3,1,1.2c-1.9.4-.5,3.5-3,3.4-.3-.4-.7.1-1,.2s1.8,1.3,3,1.3,3.9-1,6.1-.9,4.2-.2,5.7.8,1,.5,1.4.7a5,5,0,0,1,.6,3.4c-.7.9-1.6,2-2.8,2s-.2.6-.1,1c-.4,3.5,1,6.7.4,10.2a5.7,5.7,0,0,1,0,2.6c.6,1.2,1,2.6,1.6,3.9-1.1,2.2,1.1,6-1.9,7.2a1.6,1.6,0,0,0-.4,1.2c-.4,1.1-1.8.7-2.7.7a.5.5,0,0,1-.2-.8c.5-.4.5-1,.9-1.4,2.4-1.1,1.4-4.2,1.5-6.2s-1.2-2.7-2-4-.7,1.1-1.1,1.8.8,2.1.5,3.5-1.9,3.6-2.8,5.4-2.1,1.5-2.4,3.1h-.3c.2-.6-.6-.3-.4-.8a.6.6,0,0,0-.9.5c.4.1.6.5,1,.6a4.9,4.9,0,0,1-2.1.3,1.1,1.1,0,0,1-.5-1.1c.8-2.3,3.2-2.9,4.4-4.8a17.5,17.5,0,0,1,1.1-2.4c-.3-.7-.1-1.6-.8-2.1s-.3-.5-.5-.7-1.1-1.3-1.1-2.2L48.2,79a11.1,11.1,0,0,1-4.3,1.9c-1.3-.3-2.2,2.2-3.5.6-1.8-.1-3.2,1.4-5,.6s-2.3-1.1-3.1.1-.4,3.2-.4,4.9a15.5,15.5,0,0,0-.5,2.3c-1.1,1.2-1.4,2.8-1.9,4.2s-2.1,1-3.1.2,3-2.6,2.6-4.9.1-5.2-1.8-7.1-2.2.1-3.1.6a2.6,2.6,0,0,0-.3,2.9c-.1,1.3-.4,2.5.5,3.4s-.8.9-.9,1.5-.3,1.1-1,1.3-.8-.6-.9-1.2-.3-2.2-.2-3.5-1.4-3.6-.5-5.5,2.7-1.4,3-3.1a3.3,3.3,0,0,0-.5-2.9c-.6-1.3-2.1-1.7-2.2-3.2-2.2-1.1-3.5-3.8-6.4-3.1-.5.7-1.5.3-2.1.3s-1.4-.6-1.4-1.3-.4-1.2-.1-2,4.4-3.2,3.2-5.7-.4-2.9-1.1-4.2-.9-.6-.9-1.1,1.3-.2,1.8-.2,1.6,1.4,2.5,2.3,3.5-.4,4.8.4A7,7,0,0,1,25.9,55c.1,0,.2.2.2.4s-1.8,1.1-1.9,2.2-.5.7-.4,1.2,2.1.3,2.6,1.2a2.4,2.4,0,0,0-.2.8c1.7,1.6,4.2.4,6.1,1.3a13.4,13.4,0,0,0,4.9,1c4.8-.1,9.9,1.1,14.4-.4,1.6,0,3.5-.4,4.7.7s1.3-.3,1.9-.6.7-1.3.3-1.9-2.9-.8-4.5-.8-4.1.8-6.2.8a6.1,6.1,0,0,1-6-3.3c-.6-1.9.8-3.2,2-4.2s.4-2.6,1.5-3.1,3.1.1,3.8,1.4-.7-.3-1.1-.3Z"
    transform="translate(0 0)" fill="#1d1d1b"/>
  <path
    d="M57.7,71.4c-.1,2-.2,4.3-.2,6.3s.7,2,1.1,3,.6,2,.9,3.1a16.3,16.3,0,0,1-1.2,5.4c-1.2.4-.9,2.5-2.3,1.9.1-1.1,1.2-1.2,1.8-2.2a9,9,0,0,0,.2-4.6c.5-1.8-.8-2.8-1.2-4.2l-.4-.2c.5-1.3-1.8-2.4,0-3.6.1-.3-.3-.5-.4-.7s.5-3.1,1.7-4.2Z"
    transform="translate(0 0)" fill="#e20613"/>
  <path
    d="M46.5,51.6l.5-.4a.4.4,0,0,0-.4-.4,2.4,2.4,0,0,0-1.8.5c-.8,1.3,0,3.4-2.2,4-.1,1.2-.6,3,.7,3.8s5.9,1.4,8.6.6c.6.4,1.2-.5,2-.3a9.5,9.5,0,0,1,4.5.8,1.7,1.7,0,0,1,.7,2.1c-.1,1.2-1.3,1.3-2.3,1.6s-1.2-.3-1.8-.4-1.5-.6-2.2-.3-1,0-1.5.1a36.3,36.3,0,0,1-11.4.4c-.8-.4-1.8.3-2.7-.2s-3.8-.7-5.7-1.1c-.4.2-1.1-.1-1.6-.1a12,12,0,0,0-2.8-.3,7.2,7.2,0,0,1-2.4,2.5c.2.7-.5,1-.5,1.5s1.4,1.6,1.8,2.6-.6-.1-1,.1c0-1.4-3.3-2-1.1-3.4-.1-.2-.4-.4-.5-.7s-.7,0-1,.5l-1.1-.4c-.1-.5.3-1-.3-1.4s-.7.9-1.3.9,0-.5-.3-.6-.8,1.3-1.5.9-.4.1-.7.1a2.1,2.1,0,0,1,.8-1.7c.5.3,1-.9,1.8-.4s.9,0,1.3.4c.6-1.2-1-1.8-.5-3s-.5-.1-.4-.5,1.3-.3.9-1.3-2.8-.2-4.3-.5,0,.3-.1.6-.9-1.1-1.4-1.6-.6-1.2-1.4-1.2.2.9.1,1.5a5.2,5.2,0,0,0,1.1,2.9h.5c-.7.4,0,1.2-.6,1.7s-1.3,2.5-2.2,3.4-1.9,1.6-1.3,2.9a1.7,1.7,0,0,0,1.1,1.1c.6,0,.8-.5.7-1.1s0-.3.2-.3.9,1.1,1.8.8.5-1.3,1.1-1-1.3,1.2-.2,1.6,4.2-.3,5.8-1.9.3.3.6.5a2,2,0,0,0-.2,1.1h-.3c-.3.2-.1.4-.1.7s.4.7.7,1-.4.7-.7,1-.5.2-.6.4.9,2.3,2,2.6a4.8,4.8,0,0,1,.9,3.7l.3.4c-.8.6-1,2.2-2.3,2.3-2.6,1.6-.3,4.3-.4,6.4s0,2.1.9,2.8.9,0,.8-.5a13.4,13.4,0,0,1-.8-5.3c-.4-.4-.9-.6-.7-1.3a18.4,18.4,0,0,1,3.8-1.7c.1-.3.4-.5.2-.8a9.2,9.2,0,0,0-1.4-1.4c.3-.3.4-.9.9-.8s-.1-1.1-.2-1.7a12.3,12.3,0,0,0-.7-3.2v-.3c.8-.3.7.8.9,1.3s.6,3.2.9,4.8,1.1.5,1.1,1.3,0,.8,0,1.2,1.1.7.9,1.5.6.4.6.9-.5,2.9.5,4.2-.3,3.2-1.8,4.2a.6.6,0,0,0,.3.5h1.1a15.6,15.6,0,0,0,2.2-7,15.5,15.5,0,0,1,1.5-5.8c-.1-.3.2-.5.1-.8s-1.1.4-1.7.2.9-.4,1.2-.9v-.9H33c-.1.1.1.2.2.3s.3-1.7.2-2.7-.1-.4.2-.5.3.6.6.7c.3,1.9-1.1,4.2.7,5.7.4-.3.5.6,1,.2l-1.3-1.3c1.4.6,2.3,2.6,4.4,1.7a.5.5,0,0,0-.4-.8,8.9,8.9,0,0,1-2.3-.1c-.8-.3-1-1.1-1.5-1.6s1.1,1.8,1.9,1.3l-1.2-1.2c.8.5,1.4,1.4,2.2,1.5l-1.2-1.4c.6,0,1.1,1.7,2,1.2s.9.5,1,.9,1.9-1,2.9-.4,3.8-.8,5.3-2.2c-.1-1.6-1.5-2.6-1.9-4.1s-.1-.6.3-.6a6,6,0,0,0,1.6,2.3c1.7,2.6,2.7,5.5,4.6,8s-.5,2.1-.6,3.2-2.5,2.6-3.6,4,.7.3,1,.6,1.3-.5,1.9-.9.9-2.6,1.6-3.8,2.2-2.9.7-4.2c.2-2.1,1.9-3.6,1.3-6.1.5-.1.4-.7.9-.9s.3-1.2.4-1.8a27,27,0,0,0,1-5.8,6.1,6.1,0,0,0,.8-3c-.1-.2-.5-.4-.3-.8a3.7,3.7,0,0,0,3.4-2.3c-.2-1.2-.4-2.6-1.7-3.1-5-2.6-10.1,1.7-15-.6-.3-.4-.8-1-.4-1.6s.6.5.9-.1,1.7-.1,2-1,1-1.5.9-2.7-1,0-1.4.2-.3,1.9-1.1,2.1a16.6,16.6,0,0,0,.6-2.1c-.5-.4.1-.8,0-1.2h.2l.7-.7Z"
    transform="translate(0 0)" fill="#e20613"/>
  <path
    d="M23,58.4c.1.8-.5,1.5-1,2.2s.2.2.2.2l.5-.2c.1.3.1.6.4.6s.4-.3.7-.4-.6-.3-.7-.6.4-.6.7-.8,1.4-.5,1.7.4-3.2,2-2.5,4.3c-.2.5-.8,0-1,.5s0-1.1,0-1.6-.3-1.4-.1-2.2a2.8,2.8,0,0,1-.5-1.6c.5-1,1.1-2.4,2.3-2.8a6,6,0,0,1-.7,2Z"
    transform="translate(0 0)" fill="#1d1d1b"/>
  <path d="M19.3,59.2H15.7c.1-.4.8-.1,1-.5s2.1-.2,2.6.5Z" transform="translate(0 0)" fill="#1d1d1b"/>
  <path d="M17,64.5a1.6,1.6,0,0,1-.5.9c-.2,0-.4,0-.5-.2a1.1,1.1,0,0,1,.6-.9c.2-.1.2.1.4.2Z" transform="translate(0 0)"
        fill="#1d1d1b"/>
  <path d="M34.1,64.5c-.1.4-.6.3-.9.1v-.3c.4-.2.6.2.9.2Z" transform="translate(0 0)" fill="#1d1d1b"/>
  <path d="M49.4,66.6c.2.4-.3.7-.5.9l-.6-.6c.1-.3.5-.4.5-.8s.6.1.6.5Z" transform="translate(0 0)" fill="#1d1d1b"/>
  <path d="M41.1,68.3c-.1.3-.2.7-.5.7s-.9-.9-.6-1.5.7.7,1.1.8Z" transform="translate(0 0)" fill="#1d1d1b"/>
  <path d="M48.4,68c-.2.1-.1-.1-.2-.3v-.2c.2.1.1.4.1.5Z" transform="translate(0 0)" fill="#1d1d1b"/>
  <path d="M28.6,67.7a.8.8,0,0,1-.7,1.3c-.1-.3,0-.7-.1-1.1a1.1,1.1,0,0,0,.8-.2Z" transform="translate(0 0)"
        fill="#1d1d1b"/>
  <path d="M36.3,69.7c.2.2.1.5,0,.7s-.5-1.3-1.3-1.8v-.5c1,0,.9,1,1.3,1.6Z" transform="translate(0 0)" fill="#1d1d1b"/>
  <path d="M39.1,69.1v1.2H39l-1.1-2.1c.7-.1.5.9,1.2.9Z" transform="translate(0 0)" fill="#1d1d1b"/>
  <path d="M47.8,69.1c-.6.3-1.1-.1-1.5-.3h.1c.5.5,1.3-.6,1.4.4Z" transform="translate(0 0)" fill="#1d1d1b"/>
  <path d="M21.1,69.3h-.4c-.1-.3.3,0,.4-.2s0,.1,0,.2Z" transform="translate(0 0)" fill="#1d1d1b"/>
  <path d="M33.5,70c.3.9-.9,1.1-.8,1.9h-.1V70.6c.6-.2-.1-.5,0-.9a1.2,1.2,0,0,1,.6-.6l.3.9Z" transform="translate(0 0)"
        fill="#1d1d1b"/>
  <path d="M47.9,73.3c-.3.4.5.7,0,1.1s-.7-1,0-1.1Z" transform="translate(0 0)" fill="#1d1d1b"/>
  <polygon points="45.3 75.8 45.4 75.8 45.4 76.1 45.3 76.1 45.3 75.8 45.3 75.8" fill="#1d1d1b"/>
  <path d="M42.5,77.5l.8-1.6c0,.5-.1,1.4-.8,1.6Z" transform="translate(0 0)" fill="#1d1d1b"/>
  <path d="M44.2,76.9l.4-.9c.4.3-.4.6-.4.9Z" transform="translate(0 0)" fill="#1d1d1b"/>
  <path d="M42.3,76.8l-.2.2c.3-.4-.5-.4-.1-.8s.6.3.3.6Z" transform="translate(0 0)" fill="#1d1d1b"/>
  <path d="M42.9,78.2h-.2a7.5,7.5,0,0,0,1-2,5,5,0,0,1-.8,2Z" transform="translate(0 0)" fill="#1d1d1b"/>
  <path d="M43.5,79.3c.1-.6.6-.7.9-1.1l.7-1.5a4.3,4.3,0,0,1-1.6,2.6Z" transform="translate(0 0)" fill="#1d1d1b"/>
  <path d="M46,77.5a.5.5,0,0,1,.2-.7.7.7,0,0,1-.2.7Z" transform="translate(0 0)" fill="#1d1d1b"/>
  <path d="M43.5,78c-.2-.2.1-.5.3-.6s0,.5-.3.6Z" transform="translate(0 0)" fill="#1d1d1b"/>
  <path d="M45.3,78.6h-.1l.5-.9c.1.3-.2.7-.4.9Z" transform="translate(0 0)" fill="#1d1d1b"/>
  <path d="M43.4,78.2a.7.7,0,0,1-.1.5c-.3,0-.1-.5.1-.5Z" transform="translate(0 0)" fill="#1d1d1b"/>
  <polygon points="35.4 79 35.3 78.7 35.4 78.7 35.4 79 35.4 79" fill="#1d1d1b"/>
  <path d="M45,78.9a5.2,5.2,0,0,0-1.1,1c0-.3.6-.9,1.1-1Z" transform="translate(0 0)" fill="#1d1d1b"/>
  <path d="M37.7,79.8c-.2.1-.3-.2-.3-.5s.2.3.3.5Z" transform="translate(0 0)" fill="#1d1d1b"/>
  <path d="M54,83.4h-.1l-.2-.2Z" transform="translate(0 0)" fill="#1d1d1b"/>
  <path
    d="M39,2.2a2.6,2.6,0,0,1,.8,2.4,8.6,8.6,0,0,1-1.3,2c.7.9-.2,2.7,1.3,3.1,3-.3,6,.8,8.8,1.2a6.9,6.9,0,0,1,2.2,1.7c.3-.3-.1-.9.3-1.2s.6-2,1-3l-1-1.5c.1-.9-.2-1.9.6-2.5a3,3,0,0,1,2.6-.7c.6.5,1.5.9,1.7,1.7s-1.3,2.7-2.2,3.9-.8,2.9.6,3.6,2.1-.3,2.7.7,2.6.5,3.6,1.5.9,2.4,1.9,3.3H63a24.2,24.2,0,0,1,3-3.5c.4-1.4-1-3.5,1-4.4a3.4,3.4,0,0,1,3.1.1c.7.4.6,1.2.8,1.9s-.2,2-1.3,2.4-2.5-.1-2.4,1.5-1.8,1.9-1.5,3.3-1.3.9-1.9,1.5,0,3.3-1.9,4,.1,3.2-1.8,3.4c-.3.9.5,1.5.2,2.5a1.6,1.6,0,0,0-.9,1.9,2,2,0,0,1,.3,1.1c-.6.9-2.6.7-1.9,2.3s3.9.6,5.5,1.3-46.8-.5-46.8-.5-.4-1.7.3-2.3-2.4-1-1.7-2.3.5-.5.2-.9-1.1-1.6-1.2-2.5.8-.8.5-1.2a5,5,0,0,0-1.7-1.1c-.9-.4-.4-1.6-.7-2.4l-1.6-1.1a3.3,3.3,0,0,0-.8-2.7c-.3-.8-2.1-.7-1.7-2.1S6.9,15,4.8,15.3c-.6.2-.9-.5-1.3-.9A3.4,3.4,0,0,1,4,11.2a2.4,2.4,0,0,1,2.8-.5c1,.1,1.1,1.2,1.5,1.9s-.6,1.4-.2,2.2l3.7,3.6c.9-.3,1.3-1.4,1.5-2.3s.9-1.8,2-2.1,2.6-1.3,4.2-1.1.6-2.3.8-3.4S18.4,8.6,18,7.7s-.6-2,.1-2.8,1.8-.9,2.8-1.2,1.3.7,1.8,1.4.6,2.9-.9,3.5c.2.7.9,1.1,1.2,1.7s.4,1.6,1.3,1.7,3.9-2.3,6.3-2.3a5,5,0,0,0,2.1-.1,23.6,23.6,0,0,1,2.8.4c1-.6.8-2.1,1-3.2s-2.1-2.1-1.7-3.6,2.3-1.4,3.8-1.3l.4.3Z"
    transform="translate(0 0)" fill="#1d1d1b" stroke="#1d1d1b" stroke-width="0.47"/>
  <path d="M38.5,2.9c.3.2.1.7.2,1.1s-.2,1-1,.9.1.6-.3.8-.9.5-1.3,0S34.8,4.2,35.2,3s1.5-.9,2.3-1.1.4.9,1,1Z"
        transform="translate(0 0)" fill="#fff"/>
  <path d="M54.5,4.5a4.9,4.9,0,0,1,0,2.4c-.8,0-1.3,1.4-2.1.5a2.3,2.3,0,0,1-1-1.6A2,2,0,0,1,52.8,4c.5.1,1.5-.4,1.7.5Z"
        transform="translate(0 0)" fill="#fff"/>
  <path d="M21.2,4.4c.8.8.2,1.9.5,2.9l-.6.2c0,.4.5.8.2,1.1s-1-.9-1.7-.4-1.3-1.6-1.7-2.6,2.1-2,3.3-1.2Z"
        transform="translate(0 0)" fill="#fff"/>
  <path
    d="M38.5,7.9c-.2,1.4.7,2.5.6,3.9s.6,3.6,1.5,5.1c1-.4.9,1.2,1.7,1.6a.9.9,0,0,1-.1,1c-.7-.3-.9-2.5-1.9-1.2.6,1,.7,2.1,1.3,3.1s.6-1.2,1.4-1.4,1.4.5,1.1,1.2S44,22.8,42.9,23a.4.4,0,0,0-.1-.5c-.2,0-.3.2-.4.3a1.6,1.6,0,0,0-.8-.8c-.1,0,0,.2,0,.3s-.2,1.4.6,1.5.9-.8,1.1-.2-.2.6-.3.9-1.6.3-1.7-.6-.2-.2-.4-.2-.1.6.1.8c-2.5.2-4.9.1-7.5.1-.1-.8.6-1.4.8-2.1s.5-2.9.5-4.4.3-1.2.5-1.8,1.1-2.7.9-4.3a10.1,10.1,0,0,0,.7-3c.1-.3-.1-.6.2-.7s.3.5.6.8-.3.9.2,1.2a.5.5,0,0,0,.5-.3,13.5,13.5,0,0,1-.6-3.4c.3.3.4.9.7,1.3Z"
    transform="translate(0 0)" fill="#fff"/>
  <path
    d="M53.4,8.7c.1,1.9-.8,3.6-.2,5.4s.1,1,.1,1.5h.8c-.1-.3-.6-.7-.3-1s1,1.1,1.5.2l.2-.3c-.6-.5-2.3.1-1.8-1.3a5.9,5.9,0,0,1,2.3,0c1.4,1.7,5,.5,4.7,3.7-.1.4-1.2.3-.7,1h.3a.4.4,0,0,0,.1-.3c.4-.1.5.3.6.5a.5.5,0,0,1-.3.6,8.9,8.9,0,0,1-2-.6c-.2-.8,1.7-1.3.7-2.2s-1.2-1.3-1.9-.5.1.6.2.9l.6-.3c0,.5.1,1-.4,1.2l-.3-.6c-.1.2-.2.2-.4.2s.1-1.1-.1-1.6.1,2.2-1.3,2,0,1.1-.1,1.8l-.9,1.8c-.9-.9-.4-2.4-.7-3.5s-.8,0-.8-.5a1.7,1.7,0,0,0-.1-1,4.8,4.8,0,0,0-.1,2.9c-.2.6-.1,1.2-.3,1.9a19.7,19.7,0,0,0,0,4.2c.6.3.2,1.1.8,1.5h-1c-.3-1-1.1.2-1.5-.7,1.7,0,.5-2.3,1-3.3s.6-1.5,0-2.1.4-3.1.3-4.5a1.5,1.5,0,0,1-.3-.7l.3-.2c-.4-.1-.6-.7-1-.6s.5.7.4,1.2.6,1.1.1,1.7-.8-.1-1,.2a2.6,2.6,0,0,1,.4,1.5c-.5.6-1.5-.1-1.5,1a.8.8,0,0,0,.3.8c.4,0,.9-1.3,1.5-.4s-.1.8,0,1.3a8.6,8.6,0,0,1-.2,2.3c.4.3.1.8-.3.9s.5.2.4.5-1-.2-1.5,0,.7-.8.1-1.4l-.4.2a1.1,1.1,0,0,1,.4-1c0,.3.1.7.4.8s.4.1.5,0-.1-.6,0-.9-.3-2.2-1.6-1.1.4,1.5-.6,1.9l-.3-.8c-.8.3.2.9.1,1.5s.3.5.4.8a7.8,7.8,0,0,1-3.4-.3A5.7,5.7,0,0,1,47,22.5c.3-1.3,1.1-2.5,1.3-3.8s1-2.3,1.8-3.2.3.4.7.3-.3-1.2-.3-1.9l-.6.5a2.2,2.2,0,0,1,.5-1.7h.1v.9c.7-.3.7-2.2,1.8-1.3-.5.6.1,1.4,0,2.2,0-2,.4-3.8.4-5.8l.3-.3.3.3Z"
    transform="translate(0 0)" fill="#fff"/>
  <path
    d="M21.2,10.9c.3-.4.9,0,.9-.6s.8,1.2,1.2,1.9.5,1,.8,1.4a25.3,25.3,0,0,0,1.8,3.7A12.8,12.8,0,0,0,27,20a3.7,3.7,0,0,0,.9,1.6c.1-.5.7-.9,1-1.3a2.2,2.2,0,0,1-2.1-2c.3-.7-.3-1.8.5-2.4s.3,1.2.9,1.5-1.4-2,.4-2-.2,2.3.6,3.1V19h-.6c.7.3.1,1.3,1,1.3l.5-.9c.2.5,0,1,.2,1.6s-.1,1.7-1.3,1.7l-.9-1a2.1,2.1,0,0,0,1.2,2c.4-.1.7-.3,1.1-.2a2.9,2.9,0,0,1,.1,1.3c-1.2.9-1.5-1.4-2.5-.3s-.8-.1-1,.1.3,1.2,1,.7,0-.4.3-.4,0,.2-.1.3,1,0,1.5-.2,2.9-.4,4.3,0l3.9-.2c.6.4,1.3-.3,1.9.2a15.8,15.8,0,0,1,5.4.4c1.4-.2,2.6.7,3.9.5a23.3,23.3,0,0,1,3.8.8c.6-.1,1,.4,1.6.3s-.7-.8,0-1.1a7.6,7.6,0,0,0,1.5.1c1.2-.7-.6-2,1.2-2.3s-1,.7-.4,1.3,1.1-1.4,1.9-1.7c0,1.3-1.6,2.2-2.2,3.3s.7-.7,1.1-1h.8c-.4-.4.2-.8.6-.9s0-.3.2-.5.6.3.7-.1v-.4c.3-.1.6.4.8,0l-.3-.4h.1c.4.3.8.7.8,1.1s-.8.3-.5.6v.2c-.4.2-1.1-.9-1.4-.2s1,.2.9.9h-.9c.2.3.2.8-.4.7s.9.6.2.9-.3.1-.4-.1-.8.2-1.4.2-1.5-1.2-2.5-.7,1.5.7,2.3,1,1.2.6,2,.4.7.5.3.9-3.6-.9-5.4-1-1.4-.1-1.9-.6-.4.2-.7.2c2.3.7,4.4,1.1,6.7,2v.2c-1.2.2-2.3-.5-3.5-.7s-1.5-.4-2.1-.8-2.3.1-3.2-.7a27.2,27.2,0,0,0-3-.4l-.3.2a4.2,4.2,0,0,0,1.2.3c1,.2,2.2-.1,2.7,1.1s-.2.4-.4.2-.8-.7-1.4-.8-.6,0-.7.4,1.3.9,2.2.8.5.8.3,1.3-1.5-2.1-2.6-.8l-.8-.2c-.2-.3.5-.6-.1-.8s-.8.8-1.3.2-.8-.4-.9-.8.5-.8.8-.9h.5c-1.2-.7-3.1,0-4.3-.6s-.1.1-.1.2.9,0,1.2.5-.5.6-.6,1-.9.2-1.3.5a3.8,3.8,0,0,0-1.7-.8c.6.4.1,1.2.6,1.6s-1,1.1-1.8,1-.1-.6.1-.9.8-.4,1.1-.7-.9.1-1-.4-.4-1.5.4-1.8,1.4.1,1.9-.2c-1.2.1-2-.1-3.3-.1s-.5.8-.7,1.2.8-.6,1,.1v1.1c-.7-.1-1.3.6-1.9,0s.9-.6.4-1-1,1.1-1.8.9-1.3-.5-1.7-1.4,1.4-.8,2.3-.7L34,27c-2.1-.2-4.1.5-6.1.6a1.8,1.8,0,0,0-1,.4c1.1.2,2.3-.6,3.5,0s-.9,1.2,0,1.6-.3.6-.5.7-.3-1.3-1.3-.9-1.7-2.2-3.5-1.3l-.4.2c-.1-.2-.3-.2-.2-.5s3.6-.2,5.1-1.1c-.4.1-.7-.5-1-.1s-.4,0-.7,0-2.9.9-4.6.8l-.2.3c0,.4,1.1.2.5.7a.7.7,0,0,0-.9.1v.2c.9.1,1.9-.4,2.9-.3s-.6,1-.9,1.5l.2.2c.7-.5.9-1.5,1.9-1s1.3.2,1.1,1l.4.2c-.1.8-1.1,1.3-1.6,2s-1.1-.4-1.5-.9a.7.7,0,0,1,.3-.6c-.4-.1-.8.2-1.1.3s-2.4-.7-2.3-2.3-.7.3-1.2.2l-5.5,1.5c-.1-.5.5-.4.6-.8l-.2-.3a.9.9,0,0,1-.7.3c-.4-.4-.5-.7-.3-1.1s.6-.2.6-.5a.6.6,0,0,1-.2-.8c-.7-.9-3.1-.4-2.3-2.3,1-.1.7,1.5,1.6.9s-.6-.5-.2-.8h.1l-.7-.3.3-.5h-.8c-.2-.2.2-.4.2-.7s-.9-1.3-1.8-1.4.2-1.1-.7-.9-.3-.1-.4-.3.5-.6.1-1-1-.1-1-.6a.6.6,0,0,1,.2-.7c.5,0,.7.9,1.3.5A9.5,9.5,0,0,0,9.1,17v-.5c.6-.3.5.6,1.1.8s1.9,2.8,3.5,3.4.8-1.2,1.5-.7h.1c-.2-.2-.5-.4-.4-.8s.1-1.5,1.5-1.7.6.1.8-.2.6-2.2-.7-2.4-2.3.1-1.9,1.4.5-.8,1-.5a1.4,1.4,0,0,1,.1,1.1c-.1,0-.4-.1-.5,0s.4.7.2,1-.7,0-.9.4.3.8,0,1.1-.5,1.6-1.4.6.5-2.5.3-4,.7-1.6,1.7-1.8,3.2-1.3,4.9-1.4c.1,1.7.7,3.6,0,5.3a1.7,1.7,0,0,0-1.5-1.3c-.2.2-.6.3-.4.7s1,2,.9,3.1l-.4.2c-1-.7.2-2.4-1.3-2.6s-.8-.1-1,.5.5,2.1,1.3,2.8.4.4.5.7-.3.1-.5.1-.5-2.7-2.2-2.6c.1.3.5.4.2.7s-.4,0-.5,0,0,1.1-.8,1.1l.2,1.1c-.8-.9-1.8-1.3-2.4-2.2s0,.6-.3.7,1.2,0,.8.6-.2.1-.3.3,1.4-.1.7.7c.8-.2,1,.6,1.6,1s1.2.4.7,1.2-.2.8.7.8.2.1.2.3l-.8.5h.9v.2c-.3.1-.6-.1-.7.3s1.5-.4,2.1-.2V27a9.5,9.5,0,0,1-2.1.9c.3.5.8-.2,1.3-.1s.8-.2,1.3-.4,2.4-.3,3.5-.9a14.5,14.5,0,0,0,3-.4c.4-.4,1-.3,1.3-.4s-.7-1.1-.3-1.6l.5-.9c.9-.1.8,1.4,1.5.4s-.4-1.9-1-2.8-1.2-2.1-1.4-3.3-2-2.8-2.2-4.5-.9-.8-.4-1.4h0c-.4,0-.5-.5-.8-.7s.1.5-.2.6h-.6c-.2.3-.1.7-.4,1l-.3-3.1h.3c1,.5-.6,1.2.4,1.8Z"
    transform="translate(0 0)" fill="#fff"/>
  <path
    d="M35.3,10.1l.3.8c.4-.2.2-.8.4-1.1l.2.2c-.3,1.1-.2,2.4-.7,3.4s-.9-.1-.7.6,0,1.4.3,2.2-.1,1.8-.8,2.6-.5,3-1.1,4.6a7.6,7.6,0,0,1-1.1,1.4,1.1,1.1,0,0,1-.9-.5c0-.2-.1-.7.1-.9s1,.6,1.2-.1-.6-.9-.7-1.5.1-1.1-.3-1.5.5-.3.6-.6.4-2.1,1.5-2.5-.1,1.1.3,1.3a23.8,23.8,0,0,1,.5-2.6,3,3,0,0,0-1-1.9c-.6-1.2-2.6.8-2.2-1.2a1.3,1.3,0,0,0,.4-1.1,3.2,3.2,0,0,0-3-.2c-1.1.8.8,1.7-.3,2.4.6,1.1-.9,1.3-1.5,1.6s-.2,1-.9.9-.4-.8-.6-1.3.4-.4.2-.6-.7-.2-.9-.5a.6.6,0,0,1,.6-.8c-.5-.3-1-.3-1.1-1s1,.4,1.5.4a.8.8,0,0,0,.4.4l.3-.2c-.1-.4-.8-.5-.5-1s2.8-1.7,4.3-1.8,3.6-.7,5.2.1Z"
    transform="translate(0 0)" fill="#fff"/>
  <path
    d="M43.5,10.2c2.3.5,4.9-.3,6.3,2-.6.1-.4.7-.1.9a.6.6,0,0,1-.7,0c0-.2-.1-.2-.2-.3h-.1c.1.7.8,1.6.3,2.5l-.4.5h.5c.3.7-.3,1-.5,1.5s-.5,0-.8-.1,1.1-.4.9-1.3-.6-1.6-1.7-1.7-.7.3-1,.1a.6.6,0,0,1-.3-.6c.6-.2.6-.9.9-1.3s-.9-.4-1.2-1a1.9,1.9,0,0,0-1.9.3c.4.1.9.5,1.4.2s.2.6.5.8a2.1,2.1,0,0,1-.8,1.6c-1.1.3-.4-1.1-.9-1.4s-.4.6-.6.9a2.4,2.4,0,0,0-1.2,0c-.1.3.4.6-.1.8h-.5c-.4-1.5,1.6-2.3.2-3.6a1.1,1.1,0,0,1-1.5.6c-.3-.1-.5-.4-.7-.6-.5-2.2,2.1-1,3-1.2l1.2.4Z"
    transform="translate(0 0)" fill="#fff"/>
  <path d="M69.7,11.5c.5,1.2-.8,1.9-1.4,2.8s-.7.5-1.2.3a3,3,0,0,1-.8-2.8,2.2,2.2,0,0,1,1.5-1.3,3.2,3.2,0,0,1,1.9,1Z"
        transform="translate(0 0)" fill="#fff"/>
  <path d="M6.4,11.1c-.2.6.9.7.6,1.4s-.4-.5-.8-.2.7,1.7,0,2.3-.9-.1-1.4-.2-.5-2-.3-3,1.5-1,1.9-.3Z"
        transform="translate(0 0)" fill="#fff"/>
  <path
    d="M38.5,11.5a.8.8,0,0,1-.1.9l.5.8c-1.3.7-.8-1.9-1.8-.4a1.1,1.1,0,0,0,.4,1.1c.5-.1,1.1.1,1.4-.2a4.6,4.6,0,0,1,.6,2.6c-.2.1-.4,0-.6-.2s-.2-1.2-.3-1.7a1.5,1.5,0,0,1-1.8-.9c-.1-.7.5-1.1.7-1.7s.7-.3,1-.3Z"
    transform="translate(0 0)" fill="#1d1d1b"/>
  <path
    d="M23.2,14.2c-.6.5.2,1.7-.8,2s1,.2,1.4.6.8.2.9.6,1.1,1.3-.2,1.1-.3-.7-.9-.5-.5,1.1.3,1.3.4-.1.6-.3h1.1c0,.7,1.2,1.2.3,1.8s.8.2.7.7l-.9.4c.3.6,1.5-.3,1.4.7s-1.4-.4-2.1-.5-.6-.7-1-.7-.2.8-.4,1.2.7-.4,1.1-.2a.9.9,0,0,1,.3.5c-.2.2-.3-.2-.5-.2s0,1.1-.7,1l-.3-.5a.5.5,0,0,0-.1.8c.5.6,2,.5,1.6,1.7s-2.2.7-3.3.4c.5-3.2-.2-6.6,0-9.9.1-.3.4-.1.7,0s-.6-.6-.9-.8-.7-2.7.4-3.8c1.1.6,0,2,1.3,2.6Z"
    transform="translate(0 0)" fill="#fff"/>
  <path d="M35.1,12.8c-.4-.1-.3-.6-.4-1h.6l-.2,1Z" transform="translate(0 0)" fill="#1d1d1b"/>
  <path d="M30.7,12.3c0,.6-.6.6-.9.8s-.2-.6-.2-.9,1-.6,1.1.1Z" transform="translate(0 0)" fill="#fff"/>
  <path d="M34,12.4s-.7,0-.5-.5a1.2,1.2,0,0,1,.5.5Z" transform="translate(0 0)" fill="#1d1d1b"/>
  <path d="M41.2,12.7c-.6.3.1,1.5-1,1.3l.2-1.3Z" transform="translate(0 0)" fill="#fff"/>
  <path d="M33.8,13.3a.5.5,0,0,1-.5-.5h.1c.2.3.4.3.4.6Z" transform="translate(0 0)" fill="#1d1d1b"/>
  <path
    d="M21.2,14.8c.1.3-.2.6-.3,1,1.1,2.7.1,6.1.6,9.2-.2.5-.3,1.2-1,1.4s-.6.1-.6-.3.7-.3.9-.8a3.8,3.8,0,0,0-.1-2.1c-.6.3.2,1.5-.6,1.7s-.1-.4,0-.6-.6-1.7-1.3-2.4.7.6,1.3.6.3.3.5.2a2.5,2.5,0,0,0-.1-1.7l-.8.2c-.6-1.1.5-1.7.3-2.7s-.1,1.6.7,2V16.2c.6-.2,0-.6,0-.9V13.2c.4.3.2,1.1.5,1.6Z"
    transform="translate(0 0)" fill="#fff"/>
  <path d="M18.8,13.6h-.4c.1-.1.2-.2.4-.1Z" transform="translate(0 0)" fill="#1d1d1b"/>
  <path d="M48.4,13.6v-.1Z" transform="translate(0 0)" fill="#1d1d1b"/>
  <path
    d="M33.1,14.1c0,.4-.3.4-.5.5s.1,3-.6,4.3c-.9-.4-.2-1.8-.6-2.6a.9.9,0,0,1-.2-.9c.4-.2.5-1,1.1-.9s-.2-.7.4-.6l.4.2Z"
    transform="translate(0 0)" fill="#fff"/>
  <polygon points="26.9 14.8 27.3 14.3 27.2 14.5 26.9 14.8 26.9 14.8" fill="#1d1d1b"/>
  <path
    d="M30.4,14.8c.1.4-.4.4-.5.6a1.6,1.6,0,0,1,.6,1.5,11.7,11.7,0,0,1-.6,2c-1-1.1-.1-3-.8-4.2v-.4a1.1,1.1,0,0,1,1.2.5Z"
    transform="translate(0 0)" fill="#fff"/>
  <path
    d="M42,15.4c.2-.2.5-.6.9-.5s.5.8.6,1.2.4-.8,1-.5-1,2.3-.4,3.6a2.1,2.1,0,0,1-1.3.5c0-.5.3-1-.1-1.4s-.6-1.6-1.3-2.2-.6-.6-.9-1-.1-.5.1-.6.6,1.4,1.4.9Z"
    transform="translate(0 0)" fill="#fff"/>
  <path d="M45.8,14.7c.1.3-.1.5-.4.4s.1-.9.4-.4Z" transform="translate(0 0)" fill="#fff"/>
  <path d="M49.5,15.2c-.1,0-.2-.4.1-.5s-.1.3-.1.5Z" transform="translate(0 0)" fill="#fff"/>
  <path d="M47.2,15.1l-.5.3c.8.4.4,1.2.5,1.8a1.8,1.8,0,0,1-1.6.9c-.3-.1-.2-.4-.2-.7s-.4-2.5,1.1-2l.3-.6c.2,0,.3.2.4.3Z"
        transform="translate(0 0)" fill="#fff"/>
  <path d="M8.7,15.5c.1.3-.1.5-.4.4s-.7-.5-.4-1,.6.4.8.6Z" transform="translate(0 0)" fill="#fff"/>
  <path d="M23.9,16.2c-.1.1-.2.3-.4.2a1.1,1.1,0,0,1-.1-1.1h.1c.3.2.7.6.4,1Z" transform="translate(0 0)" fill="#fff"/>
  <path
    d="M39.8,17.8a.9.9,0,0,1,.4,1.1c-.4,0-.4-.4-.5-.6s-1-.5-1.5,0,.5.7.6.6-1.7-.5-2.2-1.1.3-1.6.7-2a1.5,1.5,0,0,1,1.1.3c.2.7.2,2.3,1.4,1.7Z"
    transform="translate(0 0)" fill="#1d1d1b"/>
  <path d="M8.4,16.5c-.3.7,1,.3.3.9s-1.2-.9-1.2-1.6.7.4.9.7Z" transform="translate(0 0)" fill="#fff"/>
  <path d="M43.3,17h-.1c-.2-.2.1-.5.2-.7s.2.6-.1.7Z" transform="translate(0 0)" fill="#1d1d1b"/>
  <polygon points="64.5 16.7 64.6 16.7 64.6 16.9 64.5 16.9 64.5 16.7 64.5 16.7" fill="#fff"/>
  <path d="M39.7,17.3c-.3,0-.1-.2-.2-.4a.5.5,0,0,1,.2.4Z" transform="translate(0 0)" fill="#1d1d1b"/>
  <path d="M55.3,17.1c0,.1-.1.2-.2.1h.2Z" transform="translate(0 0)" fill="#1d1d1b"/>
  <path d="M37.7,17.9c-.2.2-.5-.1-.7-.2s-.4-.3-.2-.5a1.3,1.3,0,0,1,.9.7Z" transform="translate(0 0)" fill="#fff"/>
  <path d="M28.6,18.9c-.5-.2-.8-.7-1.4-.8v-.5a1.8,1.8,0,0,1,1.5,1.3Z" transform="translate(0 0)" fill="#1d1d1b"/>
  <path d="M9.6,18q0,.2-.3.3H9v-.6c.2,0,.6,0,.6.3Z" transform="translate(0 0)" fill="#fff"/>
  <path d="M23.5,17.9c-.2.1-.5.1-.7.3s.4-.7.7-.3Z" transform="translate(0 0)" fill="#1d1d1b"/>
  <path
    d="M47.7,18.1A3.4,3.4,0,0,1,46,20.2l-.8-.6c-.2.2-.1.6-.5.6s-.1-.6-.1-.9a.5.5,0,0,1,.8.3,4.8,4.8,0,0,1,2.1-1.7l.2.2Z"
    transform="translate(0 0)" fill="#fff"/>
  <path
    d="M65.3,18.2c.2.5-.4.2-.5.4A12,12,0,0,0,63,21.2c-.4-.1-.7.3-.7.7s-.7.6-.6,1.1-.5.1-.8.1l-.2-.3c.4-.3.7-.9,1.1-1.2s.4-.7,0-1-.8,1.3-1.5.9,1.6-1.8,2.1-2.7l.6-.3c.2.7-.9,1-.9,1.8s.8-.6,1.3-.4a2,2,0,0,1,1.3-1.8c.2,0,.6-.2.6.1Z"
    transform="translate(0 0)" fill="#fff"/>
  <path d="M49.8,18.4c-.1.2-.1.7-.3.7s-.3-1,.3-.7Z" transform="translate(0 0)" fill="#1d1d1b"/>
  <path d="M14.1,19.3c-.1,0-.2,0-.2-.1v-.3c.2,0,.1.2.1.4Z" transform="translate(0 0)" fill="#1d1d1b"/>
  <path d="M33.5,19c.3.6-.2,1.1-.3,1.7a2.5,2.5,0,0,1-.1-1.7Z" transform="translate(0 0)" fill="#1d1d1b"/>
  <path d="M56.6,19.1c.3.7-.3,1.5.2,2.1s-.6,0-.9.1.4-1.4.4-2.2Z" transform="translate(0 0)" fill="#fff"/>
  <path d="M23.8,19.9c.2.1,0,.3,0,.4s-1.2-.6-1.3-1.1.8.7,1.3.7Z" transform="translate(0 0)" fill="#1d1d1b"/>
  <path d="M59.6,19.6h-.1v-.3c.2,0,.1.2.1.3Z" transform="translate(0 0)" fill="#fff"/>
  <path d="M59,19.9l-.6.2c.1.4.4.8,0,1.1a2,2,0,0,1-.8.4c-.5-.7,1.2-.8.2-1.5a.8.8,0,0,1,.4-.8c.4-.1.6.4.8.6Z"
        transform="translate(0 0)" fill="#fff"/>
  <path d="M40.7,22.2c-.4-.2-.4-1-1.1-1s-.5-1.3.5-1.5a2.6,2.6,0,0,1,.6,2.5Z" transform="translate(0 0)" fill="#1d1d1b"/>
  <path d="M46.8,21.6c-.4-.7.2-1.3.6-1.8h.1l-.7,1.8Z" transform="translate(0 0)" fill="#fff"/>
  <path d="M11.9,20.2c-.2,0-.4,0-.3-.3s.2.2.3.3Z" transform="translate(0 0)" fill="#1d1d1b"/>
  <path d="M38.9,21.2c-.4.4.3.5.4.8s-.7.5-.5,1-1.2,1.6-1.7.3-.7-.8-1.2-1,1-1.3,1.3-2.1.9,1.1,1.7,1Z"
        transform="translate(0 0)" fill="#1d1d1b"/>
  <path d="M53.9,20.8c.1.7-.5,1.1-.4,1.8a2.4,2.4,0,0,1-.2-1.9c0-.5.6-.2.6.1Z" transform="translate(0 0)" fill="#fff"/>
  <path d="M46,21.2c-.1.6-.1,1.6-.9,1.8s.5-1.1-.2-1.5.8-.8,1.1-.3Z" transform="translate(0 0)" fill="#fff"/>
  <path d="M51.2,21.2a.1.1,0,0,1-.1.1h.1Z" transform="translate(0 0)" fill="#1d1d1b"/>
  <path d="M37,21.5c.2.3-.1.9.2,1.2l.9-.7a1.3,1.3,0,0,1-.3,1.2h-.6c-.3-.4-1.1-1.5-.2-1.8Z" transform="translate(0 0)"
        fill="#fff"/>
  <path d="M16.1,22v.5a1,1,0,0,1-.8-.5c-.1-.6.8-.4.8,0Z" transform="translate(0 0)" fill="#fff"/>
  <path d="M59.4,22.4c0,.2.1.5-.2.6s-1.5,1-2,.1,1.8-2,2.2-.7Z" transform="translate(0 0)" fill="#fff"/>
  <path d="M31.3,22.8c-.5-.3-1.2.6-1.5-.2s.9-.1,1.4-.1.2.1.1.3Z" transform="translate(0 0)" fill="#fff"/>
  <path d="M55.7,22.6c-.4.3,0,1.4-1,1s.1-.9.3-1.3.5.2.7.3Z" transform="translate(0 0)" fill="#fff"/>
  <path d="M62.9,22.8a.8.8,0,0,1-.3.8c-.4,0-.4-.3-.5-.5s.4-.9.8-.3Z" transform="translate(0 0)" fill="#fff"/>
  <path d="M56.8,22.7c0,.1.1.3,0,.3s-.3.1-.3,0,.2-.5.3-.3Z" transform="translate(0 0)" fill="#fff"/>
  <path
    d="M18.6,23c0,.4-.4.5-.7.9h.2l.5-.2c0,.5.5,1,.1,1.5s-.3-.6-.6-.9-1,.2-1.1-.3-.4-.8.1-1a.7.7,0,0,1,.6.3c.2-.2.5-.9.9-.4Z"
    transform="translate(0 0)" fill="#fff"/>
  <path d="M41,23.3c-.2-.1-.5.1-.6-.2s.3-.4.6-.3v.5Z" transform="translate(0 0)" fill="#1d1d1b"/>
  <path d="M17.3,25a1.9,1.9,0,0,0,1,1c.3-.1.9-.4,1.1.2s0,.5-.2.5c-2,.3-2.9-2-3.9-3.2v-.4c.7.5,1,1.5,1.9,1.9Z"
        transform="translate(0 0)" fill="#fff"/>
  <path d="M54,23.9c.5.1.6.5.5,1s-.3.5-.6.4.3-.6-.1-.8l-.4.3c-.4-.3-.2-.8-.2-1.4s.6.1.8-.2-.4.4,0,.7Z"
        transform="translate(0 0)" fill="#fff"/>
  <path d="M45.8,23.3c.2.5-.5.9-.7,1.3s-1.2.1-1.6-.5.5-.5.7-.7.5.4.9.3.4-.5.7-.4Z" transform="translate(0 0)"
        fill="#fff"/>
  <path d="M19.3,24c0,.1-.1.2-.1.3s-.2-.1-.3-.2.6-.6.4-.1Z" transform="translate(0 0)" fill="#fff"/>
  <path d="M25.3,24.2h-.1v-.4c.2,0,.1.2.1.3Z" transform="translate(0 0)" fill="#fff"/>
  <path d="M15.3,25.6c-.1,0-.3.2-.6.1a.7.7,0,0,1,.6-.1Z" transform="translate(0 0)" fill="#1d1d1b"/>
  <path d="M59.1,26c0,.1-.2,0-.4.1v-.3c.2-.3.3.2.5.2Z" transform="translate(0 0)" fill="#1d1d1b"/>
  <path
    d="M41.2,26.4c.5-.6,1,.5,1.5,0a.3.3,0,0,1,.5.3,41,41,0,0,0-7-.2c-.6.4-1.2-.4-1.9-.1s1-.7,1.9-.3,1.6.1,2.3-.3,2-.1,2.7.6Z"
    transform="translate(0 0)" fill="#1d1d1b"/>
  <path d="M32.3,26.3c.1.2-.2.4-.3.5l-1-.3c.5.2,1-.6,1.3-.2Z" transform="translate(0 0)" fill="#1d1d1b"/>
  <path d="M34,26.4c-.2-.1-.7.1-.7-.2l.7.2Z" transform="translate(0 0)" fill="#1d1d1b"/>
  <path d="M44.7,26.7c.6-.7,1.1.5,1.7-.2s.5.2.6.5-1.1-.3-1.8,0-.7-.4-1.1-.3l.2-.3.4.3Z" transform="translate(0 0)"
        fill="#1d1d1b"/>
  <path d="M60.9,26.7a1,1,0,0,1-.4,1c-.2-.1-.6.1-.7-.2s.5-1.8,1.1-.8Z" transform="translate(0 0)" fill="#fff"/>
  <path d="M30.7,26.6c-.1.2-.3.1-.5.1s.3-.2.5-.1Z" transform="translate(0 0)" fill="#1d1d1b"/>
  <path d="M35.9,27.1c-.2.2-.5.1-.7.1s.4-.3.7-.2Z" transform="translate(0 0)" fill="#1d1d1b"/>
  <path d="M50.2,27.7c-.9.1-1.7-.5-2.6-.5.8.5,1.5-.6,2.4,0a.8.8,0,0,1,.2.5Z" transform="translate(0 0)" fill="#1d1d1b"/>
  <path d="M58.5,27.4a.5.5,0,0,1-.8-.2l.8.2Z" transform="translate(0 0)" fill="#1d1d1b"/>
  <path d="M51.2,27.8c-.2.1-.3,0-.4-.1l.2-.2c0,.1.2.2.2.3Z" transform="translate(0 0)" fill="#1d1d1b"/>
  <path d="M22.8,27.8c-.9.6-2.1.5-3.1.9s-2,.9-3.1.8a2.1,2.1,0,0,1,1.7-.8c.3-.3.6.1.9-.3s2.2-1.2,3.6-.7Z"
        transform="translate(0 0)" fill="#1d1d1b"/>
  <path d="M43.8,28.3c-.1.3-.1.6-.5.7h-.4a1.1,1.1,0,0,1,.4-1.2c.3-.1.4.3.5.5Z" transform="translate(0 0)" fill="#fff"/>
  <path d="M32,28.4c.1.3-.2.6-.5.7s-.4-.3-.7-.4.1-.8.5-.8.6.1.7.5Z" transform="translate(0 0)" fill="#fff"/>
  <path d="M43.1,29.7c-.8,1,1.7,1.8-.3,2.1s-.3-.8-.3-1.2.2-.1.1-.1-1.1-.1-1.4-.7.1-.8.5-.9a2.5,2.5,0,0,1,1.4.8Z"
        transform="translate(0 0)" fill="#fff"/>
  <path
    d="M33.3,29.6c0,.1.1.3-.1.4s1.9-.2,2.5.6,0-.2,0-.4,1-.1,1.4-.1.4.5.1.9-.5.2-.7,0-.1-.2-.3-.2.5.6,0,.8a8.1,8.1,0,0,0-3.1-.1c-.7-.5.2-.9.1-1.4s-.4.1-.6.2a1.1,1.1,0,0,1,.1-1.1c.3-.1.6,0,.6.4Z"
    transform="translate(0 0)" fill="#fff"/>
  <path
    d="M45,29.7c.3.3-.3.4-.2.7s1.4,1,2.2,1.1l-.6-1c.9.3,2.2.2,2.8,1s-1.7.3-2.1,1.2a16.5,16.5,0,0,0-3.2-.6,1.5,1.5,0,0,1,.4-1.3c.1-.1.3-.2.3-.3s-.7,0-.8-.4.2-.6.5-.7a.6.6,0,0,1,.7.3Z"
    transform="translate(0 0)" fill="#fff"/>
  <path
    d="M53.3,29.4c1,.3.2,1.5.9,1.9s.1.6.2,1-.5.6-.9.5-.2-1-.1-1.3.4-.2.5-.4-1.3-.4-1.8-1-.4,0-.4.2.4.4.5.8,1,1.3.7,2.2-.5.1-.8.1-.1-1.6-1-1.7.2-1.5-.4-2,.7-.2,1-.3,1.2.8,1.6,0Z"
    transform="translate(0 0)" fill="#fff"/>
  <path
    d="M21.5,30.5c0,.3-.4.3-.6.3l-.5-.5c-.3.2-.5.7-.8.5s-.9,1.3-1.2.3l-.6-.2c.3-.7,1.3-.2,1.4-1.1s1.2.8,1.9-.3.6.5.4,1Z"
    transform="translate(0 0)" fill="#fff"/>
  <path d="M27.7,30.1l-1.8.5h-.4a1.2,1.2,0,0,0,.8-1c.5.1.8.6,1.4.5Z" transform="translate(0 0)" fill="#1d1d1b"/>
  <path
    d="M42,31.4c0,.3-.3.5-.1.7s.5.3.9.2,2.9.8,4.5.6,2-.3,2.5.7-.9-.6-1.5,0-.9-.7-1.3-.1,2.4,0,3.3.8h.5v-.7c.4-.3.6.2.9.2s-.1.4-.3.6,1.7.2,2.4.6,1.2.8,1.5-.1.5.1.7.3v.2c-.1-.1-.2.1-.3.1s1.9.3,1.4,1.4-1.5.7-2.1,0-1.7-1.4-2.8-.9c-.5-1.1-1.4.2-2-.7s-.5-.2-.8-.3a2.5,2.5,0,0,1-2.1-.5c-.5.1-.9.3-1.3,0s-.9-.8-1.5-.1a3.3,3.3,0,0,0-2.2-.3l-.3-.2-.3.4c-.7-1.3-1.9.2-2.8-.5-.5.8-1-.6-1.5.3a2.8,2.8,0,0,0-2.5,0,.5.5,0,0,0-.5-.3.8.8,0,0,1-.8.3q-.3-.5-.6,0c-.9,0-1.8-.4-2.5.3l-.5-.2a7.8,7.8,0,0,0-3.1.5c-.8-.7-1.2.8-1.9.1s-1.4,1-2.4.7c-.3,1.3-1.2-.2-1.6.6a1.4,1.4,0,0,1-1.1-.5c-.1-.4.4-.5.6-.7a1.4,1.4,0,0,0-1.5,0c-.2.2-.4.3-.5.6s.7.2,1.2.4,0,.5-.3.6-1.1-.5-1.5.4-1-.5-1.2-1,.7-.9,1.1-1.1,1.7-1.1,2.9-.7,1.8-.2,2.5-.3.9.3,1.3.3l1.9-.5c0-.2-.2-.3-.1-.5s2.1.1,1.4-1.1S29,30.4,30,30.8s.2,2.2,1.5,1.4c.7.8,1.2-.5,2-.1s3.4.1,5.1-.2a4.1,4.1,0,0,0,2.2,0c-.7-.2-2,.3-2.3-.5s1.4-1.2,2.3-1.3,1.1.6,1.2,1.3Z"
    transform="translate(0 0)" fill="#fff"/>
  <path d="M31.9,31.4c-.1.3-.4.2-.7.2s-.4-.8-.2-1.1l.6-.2a2,2,0,0,1,.3,1.1Z" transform="translate(0 0)" fill="#fff"/>
  <path d="M56.6,31c.2.1,0,.4-.2.5l-.7-.3c-.3.1,0,.8-.5.6a6.1,6.1,0,0,1-.3-1.3c.7-.4,1.1.3,1.7.5Z"
        transform="translate(0 0)" fill="#fff"/>
  <path d="M22.9,31.1v.5c-.3.1-.4-.1-.6-.3s-.2-.6.2-.7a1.2,1.2,0,0,1,.5.5Z" transform="translate(0 0)" fill="#fff"/>
  <path d="M21.9,31.5c-.2.3-.4.3-.8.3l-.2-.3a.5.5,0,0,1,1,0Z" transform="translate(0 0)" fill="#fff"/>
  <path d="M20.3,31.8v.5a1.3,1.3,0,0,1-1-.6c.3-.7,1.1-.6,1.1.1Z" transform="translate(0 0)" fill="#fff"/>
  <path
    d="M58.6,31.6l-.4,1.1H56.8c.1.5,1.5,1,.5,1.6s-.7-.9-1.3-.5a.5.5,0,0,1-.1-.9l.8-.2c-.1-.4-.7-.4-.4-.9a3.2,3.2,0,0,1,2.3-.3Z"
    transform="translate(0 0)" fill="#fff"/>
  <path d="M17.4,31.9c.2.2.1.8.6.7s-.3,1.2-1,1.2a5.3,5.3,0,0,0-.6-1c-.4-.1-.8.4-1.1-.1s.2-.8.4-1.2,1.1.4,1.7.4Z"
        transform="translate(0 0)" fill="#fff"/>
  <path
    d="M25.6,32.3c0,.2,0,.4-.2.5s-.7-.1-.9.3-1.9-.2-2.6.4-1.5-.5-2.1.3a1.7,1.7,0,0,0-1.4.3c-.5-.6.4-.8.3-1.3s1.5-.6,2.3-.1,1.7.3,1.8-.7.8,0,1.1-.5,1.1.5,1.7.8Z"
    transform="translate(0 0)" fill="#fff"/>
  <path d="M50.1,33c-.2-.2-.8-.5-.4-.9s.1.7.4.9Z" transform="translate(0 0)" fill="#fff"/>
  <path d="M29.4,32.3h-.9c.4.2.6-.3.9-.1Z" transform="translate(0 0)" fill="#1d1d1b"/>
  <path
    d="M40.3,32.7c.7-.7,1.2.5,1.9-.1s2.7.9,4.4.6l.3.2c-1.7.4-2.8-.6-4.4-.4s-3.3,0-4.9-.4-1.3.1-1.8.1H32.1c.1-.3.6-.2.8-.1s1.1-.6,1.6.2,3.5-.1,5.6-.3l.2.2Z"
    transform="translate(0 0)" fill="#1d1d1b"/>
  <path d="M31.5,32.9c-.6.3-1.4.1-2.1.2s1.4-.2,2.1-.2Z" transform="translate(0 0)" fill="#1d1d1b"/>
  <polygon points="26.6 33.5 27 33.2 28.9 33.2 26.6 33.5 26.6 33.5" fill="#1d1d1b"/>
  <path d="M25.8,33.2c0,.3-.3.2-.5.3s.3-.3.5-.3Z" transform="translate(0 0)" fill="#fff"/>
  <path d="M55,34.3c-.1.7-.8.3-1.3.4a1.5,1.5,0,0,1,.3-1.1c.3-.2.4-.5.8-.4l.2,1.1Z" transform="translate(0 0)"
        fill="#fff"/>
  <path d="M21.9,34.6h-.6c.2,0,.4-.3.6-.1Z" transform="translate(0 0)" fill="#1d1d1b"/>
  <path d="M57,34.7c-.1.2-.1.3-.3.3s-.3-.3-.1-.4.3,0,.4.1Z" transform="translate(0 0)" fill="#fff"/>
  <path d="M37.9,35c.4.6,1.4,1.2,1.1,2s-.5-.5-.7-.7-1-.7-.8-1.4Z" transform="translate(0 0)" fill="#fff"/>
  <path d="M44.4,36.7c-.6.3-1-.8-1.5-.9v-.7c.6.5,1.4.8,1.5,1.6Z" transform="translate(0 0)" fill="#fff"/>
  <path d="M34.6,36.3c0,.3.1.6-.2.7s-.2-.7-.8-.7-.7-.6-.5-1.1a2.8,2.8,0,0,1,1.5,1.1Z" transform="translate(0 0)"
        fill="#fff"/>
  <path d="M36.3,36.9c-.8.3-1-1-1.7-1.4l.2-.3a3.1,3.1,0,0,1,1.5,1.7Z" transform="translate(0 0)" fill="#fff"/>
  <path d="M42.8,36.5a2,2,0,0,1-1.3-.8v-.5c.6.2,1.2.7,1.2,1.3Z" transform="translate(0 0)" fill="#fff"/>
  <path d="M41.5,36.7c-.7.1-.7-.8-1.2-1.1s.5-.3.8-.1.6.7.4,1.2Z" transform="translate(0 0)" fill="#fff"/>
  <path d="M40.3,36.5c0,.1.1.3-.1.4s-.7-1-1-1.5,1,.6,1.1,1.1Z" transform="translate(0 0)" fill="#fff"/>
  <path d="M37.7,36.7c-.2.4-.5-.1-.7-.2a1,1,0,0,1-.3-1,5.8,5.8,0,0,1,1,1.2Z" transform="translate(0 0)" fill="#fff"/>
  <path d="M45.6,36.3c-.1.1,0,.3-.1.4s-.6-.5-.9-.7v-.5a1.8,1.8,0,0,1,.9.8Z" transform="translate(0 0)" fill="#fff"/>
  <path d="M46.5,36.5c-.3.2-.5-.3-.8-.5v-.3c.3.2.9.4.8.8Z" transform="translate(0 0)" fill="#fff"/>
  <path d="M27.6,36.9c-.2.3-.5.1-.6-.1s-.2-.5-.2-.8.2-.3.5-.2a4.5,4.5,0,0,0,.3,1.1Z" transform="translate(0 0)"
        fill="#fff"/>
  <path d="M32,36.5a.5.5,0,0,1-.2.4c-.3-.1-.5-.5-.8-.7v-.3c.5-.1.8.3,1,.6Z" transform="translate(0 0)" fill="#fff"/>
  <path d="M50.1,36.5c0,.2.1.4,0,.5a1.5,1.5,0,0,1-.9-.7l.2-.4c.3.1.5.4.7.6Z" transform="translate(0 0)" fill="#fff"/>
  <path d="M49,36.5c.1.2-.2.3-.3.4l-.4-.5V36c.3,0,.5.3.7.5Z" transform="translate(0 0)" fill="#fff"/>
  <path d="M30.4,36.3v.4c-.1.1-.7,0-.5-.5s.4-.1.5.1Z" transform="translate(0 0)" fill="#fff"/>
  <path d="M33.1,36.3h-.2v-.2Z" transform="translate(0 0)" fill="#fff"/>
  <path d="M24.6,36.3c.1.3.1.5-.1.6s-.3,0-.3-.1.2-.5.4-.5Z" transform="translate(0 0)" fill="#fff"/>
  <path d="M29,36.5c.1.2,0,.4-.2.4s-.5-.3-.4-.6a.8.8,0,0,1,.6.2Z" transform="translate(0 0)" fill="#fff"/>
  <path d="M52.2,36.7c.1.2,0,.5-.2.4a.6.6,0,0,1-.1-.6c.2,0,.3.1.3.2Z" transform="translate(0 0)" fill="#fff"/>
  <path
    d="M8.1,37.6l57.6.5.2,52.4s.2,4.1-.9,6.3a8.9,8.9,0,0,1-5.5,4.5c-2.2.8-13.4,1.9-13.4,1.9a13.9,13.9,0,0,0-4.4.7,31.5,31.5,0,0,0-4.7,3.6,32.3,32.3,0,0,0-3.6-2.7,22.3,22.3,0,0,0-6.6-2.2c-2.1-.3-7.6-.5-7.6-.5a13.4,13.4,0,0,1-7.3-2.4c-3-2.3-3-3.3-3.6-5.8C7.3,89.5,8.1,37.6,8.1,37.6Z"
    transform="translate(0 0)" fill="none" stroke="#000" stroke-width="1.33"/>
</svg>
