<svg xmlns="http://www.w3.org/2000/svg" viewBox="0 0 513.5 102"><title>kk-logo-white</title><path d="M130.7,38.3c-.2,3.2-.5,5.8-.7,8.8,0,.4-.2,2.1-.3,4.3-.2,5.2-.5,13.5-.5,17.8,0,8.5.3,12.5,2,15.3a9.2,9.2,0,0,0,8.2,4.7,12.6,12.6,0,0,0,8-3.2c5.4-4.4,5.7-10.1,6-14.9.6-11.9.7-16.3.7-18.7,0-9-1.6-12.1-8.9-12.6-3.2-.2-3.6-.2-3.6-1.2V33.2c.1-.8.2-1.2,1.3-1.2h31.4c.7,0,1.1,0,1.1.9v1.7c-.6,5.8-.6,12.1-.8,18.6l-.3,18.5c0,5.7,0,7.4.1,9.3.5,3.4,2.2,5.8,5.6,6.1.4.1,2.9,0,3.2,0s1.3.6,1.3,1.2v5.4c0,1-.2,1.1-.9,1.3-4.2.9-8.5,1.7-12.7,2.7l-14,4.3c-.3,0-.6-.1-1-.7-1-2.9-1.1-3.9-2.6-10.5-5.3,4.3-13.2,10.6-23.8,10.6-8.6,0-21.3-4.9-21.3-25.8,0-6.4.3-13.3.6-19.9.2-2.4.3-6.2.3-7.9,0-7.2-4.7-7.7-9.5-8-1.1,0-1.3-.2-1.3-1.2V33.1c.2-.8.3-1.1,1.3-1.1h30.8c1.2,0,1.2.4,1.2,1.1l-.8,5.2Z" fill="#fff"/><path d="M188.4,38.7c.3-.6.5-.7,1.3-1.1,9.5-2.3,12-3,19.8-6.1a9.3,9.3,0,0,1,2.1-.5,1.9,1.9,0,0,1,1.8,1c1.1,1.7,2.6,4.3,5.1,14.7,2.6-4.6,5.7-10,12.6-13.5a18.9,18.9,0,0,1,8.9-2.3c5.9,0,12.1,3.7,12.1,12.5,0,6-3.6,10.9-8.9,10.9a7.3,7.3,0,0,1-6.5-3.2c-.8-1.1-1.4-2.1-2.2-3.1s-3.8-2.5-4.8-2.5c-3.9,0-7.7,4.3-9.4,11-1.1,3.8-2,9.8-2,20.9,0,14,4,14.3,14.4,15,1,.1,1.2.2,1.2,1.3v4.9c0,.7-.2,1.1-1.2,1.1h-43c-.8,0-1-.1-1.1-1.2V93.4c.1-.9.3-1,1.1-1.4,8.9-.9,8.9-2.8,8.9-22.4s0-23.8-7.7-24.7c-1.8-.2-2.2-.2-2.5-.9V38.7Z" fill="#fff"/><path d="M286.5,35.7c-.5,13.1-.6,30.7-.6,44.2,0,8.6.5,11.7,7.4,12.1,2.6.4,2.8.4,2.8,1.6v5c-.2.8-.3,1.1-1.6,1.1l-19.1-.3c-6.2,0-12.3.3-18.4.3-1,0-1.1-.1-1.3-1.1V93.4c.2-1,.3-1.2,1.3-1.4,6.1-.4,8.5-2.1,8.7-9.9V58.3c0-8.8-1.2-11.9-8.5-12-1.3,0-1.5-.2-1.5-1.2V39.6c-.2-.9,0-.9.8-1.2,5.4-1.5,11-3.1,16.4-4.9,1.9-.4,11.9-4.2,12.7-4.2a1,1,0,0,1,1,1.1v5.3Z" fill="#fff"/><path d="M261.7,13.1a13,13,0,1,1,26,0,13,13,0,0,1-12.9,13.1,13.6,13.6,0,0,1-9.3-3.9,13.6,13.6,0,0,1-3.8-9.2Z" fill="#d20a11"/><path d="M298.7,38.7c.3-.6.4-.7,1.2-1.1,9.5-2.3,12-3,19.8-6.1a10.8,10.8,0,0,1,2.1-.5,1.9,1.9,0,0,1,1.8,1c1.1,1.7,2.7,4.3,5.1,14.7,2.6-4.6,5.7-10,12.6-13.5a18.9,18.9,0,0,1,8.9-2.3c5.9,0,12.1,3.7,12.1,12.5,0,6-3.5,10.9-8.9,10.9a7.3,7.3,0,0,1-6.5-3.2L344.8,48c-2.1-2.5-3.9-2.5-4.9-2.5-3.9,0-7.6,4.3-9.3,11-1.1,3.8-2.1,9.8-2.1,20.9,0,14,4.1,14.3,14.4,15,1.1.1,1.2.2,1.2,1.3v4.9c0,.7-.1,1.1-1.2,1.1h-43c-.8,0-.9-.1-1.1-1.2V93.4c.2-.9.3-1,1.1-1.4,9-.9,9-2.8,9-22.4s0-23.8-7.7-24.7c-1.9-.2-2.2-.2-2.5-.9V38.7Z" fill="#fff"/><path d="M406,51.1c-.2-3.1-.5-7.1-3.6-10.5a9.8,9.8,0,0,0-6.6-3c-2.5,0-10.6,1.5-14,13.5Zm-25.3,7.1c-.2,6.5,0,13.6,4,20.4s9.5,10.8,16.6,10.8a23.7,23.7,0,0,0,14.5-5,33.2,33.2,0,0,1,4-3.4c.5,0,5.1,3.6,5.1,4.5s-4.1,5-5.5,6.1c-3.7,3.1-11.7,9.8-25.3,9.8-18,0-33.2-12-33.2-33.1,0-23.4,15.8-37.9,35-37.9,15.7,0,27.3,10.2,27.3,22.8,0,2.2,0,5-1.7,5Z" fill="#fff"/><path d="M428.1,39.8c.2-1.1.4-1.4,1.5-1.7,12-2.6,14.6-3.5,23.8-7.2l1.8-.3c1.3,0,1.6.8,1.7,1.7s.5,2.5,1.3,9c5.8-4.4,13.5-10.1,24.7-10.1,7.2,0,12.4,2.9,15.7,6.8,4.7,5.5,4.9,11.7,5.1,17.7V83.6c.4,7.5,2.9,7.8,8.4,8.3,1.1,0,1.3.3,1.4,1.2v5.5c-.3,1-.3,1.1-1.2,1.1-5.4-.1-11-.1-16.4-.3s-12.6.3-20,.3c-.9,0-1.1-.1-1.2-1.3V93.6c0-1.2.1-1.4,1.2-1.6,5.1-.6,7-1.7,7.2-9.2V57.5c-.2-4.2-.4-8.6-3.6-11.7a11.1,11.1,0,0,0-7.4-3.1,12.9,12.9,0,0,0-9.8,4.8c-3,3.9-3.3,9.1-3.5,15.1v22c0,6.1,2.8,6.5,7.4,7.4,1.1.2,1.2.5,1.4,1.4v5.2c-.3,1-.3,1.1-1.2,1.1-6.1-.1-12.2-.1-18.2-.3l-18.8.3c-1.1,0-1.3-.4-1.3-1.3V93c.4-1.1.5-1.1,1.7-1.1,7.8,0,8.5-4.8,8.5-7.7V56.1c-.5-8-1.8-10-9.2-10-.6,0-.8-.1-1-.9V39.8Z" fill="#fff"/><path d="M48.3,7.6c-.2,1-.2,1.1-1.2,1.3-10.8.3-13.2.4-13.2,14.1V51.1A344,344,0,0,0,63.2,16.8c1.3-1.7,2.4-3.2,2.4-4.7s-3.2-3.2-5.2-3.4-3.2-.3-3.2-1.2V2.9c0-1,.2-1.1.9-1.1L76.9,2l14.8-.2c.5,0,.7.2.7.9V7.6c0,1.1-.3,1.1-3.3,1.7-7.9,1.5-10.9,4.5-17.2,11.2L55,40C70.6,60,77.2,68,88.5,81.9c7.7,9.2,9.9,11,17.1,11.7.9.1,1,.3,1,1.1v4.5c0,.5,0,1.2-.9,1.2l-23.1-.2-22.2.2c-.9,0-.9-.5-1.1-1.1V94.8c0-1.4.3-1.4,3.6-1.4s5.6-.1,5.6-3.4-1.4-3.9-2.9-6L42.3,54.8l-8.4,9.6V82.1c.5,9,1.2,10.4,10.8,11.2,3.1.3,3.7.3,3.7,1.9v4.2c-.1.9-.1,1-.9,1l-23.9-.2-22.4.2c-.8,0-.9-.1-1.1-1.2V94.8c.2-1.2.6-1.2,4.5-1.7,7-.9,9.1-2.4,9.3-9.5V18.3c0-7.9-3-8.7-12.7-9.4C.1,8.9,0,8.6,0,7.8V2.7c.1-.8.1-1.1.9-1.1,8.1.2,16.3.6,24.4.6,5.5,0,18.2-.6,21.6-.6,1.2,0,1.2,1,1.4,1.6V7.6Z" fill="#fff"/><polygon points="98.1 11.6 100.4 11.6 100.4 17.9 105.7 11.6 108.5 11.6 103.8 16.8 109 25.1 106.4 25.1 102.3 18.5 100.4 20.6 100.4 25.1 98.1 25.1 98.1 11.6 98.1 11.6" fill="#fff"/><path d="M117.6,19.8l-1.9-5.5h0l-1.9,5.5Zm-3-8.3h2.3l4.8,13.6h-2.4l-1-3.2h-5.2L112,25.1h-2.2l4.8-13.6Z" fill="#fff"/><path d="M128.5,17.7c1.8,0,2.9-.4,2.9-2.1s-1-2-3-2h-2.5v4.1Zm-4.8-6.1h4.8c3.3,0,5.1,1.3,5.1,4a3.5,3.5,0,0,1-3,3.8l3.3,5.7h-2.5l-3-5.3h-2.5v5.3h-2.2V11.6Z" fill="#fff"/><polygon points="136.3 11.6 138.7 11.6 138.7 23 144.9 23 144.9 25.1 136.3 25.1 136.3 11.6 136.3 11.6" fill="#fff"/><path d="M146.3,21.9l1.8-.9a3.9,3.9,0,0,0,3.7,2.4c1.7,0,2.7-.6,2.7-1.8s-.8-1.8-3-2.4-4.7-1.5-4.7-4.1,1.8-3.8,4.6-3.8a5.4,5.4,0,0,1,5.1,2.9l-1.7,1.2a3.7,3.7,0,0,0-3.4-2c-1.5,0-2.4.5-2.4,1.5s1,1.7,3.2,2.4,4.6,1.6,4.6,4.1-1.9,3.9-5.1,3.9a5.4,5.4,0,0,1-5.4-3.4Z" fill="#fff"/><polygon points="159.3 11.6 161.6 11.6 161.6 17.9 167 11.6 169.7 11.6 165 16.8 170.2 25.1 167.6 25.1 163.6 18.5 161.6 20.6 161.6 25.1 159.3 25.1 159.3 11.6 159.3 11.6" fill="#fff"/><path d="M181.4,18.3c0-3.2-1.5-4.9-3.8-4.9s-3.8,1.7-3.8,4.9,1.5,5,3.8,5,3.8-1.8,3.8-5Zm-10,0c0-4.5,2.8-7,6.2-7s6.1,2.5,6.1,7-2.7,7-6.1,7-6.2-2.4-6.2-7Z" fill="#fff"/><path d="M185.4,18.3c0-4.4,2.4-7,6.1-7s4.4,1.2,5.2,4.2l-2.1.6c-.7-2-1.6-2.7-3.1-2.7s-3.7,1-3.7,4.8,1.8,5.1,3.7,5.1a3.1,3.1,0,0,0,3.2-3.1H192V18.4h4.9v6.7H195v-2h0a4,4,0,0,1-3.7,2.2c-3.9,0-5.9-2.9-5.9-7Z" fill="#fff"/><path d="M206.4,19.8l-1.8-5.5h-.1l-1.8,5.5Zm-2.9-8.3h2.2l4.9,13.6h-2.4l-1.1-3.2h-5.2l-1,3.2h-2.2l4.8-13.6Z" fill="#fff"/></svg>