<svg xmlns="http://www.w3.org/2000/svg" viewBox="0 0 696 109.7"><title>an</title><path d="M28.9,87.3l12.9-68H67.6L82.2,87.5C83.8,94,85,95,90.1,95v13.6H53.9V95c3.5-.5,4.6-1.9,4.6-5.6a30.3,30.3,0,0,0-.2-4h-12a11,11,0,0,0-.5,4c0,4.2.7,5.1,4.2,5.6v13.6H21V95C25.4,95,27.7,92.9,28.9,87.3ZM52.1,43.4l-4.2,30h8.3Zm77.2,1.4c6.7,0,11.6,4.4,11.6,12.8s-3.9,13-10.2,13-8.4-3.3-8.4-8.1c0-2.6-.2-4.7,1.9-6.5-3.9,1.4-6.5,5.5-6.5,12.3V89.8c0,4,2.1,5.4,6.3,5.4v13.4H94.3V95.2c3.2,0,4.8-1.4,4.8-5.4V62c0-3.7-.7-5.3-4.8-5.3V43.9H117v8.6C118.6,49,124,44.8,129.3,44.8Zm36.2-.9V56.7c-1.6,0-2.3.7-2.3,2.1a17.2,17.2,0,0,0,.2,2.7l3.5,23.7,3.9-23.9a9.4,9.4,0,0,0,.3-2.5c0-1.4-.7-2.1-2.8-2.1V43.9h20.6V56.7c-2.3.2-3.9,1.1-4.8,6.7l-8.6,45.2H155.1l-10-47.8c-.7-3.9-1.9-4.6-4-4.6V43.9Zm55.2,51.3v13.4H192.2V95.2c3.5,0,5.1-1.4,5.1-5.4V62c0-3.7-1.6-5.3-5.1-5.3V43.9h23.4V89.8C215.6,93.6,217.2,95.2,220.7,95.2ZM204.2,39a9.6,9.6,0,0,1-9.9-9.7,10.1,10.1,0,0,1,20.1,0C214.4,34.9,210,39,204.2,39Zm50.4,22.3a4.7,4.7,0,0,0,.4-1.6c0-1.2-.2-3-4.4-3V43.9h28.1V56.7c-1.8.2-4.6.2-5.8,1.4l-6.7,9.5L273.8,91c1,3,3.1,4.2,5.4,4.2v13.4H253.4V95.2c1.4-.2,3.3-2.3,3.3-3.5a7.4,7.4,0,0,0-.3-2.5l-2.1-8.6-6.2,8.1a8.8,8.8,0,0,0,0,2.3c0,3,.4,4,2.3,4.2v13.4H224.7V95.2c3.4,0,5.1-1.4,5.1-5.4V36.7c0-3.7-1.7-5.5-5.1-5.5V18.6h23.2V71.3Zm48.5,0c0,5.3-3.5,8.6-9.5,8.6s-9.3-3.7-9.3-10.2c0-10.7,8.1-17.6,20.6-17.6s20,6.5,20,19V92.6c0,2.6.9,3.7,2.1,3.5s1.6-.9,1.6-3.5V87.3h5.8V98.2c0,7.4-6.7,12.3-15.3,12.3-5.4,0-8.6-1.9-10.7-5.8-3.2,3.9-6.5,5.8-11.8,5.8-9.5,0-14.6-6.3-14.6-18.1,0-14.6,8.1-21.6,25.2-22.3V62.7c0-7.2-1.1-9.5-4.4-9.5a2.9,2.9,0,0,0-2.3,1.2C302.6,56,303.1,59.2,303.1,61.3Zm.4,35c1.9,0,3-1.3,3-3.7V80.3c-4.6.3-6.4,4.4-6.4,9.8S301.2,96.3,303.5,96.3Zm48.3-6.9V39.7c0-4.4-2.3-6.9-6.7-6.9V19.3h33.8l13,59.2V38.6c0-4.4-1.1-5.6-4.6-5.6h-.9s-.3,0-.3-.2V19.3h28.3V32.8c-5.1,0-6.9,1.4-6.9,5.8v70H381.9L369,51.8V89.4c0,4.2,1.1,5.8,4.4,5.8h1.4v13.4H345.1V95.2C349.5,95.2,351.8,93.8,351.8,89.4ZM417.9,65c-1.2-5.8-2.8-8.3-6-8.3V43.9h26.2V56.7c-1.9.2-2.6.7-2.6,2.1a11.6,11.6,0,0,0,.3,2.7L439.5,88l3.7-26.7c0-1.1.2-2.1.2-2.5s-.7-2.1-2.8-2.1V43.9h20.5V56.7c-2.6,0-4.2,1.1-5.1,6.7l-8.2,47.3c-1.4,8.8-7.2,17.7-19.5,17.7-6.2,0-12.7-2.8-12.7-9.8,0-5.1,2.5-8.1,6.2-8.1s5.4,3.2,5.4,5.6c5.1,2.7,6-10,.2-8.2Zm78.4-22.9c9.3,0,15.3,6,15.3,15V89.8c0,3.8.7,5.4,4,5.4v13.4H490.5V95.2c1.9,0,2.8-1.4,2.8-5.4V67.3c0-6-1.4-8.8-3.9-8.8s-4.9,3.7-4.9,12.3v19c0,4,.5,5.4,2.8,5.4v13.4H461.1V95.2c3.7,0,5.1-1.4,5.1-5.4V38.3c0-5.5-.7-8.1-5.1-8.1V18.6h23.6V47.2C488,43.4,491.7,42.1,496.3,42.1Zm45.5,68.2c-10.2,0-17.4-5.6-20.9-16.5-1.1-4-1.8-10.2-1.8-19.3,0-20.4,8.8-32.4,23.6-32.4S565,53,565,71.8v7.8H539.9v4.2c0,8.1.3,12.3,4.4,12.3s4.5-3.7,4.5-8.1V82.9h16v3C564.8,101.7,556.6,110.3,541.8,110.3Zm5.8-49.2c0-3.5-1.4-5.4-4.2-5.4s-3.5,1.9-3.5,5.4V69h7.7Zm31.1-28.3V25.6h12.7V43.9h9.8V56.2h-9.8V91.7c0,2.3,1.4,3,3.1,3s2.3-.9,2.3-3.5V82.4h6V95.9c0,10-5.6,15.1-13.9,15.1s-15.6-6.5-15.6-16.7V56.2h-6V44.1C575.9,44.1,578.7,40,578.7,32.8Zm51.7,77.5c-10,0-17.6-5.6-20.9-16.5-1.4-4-1.8-10.2-1.8-19.3,0-20.4,8.8-32.4,23.6-32.4S653.4,53,653.4,71.8v7.8H628.6v4.2c0,8.1.2,12.3,4.1,12.3s4.4-3.7,4.4-8.1V82.9h16v3C653.1,101.7,645,110.3,630.4,110.3ZM636,61.1c0-3.5-1.4-5.4-3.7-5.4s-3.7,1.9-3.7,5.4V69H636Zm57.1-16.3c6.7,0,11.6,4.4,11.6,12.8s-4,13-10.3,13c-4.8,0-8.5-3.3-8.5-8.1,0-2.6,0-4.7,2-6.5-3.9,1.4-6.4,5.5-6.4,12.3V90.5c0,3.8,2,5.1,6.2,5.1v13H658v-13c3.5,0,5.1-1.3,5.1-5.1V62c0-3.7-.7-5.3-5.1-5.3V43.9h22.5v8.6C682.4,49,687.7,44.8,693.1,44.8Zm23.8,54.6c0-5.8-4.4-10.7-9.7-10.7s-9.5,4.9-9.5,10.7,4.2,10.9,9.5,10.9S716.9,105.4,716.9,99.4Z" transform="translate(-21 -18.6)" fill="#fff"/></svg>