<svg xmlns="http://www.w3.org/2000/svg" viewBox="0 0 298.1 39"><title>ft-logo-white</title><path d="M286.5-.2a5.2,5.2,0,0,1,3.4,1.6h.2l.3.4h.1V1.7a3.7,3.7,0,0,0,.1-1.1V.4h0V.1l.4-.2h4.9c.3.2.2,4.6.2,5.2v.6c-.1,2.4-.1,4.8-.2,7.2,0,.3-.2.4-.5.4h-4.5c-.4-.1-.3-1.1-.3-1.1V10h0V7.8a.6.6,0,0,0-.1-.4V7.2h.1V5.7h.1c-.3-2.3-3.4-2.3-3.6-.2v8.3a10.9,10.9,0,0,0-.1,1.8v5.5c0,.5-.1,1-.1,1.4a12.7,12.7,0,0,0,.1,2h0v.2c0,.7-.1,1.5-.1,2.2s.1,2.6.1,2.6v4.2h0c0,.1.1.2.1.3s.5.5.5.4h0l.2.2h1l.8-.2h.3c0-.1.1-.2.1-.3a.1.1,0,0,0,.1-.1c.5-.6.3-2.3.3-3h0V24.4h0c0-.6-.1-1.3-.1-2s-1-.1-1.3-.3-.1-1.3-.1-1.7V17.9a.8.8,0,0,0,.2-.4h3.5a.1.1,0,0,1,.1-.1h4.5c1.1.1.4,2.1.6,2.9a.1.1,0,0,0,.1.1c-.2.4,0,1.1-.3,1.5s-1.4-.7-1.5,1.2v8.4h0c0,.1-.1.2-.1.4s.1,0,.1.1H296c0,.5.1,1,.1,1.4s-.1,1.2-.1,1.7a24.4,24.4,0,0,1-.1,2.7c0,.2-.4.5-.4.5s-2.8-.1-3.9-.1h-1.1c-.3-.4-.2-1.2-.3-1.7v-.2h0l-.4.5-.8,1-1.5.7-1.3.2a5.4,5.4,0,0,1-3.4-.8l-.4-.3a4.5,4.5,0,0,1-1.3-2.3H281c.1-2.4-.2-5-.2-7.4V25.8h0V24h0c0-.8.1-1.7.1-2.5h0V9.5a1.9,1.9,0,0,0-.1-.8V8.5a1.3,1.3,0,0,1,.1-.6V5.7a.6.6,0,0,1,.1-.4h-.1c0-.5.2-2.5.5-2.5h0l.6-1h.2V1.3L283.8.2h2.7Z" transform="translate(0.2 0.2)" fill="#fff"/><path d="M150.3,0c1.7.1,2.5.9,3.5,2.1a.1.1,0,0,0,.1.1h.1V.9c.1-.6.5-.6,1.1-.6h2.8c2,0,1.9,0,1.9,1.9,0,.2-.1.5-.1.7.1,2.8.1,5.6.1,8.3h.1v.9c-.1.3,0,1.3-.5,1.3h-3.3c-.4.1-1.6.2-1.8-.1s.4-8.4-.5-9-1.1.1-1.6.1h-.1a3.6,3.6,0,0,0-.2,1.5v5.5c0,2.2-.3,3.5,1.7,4.3l1.1.5h.2c1.6.9,3.5,1.5,4.5,3.2l.3.7v.2h0l.3.9h0c0,1.2.1,2.4.1,3.5s.1,4.5.1,6.7h0c0,1.1,0,2.2-.1,3.3s-.1.5-.1.7a.4.4,0,0,0-.1.3.3.3,0,0,1-.1.2h0c0,.1,0,.1-.1.2s-.9,1.4-1.4,1.4l-.7.4-.7.2h-1.8c-.7-.3-2.9-1-2.9-2h-.1a3.6,3.6,0,0,1-.2,1.5c-.4.4-3.4.1-4.2.1h-.6c-1,0-.9-.4-.9-1.2h0c0-2.4,0-4.7-.1-7.1V27.1a8.1,8.1,0,0,0,.1-1.6h-.1V23.4H150c.3,0,1.9-.2,1.9.2,0,2.2.1,4.4.1,6.6v.8c.3,1.3-.6,3.6,1.2,3.6s.9-1,.9-2V32a.4.4,0,0,0,.1-.3c0-.1-.1-.1-.1-.2h.1c-.1-1.2-.1-2.4-.1-3.6h0V26.7h0V25.4c0-1.8.2-3.1-1.5-3.8l-.6-.3-.6-.2c-1.7-.8-3.6-1.3-4.8-3l-.3-.7a8.2,8.2,0,0,1-.2-2.3V5.1h.1a16.9,16.9,0,0,0,.1-2.3h0a4.1,4.1,0,0,1,.5-.9h0l.5-.4h0A4.7,4.7,0,0,1,149.7.1h.6Z" transform="translate(0.2 0.2)" fill="#fff"/><path d="M272.7,0h5.2l.4.3a9.6,9.6,0,0,1-.1,3.4c-.2.2-.8.2-1.2.2s-.2,1.4-.2,2.1a1.5,1.5,0,0,1,.1.7c0,2.6-.1,5.2-.1,7.8s-.1,3.3-.1,5v5.9a.9.9,0,0,1-.1.5v8.5c-.1.7.2,3.6-.4,3.8h-6.5c-.7.1-1-.1-1.1-.8v-.2l-.3-1.8c-.2-1.1-.3-2.1-.4-3.2s-1.4-8.5-1.7-9.9a1.1,1.1,0,0,0-.1-.5c-.2-1.4-.5-2.8-.7-4.3v-.2c-.3-1.6-.5-3.1-.7-4.7l-.2-.2v-.3h-.1v2.5h-.1a2.8,2.8,0,0,0,.1.9h-.1c0,.3.1.6.1.9v3.6c-.1,4.7-.1,9.4-.1,14.1a.4.4,0,0,0,.1.3l1.1.2h.3c.3.1.3.4.3.7h0a26.4,26.4,0,0,0-.2,2.9h-7.2c-.5-.2-.3-1.4-.3-2V36h0V35l.4-.3h.7c1-.2.8-1.5.7-2.3v-.3h0v-.2h0c0-.1,0-.2-.1-.2a.4.4,0,0,0,.1-.3V22.4h0v-.4h0V16.4h0v-1h0c0-2.7-.1-5.4-.1-8.2,0-.4.1-.8.1-1.2s.5-1.8-1.4-1.8-.2-2.6-.2-3.5h.1l.3-.2h9.3a1.6,1.6,0,0,1,.4,1.3c.8,4.2,1.5,8.3,2.2,12.5,0,.2.1.5.1.7s.1.8.2,1.2h0c.2,1,.3,2,.5,3.1a.3.3,0,0,1,.1.2c0,.2.1.5.1.7a.4.4,0,0,0,.1.3c0,.6.1,1.1.1,1.6h.1c.1.3.2,1.6.4,1.6h.1V20.9h0c-.1-1.3-.1-2.5-.1-3.8a.6.6,0,0,1,.1-.4h0V16c0-2.5-.1-8.3-.1-8.4h0V7h.1a25.3,25.3,0,0,1-.1-2.8h-.1c-.8-.1-1.4.1-1.4-.9V2.6h0V2.1c0-.6-.2-1.6.3-2h1.3Z" transform="translate(0.2 0.2)" fill="#fff"/><path d="M226.1.1h7.7c.6-.1.6.6.9.6s.7,5.3.9,6.3.1.6.1.8h0c.1.7.3,1.4.4,2.1.3,2.2.7,4.3,1,6.4h0l.9,5.6c.1.2.2,1.4.5,1.3a4.9,4.9,0,0,1,.1-1.2V17.9h0v-.3h0c0-3.2-.1-6.4-.1-9.6h0V5.3c0-.1-.1-.2-.1-.4h.1a2.8,2.8,0,0,1-.1-.9l-1.5-.2c-.4-.1-.2-2.2-.2-2.7V.4h6.8c.3,0,.7,0,.8.2a10.2,10.2,0,0,1-.2,3.5H244c-1.1,0-1.5.1-1.5,1.3V6.6c0,4.4-.1,8.8-.1,13.2v6.9h.1a19.3,19.3,0,0,0-.1,2.4v3c0,.6-.1,1.2-.1,1.7h.1c0,1.4-.1,2.7-.1,4s-2.6.3-3.5.3h-2.1c-1.1-.2-2.1.3-2.2-1a13,13,0,0,1-.3-1.3c-.1-1.2-.3-2.4-.5-3.5a1.3,1.3,0,0,0-.1-.6v-.7L232.1,22a15.5,15.5,0,0,1-.4-2.1,2,2,0,0,0-.1-.7l-1.2-7.5h0a2.5,2.5,0,0,0-.1.8,14.8,14.8,0,0,0,.1,2.1h-.1v.9h0c0,1.2.1,14.5.1,18.5l.4.3h.1l1.1.2h.1a5,5,0,0,1,.2,1.2,4.1,4.1,0,0,1,.1,1.1h-.1v.5c-.1.3-.1.5-.2.8a12.9,12.9,0,0,1-3.4.1H228c-.6,0-3.7.2-3.9-.2V35.3h0c0-.3,0-.8.4-.8h1.1c.9.1.6-2.1.6-2.7V22.5h0V16.6c-.1-.8-.1-1.6-.2-2.4h0v-.4h0V7.5c0-1.1,0-2.1-.1-3.2s-1.2,0-1.5-.5-.1-2.7-.1-3.4l.3-.2h1.5Z" transform="translate(0.2 0.2)" fill="#fff"/><path d="M184.5.2h6.4c.1,0,.6,0,.6.2,0,2.7,0,5.3.1,8s-.1,3-.1,4.6-.8.4-.8.4h-3.5c-.5-.2-.2-4.2-.2-4.9a6.8,6.8,0,0,1-.1-1.2c0-.2.1-2.7.1-3.1h0c-.4,0-1.2-.2-1.5.1V6.9c0,3,0,6,.1,9.1a8.6,8.6,0,0,0-.1,1.6v2.7h0c0,3,.1,9,.1,9v.5h0v.3c0,1.3.1,2.5.1,3.8v.2h.9c.7.1.9.4.8,1.2h0a5.2,5.2,0,0,1-.1,2.5h-1.9c-1.1,0-6.7.2-7.3-.2s-.2-.6-.2-.8V34.5h.7c.1,0,.2,0,.2.1h.8a1.3,1.3,0,0,0,.1-.6h0c0-.9.1-1.7.1-2.5V25.9h0V19.4h0V16.7c0-3.3-.1-6.6-.1-10h0c0-.8.4-2.9-.8-2.8s-.7.1-.7.5V6.7c0,1.4,0,4.9-.1,5.3v1.2c-.2.4-3.4.2-3.4.2h-1.1a14.8,14.8,0,0,0-.1-2.1h0c0-2.6.1-5.3.1-7.9V2.1a7.6,7.6,0,0,1-.1-1.5V.3h11Z" transform="translate(0.2 0.2)" fill="#fff"/><path d="M193.9.1h8.7c.5,0,.5,3.3.2,3.6s-.6.1-.9.1-.5.9-.5,1.6V7.3h0V18.7c0,.6.1,2.1.1,2.3h0c0,.3-.1,3,0,4s-.1,3.4-.1,5v.3c0,1.2-.3,2.8.1,3.9h1.1c.1,0,.5.1.5.2a.4.4,0,0,1,.1.3s-.1.7,0,.7-.1,1.6-.1,2.4-3.9.3-4.6.3h-4.7a10.6,10.6,0,0,1-.2-3.1.8.8,0,0,0,.1-.4h1.4l.4-.2c.1-2.1.1-4.3.1-6.4h0v-.6h0V25.1h0c0-4,0-8-.1-12h0V8.1h0c0-.8.2-3.3-.1-3.9s-1.6.8-1.7-1.2V.8h0V.4h0C193.8.3,193.9.2,193.9.1Z" transform="translate(0.2 0.2)" fill="#fff"/><path d="M252.6.1h2.6c.3,0,.5,0,.6.2a9.1,9.1,0,0,1-.1,3.3l-.5.2h-.7c-.6.3-.5,1.1-.4,1.7v.3h0V34.2h0a.5.5,0,0,0,.5.4c.2,0,1,0,1,.2v.5h0a6.6,6.6,0,0,0,.1,1.4,3.2,3.2,0,0,1-.2,1.4c-.3.3-3.3.2-3.9.2a.1.1,0,0,0-.1-.1h-5v-1h.1c-.1-.6-.4-2.3.5-2.3h.8c.4-.2.4-.5.4-.9h0c0-2.1,0-4.3.1-6.5v-3h-.1V20.8h0c0-2.8,0-5.7.1-8.5-.2-1.3.3-7.5-.1-8s-.9-.2-1.3-.3-.2-.8-.2-1.2h0c0-.4-.1-2.3.3-2.3h5.4Z" transform="translate(0.2 0.2)" fill="#fff"/><path d="M77.4.4c2.2.2,2.4.6,3.8,2a.1.1,0,0,0,.1.1h0A7.6,7.6,0,0,0,81.4.9h0c.2-.4.9-.2,1.3-.2h3.1c.8-.1.9.2.9.9.1,2.9.1,11,.1,12H81.4c0-.1.1-.1.1-.2h0v-.5c0-.7.5-8.4-1-8.4a1.2,1.2,0,0,0-1.3,1.3.9.9,0,0,0,.1.5v.6h0v3.6c0,.2,0,.3.1.4h-.1a2.8,2.8,0,0,1,.1.9h0v1c-.1,1.8.3,2.6,1.7,3.3l.6.4h.2a6.3,6.3,0,0,0,1.4.9h.3l.5.3h.1l.7.4.9.6h.1a9.2,9.2,0,0,1,1.3,2.1,8.7,8.7,0,0,1,.1,2.3c.1,1.7.1,3.3.2,5v6.6a.8.8,0,0,1-.1.4c.1,1.9-1.8,3.3-3.5,3.6l-1.5-.2-.5-.2-.6-.2-.7-.4-.5-.6-.2-.2c-.1,0-.2,1.4-.3,1.5s-.1,0-.1.1H77.1a9.7,9.7,0,0,0-1.7.1c0-.1,0-.1-.1-.1h-.9c-.4-.3-.3-1.7-.3-2.1-.1-3.2-.1-6.4-.2-9.5V25.1a9.1,9.1,0,0,1,.1-1.7h3.1c2.4-.1,2.5.2,2.5,2.4v1.4h.1a43.4,43.4,0,0,0,0,5.1v1.4h.2v.4h0l.9.3h.6c0-.1,0-.1.1-.1h.1v-.2h0a5.5,5.5,0,0,0,.2-1.8h0c-.1-1.2-.1-2.3-.1-3.4h0a3.7,3.7,0,0,1,.1-1.1h-.1c.1-1.8.3-4.4-1.1-5.6l-.5-.2h0l-1.8-.9-1.1-.6h-.1l-.3-.2-.4-.2-.4-.3c-3-1.2-2.4-7.2-2.4-10.3V8.5h0V7.2h0V6.6h0c0-.4.1-2.7.2-3.2S74.9.8,75.8.8h0l.4-.2h1.2Z" transform="translate(0.2 0.2)" fill="#fff"/><path d="M101.8.4h5.1c.2.1.5.8.4.8,0,3.8.1,7.5.1,11.2h0c-.2,1.4-1.9.8-3.1.8h-1v-.3a27.1,27.1,0,0,0-.1-2.9,5.3,5.3,0,0,0-.1-1.3h.1V6.2c.1-.4.3-1.7-.1-1.9h-.7c-1.1-.1-.8.4-.8,1.2h0v6.3h0v4.6h0a.6.6,0,0,1,.1.4h0c.1,2.9.1,5.8.1,8.7V26c0,1.3,0,2.6.1,3.9v4.4l.2.3h.5v-.2h.3l.8.2c0,.5.2,3.1-.1,3.4s-5.4.2-6.4.2H95c-.7-.2-.6-.6-.6-1.3v-.9h0v-.8h.1c0-.2-.1-.3-.1-.4s.1-.1.1-.2h1.4c.5-.3.2-6,.2-7V26.3c0-2.7-.1-5.4-.1-8.2V15.3c0-1.5-.1-3.1-.1-4.6s0-2.2-.1-3.3V5.3c0-.9-.1-1.2-1.1-1.1h-.3c-.5.4-.2,7-.1,8.1s.1.9-.1,1.1a18.4,18.4,0,0,1-4.1.1,1,1,0,0,1-.2-.7v-.4h0a2.5,2.5,0,0,0-.1-.8h.1c-.1-2-.1-4-.1-6h0c0-.8-.1-1.5-.1-2.2V.6h12.2Z" transform="translate(0.2 0.2)" fill="#fff"/><path d="M50.8.6h1.5c1.5-.2,1.1,1.9,1.1,3v.2c-.3.8-1.2.1-1.7.7s-.1,1-.1,1.6c0,2.2.1,4.4.1,6.6V16c.1,1.4.1,2.9.2,4.3v1.3h0c0,.5.1,1.1.1,1.6s-.1,1.8-.1,2.7.1.8.1,1.2h0c0,1.2,0,2.3.1,3.5v1c.1,1,.1,2.1.1,3.1h0L54,35c.1.6.3,3.4-.1,3.6s-.9.1-1.3.1H45.1c-.4-.2-.3-1.3-.3-1.7v-.6h0v-.8h0c0-.2.5-.5.5-.5h0c0-.1,0-.1.1-.1h1.1c0-.2,0-.3.1-.4a7.6,7.6,0,0,1-.1-1.5V27a4.3,4.3,0,0,1-.1-.5h0c0-1,0-2-.1-3h.1c-.1-2.6-.1-5.2-.2-7.9s0-3.2-.1-4.9V7.2h0c-.5-1.6.9-2.5-1.4-2.8-.2,0-.4-.3-.5-.3a.1.1,0,0,1,.1-.1c0-.1-.1-.3-.1-.4V1l.4-.3h6.2Z" transform="translate(0.2 0.2)" fill="#fff"/><path d="M34.7.8h2c.7.2.7,3.6.1,3.6s-1.3.9-1.3,2.2.5,26.9.5,27.5v.2h0c.1.2.3.5.6.5s0-.1.1-.1h.9c0-1.6,0-8.5-.1-9.7h0c.1-.4-.1-1.3.5-1.3h4.2c.4.4.2,1.9.2,1.9v.2c0,.3.5,13.1-.3,13.1H30c-1.5.4-1.4-.7-1.4-2V35l.3-.2h1.3l.2-.2a.9.9,0,0,0-.1-.5V27.8h-.1V26.7a16.1,16.1,0,0,0,0-3.8h0V21h0c0-.7-.1-1.3-.1-2v-3c0-.2-.1-4.6-.1-4.7a62.3,62.3,0,0,0-.2-6.5c-.2-.3-.7-.2-1.1-.2s-.6-1.2-.6-1.9V1.1c.1-.1.1-.2.2-.2h6.4Z" transform="translate(0.2 0.2)" fill="#fff"/><path d="M24.7.9h.5c1-.2.6,1.9.6,2.6v.4c0,.1.1.2.1.3a1.4,1.4,0,0,1-.9.3h-.8V6c.1,1.6.1,3.1.2,4.7s.2,18.5.3,22.6c.1.5.1,1,.2,1.4H26s.5.5.4.5v2.3c-.1,1.5-1.9.9-3.1,1H17.7c-.5-.5-.2-3.2-.2-3.2v-.3h0V35c.3-.2.6-.1,1-.1H19a4.2,4.2,0,0,0,.2-1.8c0-.1-.3-16.7-.4-17.3L18.5,4.7c0-.2-.8-.3-.8-.3s-.9.1-.9-.3V2h.1V1h7.9Z" transform="translate(0.2 0.2)" fill="#fff"/><path d="M14.3,1.1c.4.6.1,4.8.1,5.8a2.5,2.5,0,0,0,.1.8v2.6c0,.6.1,1.2.1,1.9s-2.8.4-3.7.6h-.5c-.6.1-.7-.2-.7-.8v-.3h0V7.8c-.3-1.4.6-3.1-1.2-3.2a1.1,1.1,0,0,0-1,.1c-.3.4.2,12.4.2,12.5a.2.2,0,0,0,.2.2H9.1c.3-.4.1-1.2.1-1.7v-.2c0-.3-.1-1.7.2-1.7h3.4c0,.7.1,1.3.1,1.9s.3,8.7,0,8.9H9.7c-.4-.4-.4-2.3-.4-2.4V22h.1c-.2-1.3-1.6-.9-1.6-.5s.1,4.9.1,4.9v1.1c0,1.5.2,6.4.2,7.1s.5.6.5.4h.8c.5-.1.7.3.6.7s-.1,2.5-.1,2.9H.6V36.4h0v-.2h0v-1a6.9,6.9,0,0,1,2-.3H2.4c.1,0-.6-29.1-.6-30S.3,4.5.3,4.7H.2c-.6-.1-.4-3.2-.4-3.3L0,1.1H13.3S14.1.9,14.3,1.1Z" transform="translate(0.2 0.2)" fill="#fff"/><path d="M56.8.5H67a12.4,12.4,0,0,1,2,.6c2,1.4,1.6,4.2,1.7,6.5,0,.3.1.6.1,1v3.5c0,1.2,0,2.3.1,3.4h-.1c.4,4.7-.1,7-5.3,7-.2,0-2-.1-2,.2.1,2.9.1,5.9.2,8.8,0,.9.1,1.9.1,2.8l.5.2h0c.1,0,.2,0,.2.1h.3c.6-.2.6.3.6.7s.4,3-.5,3.1H60.5a.1.1,0,0,1-.1.1h-.8a16,16,0,0,1-3.1,0c-.1-1.2-.1-2.3-.1-3.5l.4-.2h.7c.2-.1.5,0,.6-.3V32.6c0-1.8,0-3.7-.1-5.5,0-.1.1-.1.1-.2H58v-5c0-1.7-.2-14.3-.2-14.4h0c-.3-1.9.9-3.4-1.6-3.4h-.3V3.4c0-.7-.4-2.9.5-2.9Zm6.8,3.7c-.5.2-.3,1.6-.3,2.2V8.1c0,1.2.1,2.4.1,3.6v1.2h0c0,1.1,0,2.2.1,3.3s-.1.6-.1.9h0v.2c0,.1.1.2.1.3a1.9,1.9,0,0,0,.1.8c-.1.4.2.5.2.6h.9c1-.3.7-1.8.7-2.8V16a.6.6,0,0,1-.1-.4h0V10.9h0c0-1.3-.1-2.7-.1-4h0V6.6h0V6.2h.1V5.7C65.1,4.3,65,4.3,63.6,4.2Z" transform="translate(0.2 0.2)" fill="#fff"/><path d="M126.3,34.8a1,1,0,0,0-.9-.2h-.9l-.4-.4-.3-2.1v-.5h0c-.4-3.7-.8-7.5-1.3-11.2v-.5h0l-.3-2.6c-.1-.5-.1-1-.2-1.5v-.6h-.1c-.1-1.2-.2-2.3-.4-3.5s-.3-2.9-.5-4.4-.1-.4-.1-.6V6.1a6.8,6.8,0,0,0-.5-3.2h-.1l-.7-.9h-.1c0-.4-1.3-1.5-1.8-1.4h-3.8c-.2,0-.4,0-.5.3h0L112,2.2h-.1l-.7.7h0c0,.8-.3,2.7-.4,3.7s-.1,2.1-.2,3.2-.1,1-.2,1.5h0v.9c-.1,1.5-.3,3-.4,4.5h0v.7h-.1a19.3,19.3,0,0,1-.1,2.4h0c-.1,1.6-.3,3.1-.4,4.7v.8h0a9.7,9.7,0,0,0-.1,1.7,8.2,8.2,0,0,0-.2,1.8v.4a19.5,19.5,0,0,0-.2,2.3h0l-.3,2.2-.3.2h-1.8c0,.1-.1.2-.1.4h0v.2h0v.5c-.1.9-.4,2.7.8,2.7h5.7c.5,0,1.5.2,1.8-.1a8.3,8.3,0,0,0-.1-3.5c-.3-.5-1.3.1-1.5-.5s.2-2.4.2-3.5.1-1.8.2-2.2.1-4.2.4-4.4,2.1-.1,2.7-.1h.3l.3.4c.2,1.1,1.1,9.3.9,9.8a1.2,1.2,0,0,1-.8.2h-.5c-.3,0-.6,0-.7.2h0v1.5h0v.5c0,1.5,0,1.4,1.3,1.5h4.8c.1,0,.1,0,.1-.1s3.5.3,4-.1A9.7,9.7,0,0,0,126.3,34.8Zm-9.6-14.3h-2.1c-1,0-.5-1.7-.5-2.5v-.4c.1-1.7.2-3.4.4-5.1h0a19.4,19.4,0,0,1,.2-2.4,21.8,21.8,0,0,1,.1-2.5,18,18,0,0,1,.2-2.2c.5.8.5,4.2.7,5.3h0v.5a1.3,1.3,0,0,1,.1.6c0,.3.1.7.1,1.1l.3,2.3v.2h0v.2c0,.1.1.2.1.3s.3,2.9.4,4.4Z" transform="translate(0.2 0.2)" fill="#fff"/><path d="M132.3.3h4.3c0-.1,0-.1.1-.1h1.4c1.5.1,2.7.3,3.6,1.5l.3.7.2.2a25.6,25.6,0,0,1,.5,2.7v6.1c.1,6.4.1,12.8.2,19.2h0c0,1.6.2,3.5-.3,4.8s-.1.3-.1.4l-.3.3c-.1.4-1.8,1.7-1.8,1.7l-.7.2c-1,.2-2.1.1-3.2.2h-.2a2.9,2.9,0,0,0-1.6-.1h-7.2c-.3-.2-.2-2.8-.2-3.4l.6-.2h1.2c-.1-.3,0-3.2,0-4.1V25.5c0-3.4,0-6.8-.1-10.2V10.8h.1c-.1-1.1-.1-2.1-.1-3.2V5c.1-.5,0-.9-.6-.9h0c-1.8.5-1.3-1.8-1.3-3V.6l.2-.2h5Zm3.1,3.8c-.9.2-.5,2.3-.5,3.1V8.5h.1l-.2.3c0,1.1,0,2.2.1,3.3h0v2.1h.1c0,.8-.1,1.6-.1,2.5h.1a1.1,1.1,0,0,0-.1.5v4.3c0,1.6.1,3.1.1,4.7h0v.5h0v.5c0,1.2-.1,2.4-.1,3.5a.4.4,0,0,0,.1.3v.4c0,.8-.3,2.9.6,2.9h.7l.5-.3c0-.2.1-.4.1-.6h-.1c0-.2.1-.4.1-.6a.1.1,0,0,1-.1-.1h.1V25.3h0V21h0v-.2h0V15.8h0v-.2h0V10.5h0V6h0V5.7a6.4,6.4,0,0,1-.2-.7c.2-.4-.3-.5-.3-.8Z" transform="translate(0.2 0.2)" fill="#fff"/><path d="M221.3,32.8v-13c-.1-1.4-.1-2.8-.1-4.2v-.5c0-1.2,0-4.8-.1-5.3-.2-3.5,1-8.1-2.6-9.5L217.2,0H205.9a1.4,1.4,0,0,1-.2.6c0,.7-.2,2.3.2,2.9s1.3-.1,1.5.5v9.4c0,.5.1,1,.1,1.6s-.1.4,0,.6v7.1c.1,2.9.1,8.8.1,8.8s-.1,1.7-.1,2.6h-1.3l-.3.3h0v2.2c.1,2.3.9,1.2,2.6,1.6h7.3a5.8,5.8,0,0,0,3.3-.7l1.3-1.2h0l.8-2C221.2,33.9,221.3,33.3,221.3,32.8Zm-5.8-2.7h-.1c0,1,.2,3.8-.5,4.2h-1.5a21.7,21.7,0,0,1-.1-2.6v-.5c-.1-2.1-.1-4.3-.1-6.4V22a.6.6,0,0,0-.1-.4v-10a.4.4,0,0,1-.1-.3V6.6c0-.7-.3-2.3.3-2.8s1.8-.3,1.9,1.8h-.1c.1,1.7.1,3.4.1,5.1v4.8h0v.3c0,1.4.1,2.8.1,4.3v5h0c.1,1.6.1,3.2.1,4.8Z" transform="translate(0.2 0.2)" fill="#fff"/></svg>