<svg xmlns="http://www.w3.org/2000/svg" viewBox="0 0 43.3 23.2">
  <title>NWT Logo</title>
  <path
    d="M12.2.1V4.4c-.2.1-.5.1-.7.4s0,16.4.2,18.1-.6,0-.8.2a28.1,28.1,0,0,0-2.9,0H8c-.3.2-.3-.4-.4-.5S6.4,18.3,6.1,17s-.8-2.4-1-2.7A10.5,10.5,0,0,0,5,16.8c.1.6-.3,1.8.7,2.1A14.8,14.8,0,0,1,5.8,21a12.7,12.7,0,0,0,.1,2H.3C.2,21.6.2,20.3.2,19s.9-.2.9-.7c.1-2.5,0-4.9,0-7.4S1,5.6,1,5.2L.5,4.6C-.2,4.9,0,.5.1.1H4.9c.7,2.5,2.4,8.1,2.5,8.2s.1-.5.1-.5S7.6,5,7.1,4.6s-.7-.2-.6-.6h0c0-1.4.1-2.5,0-3.8A2.5,2.5,0,0,1,7.7,0h4.5Z"
  />
  <path
    d="M22,0c.7,0,.7,0,.8.5.5,2.8,1,6.6,1.7,9.4h.1a24.1,24.1,0,0,1,.7-3.7c-.1-.6.5-1.6-.2-2h-.3V.2L25,0h5.6V4.2a1.8,1.8,0,0,0-.9.4c-.7,3.5-1.2,7-1.8,10.5s-.9,5.3-1.5,7.9H23.8l-.2-.2c-.3-3-.8-6-1.4-9-.1-.1.1-.4-.1-.5l-.2.2c-.6,3.2-1.2,6.3-1.7,9.5H17.4c-.8-6.1-2-11.9-2.8-17.9-.1-.3-.1-.7-.5-.8s-.5-.2-.5-.5V.2h5.8c.2,1.3,0,2.5.1,3.9s-.7.3-.8.8a24.4,24.4,0,0,0,.7,4.6h.1C20,6.5,20.6,3.7,21.1.5,21,0,21.3,0,22,0Z"
  />
  <path
    d="M40,.1a8.5,8.5,0,0,1,3.2.2,7.4,7.4,0,0,1,0,2.1c0,1.7.1,3.4,0,5.3H41c-.3-.3,0-.8-.2-1s-.5-2.4-1-2c-.1,2.8-.1,8.7-.1,8.7v4.8a1,1,0,0,0,.9.6c.2,1.5-.1,2.8.1,4.3s-.8,0-1.3,0h-3c-.5.2-1.1-.1-1.7.1s-.2-.7-.1-1,0-2.2-.1-3.3.5,0,.8-.2.2-2.1.3-3.2V6.3h0c-.1-.4.1-1.5,0-1.7h0c-.8.1-.9,1.1-1.1,1.7a5.9,5.9,0,0,1-.2,1.4H32l-.2-.3V.3c0-.2.3-.2.4-.3S39.8-.1,40,.1Z"
  />
</svg>
