<svg xmlns="http://www.w3.org/2000/svg" viewBox="0 0 420 65.1">
  <circle r="10" transform="translate(28 47)" fill="#da4530"/>
  <circle r="10" transform="translate(46.6 28.4)" fill="#f7c554"/>
  <circle r="10" transform="translate(28 10)" fill="#54b7bc"/>
  <circle r="10" transform="translate(10 28.4)" fill="#3581bc"/>
  <g fill="#12100b" transform="translate(3 0.2)">
    <path
      d="M79.6,39.7a4.2,4.2,0,0,0,.9,2.9,3.6,3.6,0,0,0,2.4.7h3v7.1H78.4a8.3,8.3,0,0,1-3.2-.4,6.8,6.8,0,0,1-2.6-1.8A8.5,8.5,0,0,1,71,45.4a10.5,10.5,0,0,1-.6-3.6V5.6h9.2Z"
      transform="translate(0 0.2)"/>
    <path
      d="M104.1,50.6c-5,0-8.9-1.4-11.8-4.2S88,39.8,88,35s1.5-8.8,4.5-11.6,6.9-4.2,12-4.2,8.8,1.4,11.6,4.2,4.3,6.5,4.3,11.1-1.5,8.9-4.4,11.7S109.2,50.6,104.1,50.6Zm.2-24.3a6.1,6.1,0,0,0-5.1,2.2,10,10,0,0,0-1.8,6.4c0,5.7,2.3,8.6,7,8.6s6.6-2.9,6.6-8.8S108.8,26.3,104.3,26.3Z"
      transform="translate(0 0.2)"/>
    <path
      d="M252.4,50.6q-7.5,0-11.7-4.2c-2.9-2.8-4.3-6.6-4.3-11.4s1.5-8.8,4.4-11.6,7-4.2,12-4.2,8.9,1.4,11.7,4.2,4.2,6.5,4.2,11.1-1.4,8.9-4.3,11.7S257.5,50.6,252.4,50.6Zm.3-24.3a6.1,6.1,0,0,0-5.1,2.2,10,10,0,0,0-1.8,6.4c0,5.7,2.3,8.6,6.9,8.6s6.6-2.9,6.6-8.8S257.1,26.3,252.7,26.3Z"
      transform="translate(0 0.2)"/>
    <path
      d="M155.9,49.8H144.8L135.2,35h-.1V49.8h-9.2V5.6h9.2V33.8h.1l8.9-13.9h11L144.4,34Z"
      transform="translate(0 0.2)"/>
    <path
      d="M187.7,49.8h-9.2V45.3h-.1c-2.3,3.5-5.3,5.3-9.1,5.3-7,0-10.4-4.2-10.4-12.6V19.9h9.2V37.1c0,4.3,1.6,6.4,5,6.4a5.3,5.3,0,0,0,4-1.7,7.7,7.7,0,0,0,1.4-4.7V19.9h9.2Z"
      transform="translate(0 0.2)"/>
    <path
      d="M215.5,22,213,27.2a15.8,15.8,0,0,0-7.3-2.1c-2.3,0-3.7,1.1-3.7,2.8s.9,2.3,3.6,3l3.6,1c3.7.9,4.9,2,5.9,3.3a7.9,7.9,0,0,1,1.6,5c0,6.1-5,10.3-12.6,10.3a25.6,25.6,0,0,1-12-3.4l2.8-5.6c2.4,1.4,6.5,3.3,9.8,3.3s3.9-1.4,3.9-3.3-1.4-3.1-4.5-3.7l-3.5-.6a11.4,11.4,0,0,1-5.4-3,9.3,9.3,0,0,1-1.7-5.3c0-5.8,4.6-9.7,11.4-9.7A21.3,21.3,0,0,1,215.5,22Z"
      transform="translate(0 0.2)"/>
    <path
      d="M347.8,50.2a4.9,4.9,0,0,1-3.6-1.5,5.2,5.2,0,0,1-1.4-3.6,5.1,5.1,0,0,1,5.1-5.1,5,5,0,0,1,3.7,1.5,4.9,4.9,0,0,1,1.4,3.6,5,5,0,0,1-1.5,3.7A5.1,5.1,0,0,1,347.8,50.2Z"
      transform="translate(0 0.2)"/>
    <path
      d="M414,37.7H394.6c.3,4.3,3.1,6.1,8.2,6.1,3.3,0,3.6-.2,7.6-.8v6.5a48.4,48.4,0,0,1-9.8,1c-4.8,0-8.5-1.1-11.2-3.8s-4-6.4-4-11.2,1.5-8.9,4.3-11.8a14.5,14.5,0,0,1,10.7-4.4c4.4,0,7.7,1.3,10.1,3.9s3.5,6.1,3.5,10.6ZM405.5,32c0-4.3-1.7-6.5-5.2-6.5a5,5,0,0,0-3.8,1.9,8.1,8.1,0,0,0-2,4.6Z"
      transform="translate(0 0.2)"/>
    <path
      d="M380.7,22l-2.5,5.2c-2.9-1.5-5.1-2.2-7.3-2.2s-3.7,1.2-3.7,2.9.9,2.3,3.6,3l3.6.9c3.7,1,4.9,2,5.9,3.4a7.9,7.9,0,0,1,1.6,5c0,6.1-5.1,10.3-12.6,10.3-3.6,0-7.6-1.2-11.9-3.4l2.7-5.6c2.4,1.4,6.5,3.3,9.8,3.3s4-1.4,4-3.3-1.5-3.1-4.6-3.7l-3.5-.7a10.5,10.5,0,0,1-5.4-2.9,8.9,8.9,0,0,1-1.7-5.4c0-5.8,4.6-9.6,11.5-9.6A21.2,21.2,0,0,1,380.7,22Z"
      transform="translate(0 0.2)"/>
    <path
      d="M222.3,20h9.1V56.2a10.6,10.6,0,0,1-.6,3.7,7.1,7.1,0,0,1-1.6,2.8,7.8,7.8,0,0,1-2.6,1.7,6.8,6.8,0,0,1-3.2.5H216V57.8h2.9a3,3,0,0,0,2.5-.7,3.9,3.9,0,0,0,.9-2.8Z"
      transform="translate(0 0.2)"/>
    <path
      d="M226.9,16.6a4.5,4.5,0,0,1-3.5-1.5,4.6,4.6,0,0,1-1.5-3.6,4.6,4.6,0,0,1,1.5-3.6A4.9,4.9,0,0,1,227,6.4a5,5,0,0,1,3.7,1.5,4.9,4.9,0,0,1,1.4,3.6,5.3,5.3,0,0,1-1.4,3.7A5.6,5.6,0,0,1,226.9,16.6Z"
      transform="translate(0 0.2)"/>
    <path
      d="M282.6,46.9h-.1v3.4h-9.1V6.5h9.1V25.2h.1a10.7,10.7,0,0,1,9.6-5.2c3.8,0,6.8,1.3,8.8,3.9s3.1,6.3,3.1,10.8-1.2,8.9-3.6,11.8a11.7,11.7,0,0,1-9.6,4.5A9.5,9.5,0,0,1,282.6,46.9Zm-.3-12.5v3a7.2,7.2,0,0,0,1.7,4.8,5.9,5.9,0,0,0,9-.6,11.2,11.2,0,0,0,1.8-6.8,9.6,9.6,0,0,0-1.6-5.7,5.3,5.3,0,0,0-4.5-2.1,5.7,5.7,0,0,0-4.5,2.1A7.6,7.6,0,0,0,282.3,34.4Z"
      transform="translate(0 0.2)"/>
    <path
      d="M317.5,46.9h-.1v3.4h-9.2V6.5h9.2V25.2h.1a11.6,11.6,0,0,1,18.4-1.3c2.1,2.6,3.1,6.3,3.1,10.8s-1.2,8.9-3.6,11.8a11.9,11.9,0,0,1-9.7,4.5A9.3,9.3,0,0,1,317.5,46.9Zm-.3-12.5v3a7.2,7.2,0,0,0,1.7,4.8,5.9,5.9,0,0,0,9-.6,12,12,0,0,0,1.7-6.8,9,9,0,0,0-1.6-5.7,5.1,5.1,0,0,0-4.4-2.1,5.7,5.7,0,0,0-4.6,2.1A7.6,7.6,0,0,0,317.2,34.4Z"
      transform="translate(0 0.2)"/>
  </g>
</svg>
