<svg xmlns="http://www.w3.org/2000/svg" viewBox="0 0 810 437">
  <path id="K" class="cls-1" d="M745.361,351.487q-17.475-.681-28.137-5.219a58.439,58.439,0,0,1-19.968-14.635q-9.306-10.095-23.825-30.747L582.667,171.549l32.221-27.91q24.959-21.783,36.533-31.087A175.667,175.667,0,0,1,672.75,97.576a74.913,74.913,0,0,1,20.082-8.169,181.169,181.169,0,0,1,26.661-3.857V64.675H579.037V85.55q31.084,0,31.086,16.338a23.165,23.165,0,0,1-4.538,13.955q-4.542,6.243-14.522,14.862l-95.755,83.729V121.856q0-19.965,8.168-28.137t36.533-8.169V64.675H386.165V85.55q19.74,0,29.384,4.2T427.8,101.32q2.607,7.377,2.61,20.536V315.182q0,13.162-2.836,20.648T415.322,347.4q-9.418,4.084-29.157,4.084v20.876H540.009V351.487q-26.1,0-35.4-8.055t-9.3-28.25V248.7l39.028-34.263,66.03,93.26q18.6,26.1,18.607,34.036,0,5.445-6.467,7.6t-24.166,2.156H574.5v20.876H745.361V351.487Z"/>
  <path id="K-2" data-name="K" class="cls-1" d="M427.361,351.487q-17.475-.681-28.137-5.219a58.439,58.439,0,0,1-19.968-14.635q-9.306-10.095-23.825-30.747L264.667,171.549l32.221-27.91q24.959-21.783,36.533-31.087A175.667,175.667,0,0,1,354.75,97.576a74.913,74.913,0,0,1,20.082-8.169,181.169,181.169,0,0,1,26.661-3.857V64.675H261.037V85.55q31.084,0,31.086,16.338a23.165,23.165,0,0,1-4.538,13.955q-4.542,6.243-14.522,14.862l-95.755,83.729V121.856q0-19.965,8.168-28.137t36.533-8.169V64.675H68.165V85.55q19.741,0,29.385,4.2T109.8,101.32q2.607,7.377,2.61,20.536V315.182q0,13.162-2.836,20.648T97.322,347.4q-9.418,4.084-29.158,4.084v20.876H222.009V351.487q-26.1,0-35.4-8.055t-9.3-28.25V248.7l39.028-34.263,66.03,93.26q18.6,26.1,18.607,34.036,0,5.445-6.467,7.6t-24.166,2.156H256.5v20.876H427.361V351.487Z"/>
</svg>
