<svg xmlns="http://www.w3.org/2000/svg" viewBox="0 0 294 55.2">
  <circle r="10" transform="translate(28 45)" fill="#da4530"/>
  <circle r="10" transform="translate(46 27)" fill="#f7c554"/>
  <circle r="10" transform="translate(28 10)" fill="#54b7bc"/>
  <circle r="10" transform="translate(10 27)" fill="#3581bc"/>
  <g fill="#12100b">
    <path
      d="M79.5,39.9a4,4,0,0,0,.9,2.9c.6.7,1.4.7,2.5.7h2.9v7.1H78.4a8.8,8.8,0,0,1-3.3-.4,7.6,7.6,0,0,1-2.5-1.8,7.3,7.3,0,0,1-1.7-2.8,10.6,10.6,0,0,1-.6-3.7V5.7h9.2Z"
      transform="translate(0 0.2)"/>

    <path
      d="M104.1,50.8c-5,0-8.9-1.4-11.8-4.2S88,40,88,35.2s1.5-8.8,4.5-11.6,6.9-4.2,12-4.2,8.9,1.4,11.7,4.2,4.3,6.5,4.3,11.1-1.5,8.9-4.4,11.8S109.2,50.8,104.1,50.8Zm.2-24.3a6.1,6.1,0,0,0-5.1,2.2,10.1,10.1,0,0,0-1.8,6.4c0,5.8,2.3,8.7,7,8.7s6.6-3,6.6-8.9S108.8,26.5,104.3,26.5Z"
      transform="translate(0 0.2)"/>

    <path
      d="M156,50.1H144.9l-9.5-14.9h-.2V50.1H126V5.7h9.2V34h.2l8.9-13.9h11L144.5,34.2Z"
      transform="translate(0 0.2)"/>

    <path
      d="M188,50.1h-9.2V45.5h-.1c-2.3,3.6-5.4,5.3-9.2,5.3-7,0-10.4-4.2-10.4-12.6V20.1h9.2V37.4c0,4.2,1.7,6.4,5,6.4a4.9,4.9,0,0,0,4-1.8,7,7,0,0,0,1.5-4.7V20.1H188Z"
      transform="translate(0 0.2)"/>

    <path
      d="M215.9,22.2l-2.6,5.2c-2.9-1.5-5.1-2.2-7.3-2.2s-3.7,1.2-3.7,2.9,1,2.4,3.7,3.1l3.6.9c3.6.9,4.8,2,5.9,3.3a8,8,0,0,1,1.6,5.1c0,6.1-5.1,10.3-12.7,10.3-3.6,0-7.6-1.2-12-3.4l2.8-5.7c2.4,1.4,6.5,3.4,9.9,3.4a3.6,3.6,0,0,0,3.9-3.4c0-2-1.5-3.1-4.6-3.7l-3.5-.6a9.9,9.9,0,0,1-5.4-3,9.3,9.3,0,0,1-1.7-5.3c0-5.8,4.6-9.7,11.5-9.7A21.6,21.6,0,0,1,215.9,22.2Z"
      transform="translate(0 0.2)"/>

    <path
      d="M226.5,50.5a4.9,4.9,0,0,1-3.6-1.5,5.3,5.3,0,0,1-1.4-3.7,4.8,4.8,0,0,1,1.5-3.6,4.9,4.9,0,0,1,3.7-1.4,5.1,5.1,0,0,1,3.6,1.4,5.2,5.2,0,0,1,1.4,3.6,5,5,0,0,1-1.4,3.7A5,5,0,0,1,226.5,50.5Z"
      transform="translate(0 0.2)"/>

    <path
      d="M293,37.9H273.4c.3,4.4,3.1,6.2,8.3,6.2,3.3,0,3.6-.2,7.6-.8v6.4a42,42,0,0,1-9.8,1.1c-4.8,0-8.6-1.1-11.2-3.8s-4-6.5-4-11.3,1.4-8.9,4.3-11.8a14.5,14.5,0,0,1,10.7-4.4c4.3,0,7.7,1.3,10.1,3.9S293,29.5,293,34Zm-8.6-5.7c0-4.3-1.7-6.4-5.2-6.4a5.1,5.1,0,0,0-3.9,1.8,8.7,8.7,0,0,0-1.9,4.6Z"
      transform="translate(0 0.2)"/>

    <path
      d="M259.6,22.2,257,27.4c-3-1.5-5.1-2.2-7.3-2.2s-3.8,1.2-3.8,2.9,1,2.3,3.7,3l3.6,1c3.7.9,4.9,2,5.9,3.3a8,8,0,0,1,1.7,5.1c0,6.1-5.1,10.3-12.7,10.3-3.7,0-7.7-1.2-12-3.4l2.8-5.7c2.3,1.4,6.5,3.3,9.8,3.3s4-1.4,4-3.3-1.5-3.1-4.6-3.7l-3.5-.6a10.2,10.2,0,0,1-5.4-3,8.6,8.6,0,0,1-1.7-5.3c0-5.8,4.6-9.7,11.4-9.7A22,22,0,0,1,259.6,22.2Z"
      transform="translate(0 0.2)"/>
  </g>
</svg>
