<svg xmlns="http://www.w3.org/2000/svg" viewBox="0 0 200 100">
  <g fill="#fa4e49">
    <path d="M167.78,60.274c-0.022,1.28-1.094,2.347-2.337,2.327c-1.337-0.02-2.408-1.119-2.356-2.417
    c0.056-1.281,1.103-2.278,2.392-2.277C166.705,57.908,167.804,59.036,167.78,60.274"/>
    <path d="M160.325,32.193c-0.024,1.28-1.094,2.346-2.338,2.327c-1.337-0.02-2.409-1.12-2.354-2.417
    c0.055-1.281,1.102-2.278,2.391-2.277C159.25,29.827,160.347,30.956,160.325,32.193"/>
    <path d="M121.526,32.193c-0.021,1.28-1.095,2.346-2.337,2.327c-1.336-0.02-2.409-1.12-2.355-2.417
    c0.054-1.281,1.102-2.278,2.391-2.277C120.451,29.827,121.55,30.956,121.526,32.193"/>
    <path d="M153.279,82.701c-4.281,0-6.031-4.527-6.031-8.777c0-3.749,1.752-8.148,8.752-9.787V39h4v25.207
    c7,1.284,8.637,7.346,8.734,7.648l-4.393,1.439C164.288,73.134,163,69.83,160,68.649v5.584
    C160,81.979,155.221,82.701,153.279,82.701 M156,68.462c-4,0.763-4.199,3.438-4.199,6.503c0,4.405,4.199,4.39,4.199,0.89V68.462z"/>
    <path d="M175.463,68.249c-2.699,0-5.092-2.438-5.413-2.78l2.41-2.27c0.761,0.801,2.562,2.104,3.454,1.626
    c1.068-0.574,1.126-1.111,1.145-1.288c0.104-0.959-0.872-2.416-1.873-3.271c-1.744-1.483-6.381-5.429-3.73-9.415
    c1.146-1.723,2.557-2.21,3.539-2.316c2.637-0.286,4.895,1.817,5.143,2.058l-2.303,2.377l1.15-1.188l-1.146,1.193
    c-0.348-0.331-1.559-1.242-2.494-1.148c-0.151,0.017-0.607,0.068-1.133,0.858c-0.68,1.02,0.371,2.723,3.119,5.062
    c0.346,0.294,3.359,2.962,3.02,6.142c-0.119,1.118-0.715,2.693-2.871,3.851C176.807,68.102,176.125,68.249,175.463,68.249z"/>
    <path d="M189.001,68.2c-1.251,0-2.385-0.474-3.278-1.369c-2.359-2.366-2.414-7.076-2.413-7.605
    c-0.036-0.543-0.296-6.268,2.318-9.042c0.942-1,2.165-1.528,3.536-1.528c1.263,0,2.376,0.483,3.222,1.396
    c2.183,2.359,1.892,6.98,1.852,7.5l-0.119,1.529l-7.506-0.015c0.001,0.022,0.002,0.045,0.003,0.066
    c0.004,1.222,0.43,5.758,2.386,5.758c1.362,0,2.042-2.384,2.048-2.408l3.211,0.802C193.805,65.11,192.184,68.2,189.001,68.2z
     M186.793,55.757l4.144,0.009c-0.075-1.269-0.339-2.775-0.981-3.468c-0.22-0.237-0.449-0.334-0.791-0.334
    c-0.461,0-0.809,0.151-1.127,0.487C187.389,53.139,187,54.422,186.793,55.757z"/>
    <path d="M157.66,59.682c-3.082,2.938-6.365,5.217-10.734,5.021c-4.433-0.203-7.517-2.644-9.734-5.83
    c-2.643,1.781-4.927,3.839-7.597,5.01c-5.052,2.217-9.14,0.523-12.103-4.476c-0.924,0.808-1.803,1.661-2.768,2.397
    c-3.025,2.308-6.352,3.507-10.206,2.612c-3.237-0.751-5.439-3.038-5.668-6.352c-0.23-3.334-0.162-6.69-0.21-10.039
    c-0.039-2.763-0.811-3.85-2.764-3.843c-2.562,0.009-4.704,1.734-4.704,3.949C91.17,53.422,91.171,59,91.171,64H87v-1.62
    c0-4.878-0.201-9.757-0.222-14.635c-0.014-3.171-1.922-4.326-4.854-3.112c-1.787,0.739-2.774,1.677-2.698,3.854
    C79.41,53.65,79.231,59,79.231,64H75v-4.341c-9,6.272-12.942,6.635-17.91,1.747c-1.714,1.786-3.896,2.819-6.382,3.146
    c-4.03,0.529-7.44-1.276-8.869-5.126c-1.801-4.852-1.611-9.725,0.669-14.366c2.601-5.296,7.661-7.002,12.891-4.425
    C55.99,39.465,57,39.384,60,39.766v1.839c0,4.763,0.203,9.522,0.236,14.283c0.027,3.819,2.396,5.454,6.034,4.319
    c3.715-1.155,6.031-4.017,8.088-7.054c0.288-0.425,0.225-1.504,0.226-2.084C74.599,47.205,74.62,44,74.62,39h4.446
    c0.095,2,0.194,1.299,0.296,1.784c5.771-2.652,7.894-2.246,10.726,1.13c1.571-0.821,3.027-1.785,4.653-2.285
    c4.423-1.358,7.986,1.023,8.408,5.617c0.295,3.207,0.193,6.475,0.211,9.706c0.035,5.357,3.173,7.291,7.73,4.353
    c2.248-1.451,3.965-3.746,5.823-5.754c0.36-0.39,0.363-1.16,0.37-1.781L117.24,39H122v2.656c0,4.702-0.07,9.405-0.036,14.107
    c0.027,3.978,2.134,5.537,5.952,4.421c2.914-0.852,4.916-2.888,6.643-5.236c0.224-0.305,0.104-0.984-0.049-1.427
    c-3.361-9.883-3.582-19.915-1.395-30.044c0.268-1.235,0.799-2.466,1.443-3.562c2.008-3.411,5.965-3.529,7.932-0.109
    c1.027,1.788,1.729,3.877,2.09,5.919c1.762,9.978,1.128,19.648-4.197,28.619c-0.233,0.396-0.252,1.14-0.04,1.548
    c2.396,4.63,7.731,6.108,11.939,3.07c1.956-1.413,3.495-3.429,5.106-5.275L157.66,59.682z M55.855,51.37
    c0-1.112,0.098-2.236-0.032-3.333c-0.091-0.762-0.32-1.628-0.787-2.202c-2.397-2.945-6.587-2.309-8.31,1.291
    c-1.473,3.075-1.445,6.354-0.786,9.624c0.635,3.155,2.881,4.41,5.868,3.19c1.03-0.42,1.938-1.266,2.747-2.072
    C56.405,56.021,55.763,53.607,55.855,51.37 M138.597,23.549c-0.986,0-1.723,0.804-1.796,1.949c-0.054,0.837-1.086,24.02,1.125,24.02
    c1.064,0,2.626-6.641,2.979-13.059c0.311-5.651-0.463-11-0.523-11.391C140.239,24.158,139.582,23.549,138.597,23.549z"/>
    <path d="M39,18.927v0.004c-7.605-0.002-15.284-0.014-22.883,0.018c-1.108,0.004-2.24,0.13-3.318,0.381
    c-3.32,0.771-5.787,2.564-6.61,6.06c-1.223,5.198,1.344,9.055,6.962,10.375c0.494-1.186,0.999-2.389,1.53-3.658
    c-0.499-0.129-0.782-0.186-1.056-0.274c-2.569-0.831-3.533-2.122-3.345-4.446c0.207-2.544,1.439-3.868,4.154-4.167
    c1.628-0.18,3.306-0.094,4.952-0.102C22.242,23.104,24,23.113,28,23.113V41H15v3h12.996c0.053,4-0.016,8.294-2.256,11.696
    C23.137,59.65,19,60.248,15,60.256v4.131c0,0,1.615-0.146,2.429-0.154c8.391-0.078,13.854-5.167,14.874-13.469
    C32.557,48.688,32.646,46,32.826,44H39v-3h-6V23h6h2v-2.05V19v-0.004v-0.069H39z"/>
    <rect x="86.793" y="49.56" width="4.378" height="14.44"/>
    <rect x="74.997" y="39" width="4.378" height="6.527"/>
  </g>
</svg>
