<?xml version="1.0" encoding="utf-8"?>
<svg version="1.1" xmlns="http://www.w3.org/2000/svg" xmlns:xlink="http://www.w3.org/1999/xlink" x="0px" y="0px"
	 viewBox="0 0 1304.6 243.3" style="enable-background:new 0 0 1304.6 243.3;" xml:space="preserve">
<g id="Lager_1" fill="#0072B4">
	<g>
		<polyline class="st0" points="152.5,186.9 200.6,186.9 200.6,217.2 121.8,217.2 121.8,34.3 152.5,34.3 152.5,186.9 		"/>
		<path class="st0" d="M65,185l4.4,0c5.8,0,8.9-4.4,8.9-10.2V137l-32.4,0c-12.9,0-22.9-11.2-22.9-23.7V49.5
			c0-12.4,10-23.7,22.9-23.7h41.7c12.9,0,22.9,11.2,22.9,23.7v39.8H78.3l0-25.2c0-5.8-3.3-10.1-9-10.1l-1.6,0c-5.7,0-9,4.3-9,10.1
			v23.2v16.2l28.7,0c12.9,0,22.9,11.3,22.9,23.7l0,63.5v3.8c-0.2,11.1-11.1,23.2-23.9,23.2H46c-12.9,0-22.9-11.2-22.9-23.7l0-43.3
			h32.8l0.1,24.2C56,180.7,59.3,185,65,185z"/>
		<path class="st0" d="M233.7,25.8c12.9,0,22.9,10.5,22.9,23.5v168.4h-32.1l-0.1-81.3H200V175h-32V49.3c0-13,10-23.5,22.9-23.5
			L233.7,25.8 M223.9,67c0-5.8-3.2-10.1-9-10.1h-5.4h-0.4c-5.8,0-9,4.3-9,10.1v0.6v37.1H224L223.9,67"/>
	</g>
	<g>
		<g>
			<path class="st0" d="M313.7,141.2c4.1,2.5,10.1,4.6,16.4,4.6c9.3,0,14.8-4.9,14.8-11.9c0-6.5-3.8-10.3-13.3-13.9
				c-11.5-4-18.7-10-18.7-19.8c0-10.9,9.1-19,22.8-19c7.2,0,12.5,1.7,15.6,3.4l-2.5,7.4c-2.3-1.2-7-3.3-13.4-3.3
				c-9.6,0-13.3,5.7-13.3,10.5c0,6.5,4.3,9.8,14,13.5c11.9,4.6,18,10.3,18,20.5c0,10.8-8.1,20.1-24.7,20.1c-6.8,0-14.3-2-18-4.5
				L313.7,141.2z"/>
			<path class="st0" d="M375.7,125h0.2c1.3-1.8,3-3.9,4.5-5.7l14.9-17.3h11.1l-19.6,20.6l22.3,29.6h-11.2l-17.5-24.1l-4.7,5.2v18.9
				h-9.1V78.6h9.1V125z"/>
			<path class="st0" d="M444.2,152.2l-0.7-6.3h-0.3c-2.8,3.9-8.3,7.5-15.5,7.5c-10.3,0-15.5-7.2-15.5-14.4
				c0-12.1,10.9-18.8,30.5-18.7v-1c0-4.1-1.2-11.6-11.5-11.6c-4.7,0-9.6,1.5-13.2,3.7l-2.1-6c4.2-2.7,10.3-4.5,16.7-4.5
				c15.5,0,19.3,10.5,19.3,20.5v18.8c0,4.4,0.2,8.6,0.8,12H444.2z M442.8,126.6c-10.1-0.2-21.5,1.6-21.5,11.3c0,5.9,4,8.7,8.7,8.7
				c6.6,0,10.8-4.2,12.3-8.4c0.3-0.9,0.5-2,0.5-2.9V126.6z"/>
			<path class="st0" d="M466.9,117.7c0-5.9-0.1-11-0.4-15.7h8.1l0.3,9.9h0.4c2.3-6.7,7.9-11,14-11c1,0,1.8,0.1,2.6,0.3v8.6
				c-0.9-0.2-1.9-0.3-3.1-0.3c-6.5,0-11.1,4.9-12.4,11.7c-0.2,1.2-0.4,2.7-0.4,4.3v26.8h-9.1V117.7z"/>
			<path class="st0" d="M529.6,152.2l-0.7-6.3h-0.3c-2.8,3.9-8.3,7.5-15.5,7.5c-10.3,0-15.5-7.2-15.5-14.4
				c0-12.1,10.9-18.8,30.5-18.7v-1c0-4.1-1.2-11.6-11.5-11.6c-4.7,0-9.6,1.5-13.2,3.7l-2.1-6c4.2-2.7,10.3-4.5,16.7-4.5
				c15.5,0,19.3,10.5,19.3,20.5v18.8c0,4.4,0.2,8.6,0.8,12H529.6z M528.2,126.6c-10.1-0.2-21.5,1.6-21.5,11.3c0,5.9,4,8.7,8.7,8.7
				c6.6,0,10.8-4.2,12.3-8.4c0.3-0.9,0.5-2,0.5-2.9V126.6z"/>
			<path class="st0" d="M551.9,152.2c0.2-3.4,0.4-8.5,0.4-13V78.6h9.1v31.5h0.2c3.2-5.6,9.1-9.2,17.3-9.2
				c12.6,0,21.5,10.4,21.4,25.6c0,17.9-11.4,26.9-22.7,26.9c-7.3,0-13.2-2.8-17-9.4h-0.3l-0.4,8.3H551.9z M561.5,132.1
				c0,1.1,0.2,2.3,0.4,3.3c1.8,6.3,7.1,10.7,13.8,10.7c9.6,0,15.4-7.8,15.4-19.3c0-10.1-5.2-18.7-15.1-18.7c-6.3,0-12.2,4.3-14,11.2
				c-0.2,1-0.5,2.3-0.5,3.7V132.1z"/>
			<path class="st0" d="M658.2,126.7c0,18.6-13,26.7-25.3,26.7c-13.7,0-24.3-10-24.3-25.8c0-16.8,11.1-26.7,25.2-26.7
				C648.3,100.9,658.2,111.3,658.2,126.7z M618,127.2c0,11,6.4,19.3,15.4,19.3c8.8,0,15.4-8.2,15.4-19.5c0-8.5-4.3-19.3-15.2-19.3
				C622.7,107.7,618,117.7,618,127.2z"/>
			<path class="st0" d="M670.2,117.7c0-5.9-0.1-11-0.4-15.7h8.1l0.3,9.9h0.4c2.3-6.7,7.9-11,14-11c1,0,1.8,0.1,2.6,0.3v8.6
				c-0.9-0.2-1.9-0.3-3.1-0.3c-6.5,0-11.1,4.9-12.4,11.7c-0.2,1.2-0.4,2.7-0.4,4.3v26.8h-9.1V117.7z"/>
			<path class="st0" d="M748.4,102c-0.2,3.6-0.4,7.7-0.4,13.8V145c0,11.5-2.3,18.6-7.2,22.9c-4.9,4.6-12.1,6-18.4,6
				c-6.1,0-12.8-1.5-16.9-4.1l2.3-7c3.4,2.1,8.6,3.9,14.9,3.9c9.4,0,16.4-4.9,16.4-17.5v-5.6h-0.2c-2.8,4.7-8.3,8.4-16.1,8.4
				c-12.6,0-21.6-10.6-21.6-24.5c0-17,11.2-26.7,22.8-26.7c8.8,0,13.6,4.6,15.8,8.7h0.2l0.4-7.6H748.4z M738.9,121.8
				c0-1.6-0.1-2.9-0.5-4.1c-1.7-5.3-6.2-9.6-12.9-9.6c-8.8,0-15.1,7.4-15.1,19c0,9.9,5,18.1,15,18.1c5.7,0,10.8-3.5,12.8-9.3
				c0.5-1.6,0.7-3.3,0.7-4.9V121.8z"/>
			<path class="st0" d="M762.4,142.9c2.7,1.8,7.5,3.6,12.2,3.6c6.7,0,9.9-3.3,9.9-7.5c0-4.4-2.6-6.7-9.4-9.2
				c-9.1-3.2-13.4-8.2-13.4-14.2c0-8.1,6.6-14.7,17.5-14.7c5.1,0,9.6,1.5,12.5,3.1l-2.3,6.6c-2-1.2-5.7-2.9-10.4-2.9
				c-5.5,0-8.5,3.1-8.5,6.8c0,4.1,3,6,9.6,8.5c8.8,3.3,13.3,7.7,13.3,15.1c0,8.8-6.9,15-19,15c-5.6,0-10.7-1.3-14.3-3.4L762.4,142.9
				z"/>
			<path class="st0" d="M839.7,130.2l-7.3,22H823l24-69.9h11l24.1,69.9h-9.7l-7.5-22H839.7z M862.9,123.2L856,103
				c-1.6-4.6-2.6-8.7-3.7-12.8h-0.2c-1,4.1-2.2,8.4-3.6,12.7l-6.9,20.2H862.9z"/>
			<path class="st0" d="M892.5,78.6h9.2v73.7h-9.2V78.6z"/>
			<path class="st0" d="M917.5,78.6h9.2v73.7h-9.2V78.6z"/>
			<path class="st0" d="M947.7,128.8c0.2,12.3,8.2,17.4,17.4,17.4c6.6,0,10.6-1.1,14-2.6l1.6,6.5c-3.2,1.5-8.8,3.1-16.9,3.1
				c-15.6,0-24.9-10.2-24.9-25.3c0-15.1,9-27.1,23.8-27.1c16.6,0,21,14.4,21,23.7c0,1.9-0.2,3.3-0.3,4.3H947.7z M974.7,122.2
				c0.1-5.8-2.4-14.8-12.8-14.8c-9.3,0-13.4,8.5-14.2,14.8H974.7z"/>
			<path class="st0" d="M995.4,78.6h9.2v31.3h0.2c1.5-2.6,3.8-4.9,6.6-6.4c2.7-1.6,6-2.6,9.4-2.6c6.8,0,17.7,4.1,17.7,21.5v29.9
				h-9.2v-28.8c0-8.1-3-14.9-11.7-14.9c-6,0-10.7,4.1-12.4,9.1c-0.5,1.2-0.6,2.6-0.6,4.4v30.3h-9.2V78.6z"/>
			<path class="st0" d="M1082,152.2l-0.7-6.3h-0.3c-2.8,3.9-8.3,7.5-15.5,7.5c-10.3,0-15.5-7.2-15.5-14.4
				c0-12.1,10.9-18.8,30.5-18.7v-1c0-4.1-1.2-11.6-11.5-11.6c-4.7,0-9.6,1.5-13.2,3.7l-2.1-6c4.2-2.7,10.3-4.5,16.7-4.5
				c15.5,0,19.3,10.5,19.3,20.5v18.8c0,4.4,0.2,8.6,0.8,12H1082z M1080.6,126.6c-10.1-0.2-21.5,1.6-21.5,11.3c0,5.9,4,8.7,8.7,8.7
				c6.6,0,10.8-4.2,12.3-8.4c0.3-0.9,0.5-2,0.5-2.9V126.6z"/>
			<path class="st0" d="M1104.7,115.6c0-5.2-0.1-9.4-0.4-13.6h8.2l0.5,8.3h0.2c2.5-4.8,8.4-9.4,16.8-9.4c7,0,17.9,4.1,17.9,21.4v30
				h-9.2v-28.9c0-8.1-3-14.8-11.7-14.8c-6.1,0-10.8,4.3-12.4,9.3c-0.4,1.1-0.6,2.7-0.6,4.3v30.2h-9.2V115.6z"/>
			<path class="st0" d="M1207,78.6v60.7c0,4.5,0.1,9.5,0.4,13h-8.3l-0.4-8.7h-0.2c-2.8,5.6-9,9.9-17.3,9.9
				c-12.3,0-21.7-10.3-21.7-25.5c-0.1-16.7,10.4-27,22.7-27c7.8,0,13,3.6,15.3,7.7h0.2v-30H1207z M1197.8,122.4
				c0-1.1-0.1-2.7-0.4-3.8c-1.4-5.8-6.4-10.6-13.3-10.6c-9.5,0-15.2,8.3-15.2,19.4c0,10.2,5,18.6,15,18.6c6.2,0,11.8-4,13.5-10.9
				c0.3-1.2,0.4-2.5,0.4-3.9V122.4z"/>
			<path class="st0" d="M1250.7,152.2l-0.7-6.3h-0.3c-2.8,3.9-8.3,7.5-15.5,7.5c-10.3,0-15.5-7.2-15.5-14.4
				c0-12.1,10.9-18.8,30.5-18.7v-1c0-4.1-1.2-11.6-11.5-11.6c-4.7,0-9.6,1.5-13.2,3.7l-2.1-6c4.2-2.7,10.3-4.5,16.7-4.5
				c15.5,0,19.3,10.5,19.3,20.5v18.8c0,4.4,0.2,8.6,0.8,12H1250.7z M1249.4,126.6c-10.1-0.2-21.5,1.6-21.5,11.3c0,5.9,4,8.7,8.7,8.7
				c6.6,0,10.8-4.2,12.3-8.4c0.3-0.9,0.5-2,0.5-2.9V126.6z"/>
		</g>
	</g>
</g>
</svg>
