<svg xmlns="http://www.w3.org/2000/svg" viewBox="0 0 24 24">
        <path d="M13.28 5.653c-.331.102-.817.188-1.49.247.059-3.039 1.597-5.177 4.7-5.9.496 2.23-1.394 5.042-3.21 5.653zm6.478 3.896c.342-.504.887-1.067 1.635-1.699-1.191-1.479-2.57-2.374-4.545-2.374-1.891 0-3.483.975-4.647.975-.988 0-2.772-.862-4.513-.862C3.971 5.589 2 9.238 2 13.037 2 17.259 5.188 24 8.42 24c1.27 0 2.414-.965 3.925-.965 1.565 0 2.82.922 4.289.922 2.457 0 4.732-4.153 5.448-6.414-2.5-.766-4.508-4.833-2.324-7.994z"/>
</svg>
