<svg xmlns="http://www.w3.org/2000/svg" viewBox="0 0 24 24">
    <g>
        <path fill="none" d="M-260-24h558v210h-558z"/>
        <path d="M19.153 17.613h-2.562a9.972 9.972 0 0 0-3.001-7.118 10.251 10.251 0 0 0-7.201-2.96V5.007c7.043.025 12.748 5.656 12.764 12.606zM6.389 11.83V9.304c4.637.032 8.39 3.734 8.424 8.309H12.25c-.034-3.174-2.645-5.75-5.862-5.782zm0 4.076c0-.942.774-1.706 1.729-1.706.955 0 1.729.764 1.729 1.706s-.774 1.706-1.729 1.706c-.955 0-1.73-.764-1.73-1.706zM0 23.692h24V0H0v23.692z"/>
    </g>
</svg>
