<svg xmlns="http://www.w3.org/2000/svg" viewBox="0 0 24 24">
  <path fill="none" d="M0 24h24V0H0z"/>
  <path d="M10.146 18.216a7.883 7.883 0 0 1-4.267-1.25A5.598 5.598 0 0 0 10 15.817a2.784 2.784 0 0 1-2.6-1.932c.436.083.865.06 1.257-.047-1.339-.27-2.263-1.474-2.233-2.762.376.208.805.333 1.261.348a2.783 2.783 0 0 1-.861-3.713 7.903 7.903 0 0 0 5.736 2.906 2.784 2.784 0 0 1 4.743-2.537 5.571 5.571 0 0 0 1.767-.675 2.787 2.787 0 0 1-1.223 1.539 5.563 5.563 0 0 0 1.598-.438 5.648 5.648 0 0 1-1.388 1.44c.176 3.91-2.744 8.271-7.911 8.271zM0 24h24V0H0v24z"/>
</svg>
