<svg xmlns="http://www.w3.org/2000/svg" viewBox="0 0 44.5 48.5">
    <title>2</title>
    <path d="M67.4,58.5a14.9,14.9,0,0,0-3.1-6.3h0a8.8,8.8,0,0,0,.5-3.3,11,11,0,1,0-22,0,11.2,11.2,0,0,0,.4,3.2,21.1,21.1,0,0,0-1.8,2.7A11.1,11.1,0,0,0,42.6,77H66.7a9.3,9.3,0,0,0,.7-18.5Zm-4.2-7.4c-.1-.1-.1-.2-.2-.2S63.1,51,63.2,51.1ZM53.8,40.9a8,8,0,0,1,8,8v1h0a14.1,14.1,0,0,0-8-2.6,14.6,14.6,0,0,0-8,2.5v-.9A8,8,0,0,1,53.8,40.9Zm-9.3,10ZM66.7,73.3H42.6a7.4,7.4,0,1,1,0-14.8h1.3A10.4,10.4,0,0,1,53.8,51,10.2,10.2,0,0,1,63.9,61.2v1h2.8a5.6,5.6,0,1,1,0,11.1Z"
          transform="translate(-31.5 -28.5)"/>
    <line x1="8" y1="5.7" x2="12.6" y2="10.4" fill="none" stroke="#000" stroke-miterlimit="10" stroke-width="3"/>
    <line x1="32.6" y1="10.4" x2="37.2" y2="5.7" fill="none" stroke="#000" stroke-miterlimit="10" stroke-width="3"/>
    <line x1="36.4" y1="20.4" x2="42.9" y2="20.4" fill="none" stroke="#000" stroke-miterlimit="10" stroke-width="3"/>
    <line x1="22.3" x2="22.3" y2="6.6" fill="none" stroke="#000" stroke-miterlimit="10" stroke-width="3"/>
    <line x1="2.2" y1="20.4" x2="8.8" y2="20.4" fill="none" stroke="#000" stroke-miterlimit="10" stroke-width="3"/>
</svg>
