<svg xmlns="http://www.w3.org/2000/svg" viewBox="0 0 51.5 43.8">
    <title>13</title>
    <path d="M69.5,45a16,16,0,0,0-30-4.3,12.8,12.8,0,0,0,1.4,25.6H68.8A10.7,10.7,0,0,0,79.5,55.6,10.6,10.6,0,0,0,69.5,45Zm-.7,17H40.9a8.6,8.6,0,1,1,0-17.1h1.5a11.7,11.7,0,0,1,11.3-8.6A11.8,11.8,0,0,1,65.6,48.1v1.1h3.2a6.4,6.4,0,1,1,0,12.8Z"
          transform="translate(-28 -32)"/>
    <line x1="41" y1="37.5" x2="37.6" y2="43" fill="none" stroke="#000" stroke-miterlimit="10" stroke-width="3"/>
    <line x1="32" y1="37.5" x2="28.6" y2="43" fill="none" stroke="#000" stroke-miterlimit="10" stroke-width="3"/>
    <line x1="23" y1="37.5" x2="19.6" y2="43" fill="none" stroke="#000" stroke-miterlimit="10" stroke-width="3"/>
    <line x1="14" y1="37.5" x2="10.6" y2="43" fill="none" stroke="#000" stroke-miterlimit="10" stroke-width="3"/>
    <polyline points="27.5 8.5 22.5 18.5 29.5 18.5 24.5 27.5" fill="#fff" stroke="#000" stroke-miterlimit="10"
              stroke-width="3"/>
</svg>
