<svg xmlns="http://www.w3.org/2000/svg" viewBox="0 0 52 48">
    <title>snow</title>
    <path d="M69.9,41.4a16.2,16.2,0,0,0-30.3-4.3A13,13,0,0,0,41,63H69.2A10.9,10.9,0,0,0,80,52.2,10.8,10.8,0,0,0,69.9,41.4Zm-.7,17.3H41a8.7,8.7,0,0,1,0-17.4h1.5a11.9,11.9,0,0,1,23.4,3.3v1.1h3.3a6.5,6.5,0,0,1,0,13Z"
          transform="translate(-28 -28.3)"/>
    <line x1="40" y1="39.7" x2="40" y2="47.7" fill="none" stroke="#000" stroke-miterlimit="10" stroke-width="2"/>
    <line x1="43.3" y1="41.5" x2="36.7" y2="45.9" fill="none" stroke="#000" stroke-miterlimit="10" stroke-width="2"/>
    <line x1="43.3" y1="45.9" x2="36.7" y2="41.4" fill="none" stroke="#000" stroke-miterlimit="10" stroke-width="2"/>
    <line x1="26.3" y1="40" x2="26.3" y2="48" fill="none" stroke="#000" stroke-miterlimit="10" stroke-width="2"/>
    <line x1="29.7" y1="41.8" x2="23" y2="46.2" fill="none" stroke="#000" stroke-miterlimit="10" stroke-width="2"/>
    <line x1="29.6" y1="46.3" x2="23" y2="41.7" fill="none" stroke="#000" stroke-miterlimit="10" stroke-width="2"/>
    <line x1="12" y1="39.7" x2="12" y2="47.7" fill="none" stroke="#000" stroke-miterlimit="10" stroke-width="2"/>
    <line x1="15.3" y1="41.5" x2="8.7" y2="45.9" fill="none" stroke="#000" stroke-miterlimit="10" stroke-width="2"/>
    <line x1="15.3" y1="45.9" x2="8.7" y2="41.4" fill="none" stroke="#000" stroke-miterlimit="10" stroke-width="2"/>
</svg>
