<svg xmlns="http://www.w3.org/2000/svg" viewBox="0 0 51.5 48.7">
    <title>7</title>
    <path d="M69.5,41a16,16,0,0,0-30-4.3,12.8,12.8,0,0,0,1.4,25.6H68.8A10.7,10.7,0,0,0,79.5,51.6,10.6,10.6,0,0,0,69.5,41Zm-.7,17H40.9a8.6,8.6,0,1,1,0-17.1h1.5a11.7,11.7,0,0,1,11.3-8.6A11.8,11.8,0,0,1,65.6,44.1v1.1h3.2a6.4,6.4,0,1,1,0,12.8Z"
          transform="translate(-28 -28)"/>
    <line x1="11.2" y1="39.8" x2="24.9" y2="39.8" fill="none" stroke="#000" stroke-miterlimit="10" stroke-width="4"/>
    <line x1="27.3" y1="39.8" x2="41" y2="39.8" fill="none" stroke="#000" stroke-miterlimit="10" stroke-width="4"/>
    <line x1="11.2" y1="46.7" x2="24.9" y2="46.7" fill="none" stroke="#000" stroke-miterlimit="10" stroke-width="4"/>
    <line x1="27.3" y1="46.7" x2="41" y2="46.7" fill="none" stroke="#000" stroke-miterlimit="10" stroke-width="4"/>
</svg>
