<svg xmlns="http://www.w3.org/2000/svg" viewBox="0 0 52 44.5">
    <title>14</title>
    <path d="M69.9,41.4a16.2,16.2,0,0,0-30.3-4.3A13,13,0,0,0,41,63H69.2A10.9,10.9,0,0,0,80,52.2,10.8,10.8,0,0,0,69.9,41.4Zm-.7,17.3H41a8.7,8.7,0,0,1,0-17.4h1.5a11.9,11.9,0,0,1,23.4,3.3v1.1h3.3a6.5,6.5,0,0,1,0,13Z"
          transform="translate(-28 -28.3)"/>
    <line x1="33" y1="19.7" x2="33" y2="27.7" fill="none" stroke="#000" stroke-miterlimit="10" stroke-width="2"/>
    <line x1="36.3" y1="21.5" x2="29.7" y2="25.9" fill="none" stroke="#000" stroke-miterlimit="10" stroke-width="2"/>
    <line x1="36.3" y1="25.9" x2="29.7" y2="21.4" fill="none" stroke="#000" stroke-miterlimit="10" stroke-width="2"/>
    <line x1="18.3" y1="20" x2="18.3" y2="28" fill="none" stroke="#000" stroke-miterlimit="10" stroke-width="2"/>
    <line x1="21.7" y1="21.8" x2="15" y2="26.2" fill="none" stroke="#000" stroke-miterlimit="10" stroke-width="2"/>
    <line x1="21.6" y1="26.3" x2="15" y2="21.7" fill="none" stroke="#000" stroke-miterlimit="10" stroke-width="2"/>
    <line x1="39" y1="38.3" x2="35.3" y2="43.7" fill="none" stroke="#000" stroke-miterlimit="10" stroke-width="3"/>
    <line x1="31.3" y1="38.3" x2="27.7" y2="43.7" fill="none" stroke="#000" stroke-miterlimit="10" stroke-width="3"/>
    <line x1="23.7" y1="38.3" x2="20" y2="43.7" fill="none" stroke="#000" stroke-miterlimit="10" stroke-width="3"/>
    <line x1="16" y1="38.3" x2="12.3" y2="43.7" fill="none" stroke="#000" stroke-miterlimit="10" stroke-width="3"/>
</svg>
