<svg xmlns="http://www.w3.org/2000/svg" viewBox="0 0 52 48.3">
    <title>11</title>
    <path d="M69.9,44.4a16.2,16.2,0,0,0-30.3-4.3A13,13,0,0,0,41,66H69.2A10.9,10.9,0,0,0,80,55.2,10.8,10.8,0,0,0,69.9,44.4Zm-.7,17.3H41a8.7,8.7,0,0,1,0-17.4h1.5a11.9,11.9,0,0,1,23.4,3.3v1.1h3.3a6.5,6.5,0,0,1,0,13Z"
          transform="translate(-28 -31)"/>
    <path d="M41.9,39.3a10.8,10.8,0,0,0-1.3,2.9A7,7,0,0,0,41.9,39.3Z" transform="translate(-28 -31)"/>
    <path d="M40.5,42.3H39a8.7,8.7,0,0,0-6,2.4,6.9,6.9,0,0,0,7.5-2.4Z" transform="translate(-28 -31)"/>
    <path d="M37.6,38.1a16.3,16.3,0,0,1,3.1-4.2A7.3,7.3,0,0,0,35,31a7,7,0,0,0-7,7,6.8,6.8,0,0,0,1.4,4.2A13.2,13.2,0,0,1,37.6,38.1Z"
          transform="translate(-28 -31)"/>
    <line x1="40" y1="40" x2="40" y2="48" fill="none" stroke="#000" stroke-miterlimit="10" stroke-width="2"/>
    <line x1="43.3" y1="41.8" x2="36.7" y2="46.2" fill="none" stroke="#000" stroke-miterlimit="10" stroke-width="2"/>
    <line x1="43.3" y1="46.3" x2="36.7" y2="41.7" fill="none" stroke="#000" stroke-miterlimit="10" stroke-width="2"/>
    <line x1="26.3" y1="40.3" x2="26.3" y2="48.3" fill="none" stroke="#000" stroke-miterlimit="10" stroke-width="2"/>
    <line x1="29.7" y1="42.1" x2="23" y2="46.5" fill="none" stroke="#000" stroke-miterlimit="10" stroke-width="2"/>
    <line x1="29.6" y1="46.6" x2="23" y2="42.1" fill="none" stroke="#000" stroke-miterlimit="10" stroke-width="2"/>
    <line x1="12" y1="40" x2="12" y2="48" fill="none" stroke="#000" stroke-miterlimit="10" stroke-width="2"/>
    <line x1="15.3" y1="41.8" x2="8.7" y2="46.2" fill="none" stroke="#000" stroke-miterlimit="10" stroke-width="2"/>
    <line x1="15.3" y1="46.3" x2="8.7" y2="41.7" fill="none" stroke="#000" stroke-miterlimit="10" stroke-width="2"/>
</svg>
